<svg width="4096" height="1451" viewBox="0 0 4096 1451" fill="none" xmlns="http://www.w3.org/2000/svg">
<rect x="47" y="39" width="4003" height="856" fill="white"/>
<ellipse cx="2812.5" cy="805" rx="391.5" ry="338" fill="white"/>
<ellipse cx="2667.5" cy="925" rx="391.5" ry="338" fill="white"/>
<ellipse cx="1465.5" cy="975" rx="391.5" ry="338" fill="white"/>
<ellipse cx="2472.5" cy="1015" rx="391.5" ry="338" fill="white"/>
<ellipse cx="2048" cy="1088" rx="718" ry="338" fill="white"/>
<ellipse cx="1256.5" cy="805" rx="391.5" ry="338" fill="white"/>
<path fill-rule="evenodd" clip-rule="evenodd" d="M0 464.347V928.612H436.395H872.79L881.014 942.362C910.677 991.957 942.91 1033.22 986.963 1077.98C1024.83 1116.46 1062.67 1148.88 1107 1180.82C1345.74 1352.83 1686.76 1450.6 2048 1450.6C2409.24 1450.6 2750.26 1352.83 2989 1180.82C3033.33 1148.88 3071.17 1116.46 3109.04 1077.98C3153.09 1033.22 3185.32 991.957 3214.99 942.362L3223.21 928.612H3659.6H4096V464.306V0L2048 0.041L0 0.083V464.347ZM3899.36 65.709C3902.38 111.798 3928.2 153.974 3968.48 178.604C3986.99 189.923 4009.24 196.983 4033.25 199.159L4040 199.771V464.075V728.379L4033.25 729.055C4012.73 731.112 3994.05 736.258 3978.63 744.108C3932.44 767.609 3903.04 811.675 3899.24 863.112L3898.5 873.112L3544.5 873.387L3190.5 873.662L3175.76 898.964C3147.92 946.74 3126.13 977.054 3093.01 1014.1C2911.9 1216.68 2582.77 1356.37 2212 1388.04C2121.94 1395.73 2017.2 1396.85 1926 1391.1C1505.62 1364.59 1137.53 1201.26 961.493 963.112C948.357 945.342 936.732 927.264 920.243 898.963L905.5 873.66L552.903 873.636L200.306 873.612L199.164 861.197C197.222 840.086 192.493 823.959 182.824 805.465C168.924 778.881 146.177 756.998 118.5 743.584C100.582 734.9 84.967 730.687 64.557 729.031L56 728.337V463.974C56 205.208 56.04 199.612 57.894 199.612C58.936 199.612 64.432 199.135 70.109 198.553C138.309 191.554 191.942 137.921 198.941 69.721C199.523 64.044 200 58.548 200 57.506C200 55.648 235.151 55.612 2049.35 55.612H3898.7L3899.36 65.709ZM226 86.484C226 87.513 224.874 92.793 223.499 98.216C208.054 159.102 159.49 207.666 98.604 223.111C93.181 224.486 87.901 225.612 86.872 225.612C85.048 225.612 85 231.72 85 463.884V702.156L91.75 703.429C95.463 704.129 103.781 706.464 110.236 708.618C154.092 723.252 189.704 754.065 210.445 795.326C216.515 807.401 223.205 826.339 225.118 836.862L226.346 843.612H574.049H921.753L940.377 875.587C960.942 910.894 969.705 924.708 983.847 944.112C1017.58 990.39 1063.35 1037.92 1114 1079.27C1289.46 1222.5 1547.86 1320.96 1834 1353.62C1974.92 1369.7 2121.08 1369.7 2262 1353.62C2548.14 1320.96 2806.54 1222.5 2982 1079.27C3032.65 1037.92 3078.42 990.39 3112.15 944.112C3126.3 924.708 3135.06 910.894 3155.62 875.587L3174.25 843.612H3523.1H3871.96L3872.47 841.362C3872.75 840.125 3873.45 836.862 3874.02 834.112C3876.92 820.087 3886.03 797.656 3894.66 783.277C3917.38 745.434 3957.54 715.645 4000.05 705.101L4011 702.383V464.078V225.772L4004.07 224.195C3984.14 219.662 3959.74 208.725 3943.05 196.84C3926.61 185.129 3910.03 168.088 3898.57 151.112C3888.77 136.61 3877.29 109.957 3874.02 94.112C3873.45 91.362 3872.75 88.099 3872.47 86.862L3871.96 84.612H2048.98C268.294 84.612 226 84.655 226 86.484Z" fill="#0000FF"/>
</svg>
