<svg width="4096" height="2512" viewBox="0 0 4096 2512" fill="none" xmlns="http://www.w3.org/2000/svg">
<rect x="51" y="1015" width="254" height="241" fill="white"/>
<rect x="3793" y="1015" width="254" height="241" fill="white"/>
<rect x="2763" y="1677" width="316" height="241" fill="white"/>
<rect x="1025" y="1677" width="316" height="241" fill="white"/>
<ellipse cx="2048" cy="2215.5" rx="381" ry="262.5" fill="white"/>
<path fill-rule="evenodd" clip-rule="evenodd" d="M2039.07 3.27859C2032.89 6.26759 2029.01 9.04659 2024.04 14.0316C2016.69 21.4166 2013.25 27.6536 2010.06 39.3726C2007.97 47.0576 2005.03 69.2736 2005.01 77.5046C2005 80.1166 2004.69 82.2546 2004.32 82.2546C2003.94 82.2546 1999.92 79.7536 1995.37 76.6976C1983.94 69.0106 1977.93 67.0056 1964.75 66.4696C1949.99 65.8706 1947.34 66.4586 1946.41 70.5366C1945.09 76.3106 1945.68 101.337 1947.32 109.755C1949.07 118.705 1952.14 129.08 1955.02 135.804L1956.94 140.276L1945.94 131.292C1907.79 100.136 1869.01 81.7926 1823.5 73.3696C1789.94 67.1576 1750.88 67.1416 1714 73.3256C1680.64 78.9186 1662.23 84.4166 1633 97.5026C1578.99 121.686 1537.79 152.844 1502.42 196.255C1498.16 201.48 1486.93 216.105 1477.47 228.755C1456.59 256.674 1449.58 264.756 1430.93 282.41C1404.95 306.998 1391.85 317.336 1380.31 322.374C1347.5 336.695 1310.95 338.784 1288.72 327.611C1279.94 323.195 1276.05 319.185 1266.59 304.788C1262.31 298.28 1256.57 290.811 1253.83 288.19C1246.11 280.785 1234.63 276.255 1223.58 276.255C1219.69 276.255 1219.02 276.628 1216.73 280.086C1198.36 307.845 1193.24 350.229 1204.74 379.255C1217.29 410.937 1245.32 423.569 1281.75 413.962C1286.84 412.62 1291 411.824 1291 412.193C1291 412.562 1289.71 414.864 1288.14 417.309C1275.75 436.592 1234.76 462.617 1174 489.788C1137.01 506.33 1095.26 521.753 1068.5 528.762C1016.42 542.402 970.485 538.255 939.176 517.088C931.176 511.679 919.764 499.237 915.687 491.479C904.558 470.301 905.9 448.712 919.629 428.061C927.442 416.309 941.67 405.52 953.5 402.378C960.866 400.421 971.45 399.31 976.811 399.93L982.122 400.545L976.909 403.396C953.349 416.279 938.066 442.497 941.711 463.776C945.45 485.603 963.569 500.733 991.375 505.246C1004.99 507.455 1017.22 505.679 1029.81 499.662C1035.88 496.766 1039.32 494.16 1046.12 487.31C1053.44 479.939 1055.51 477.053 1059.88 468.192C1067.94 451.837 1069.36 445.21 1069.36 423.755C1069.36 408.319 1069.04 404.615 1067.16 397.755C1058.49 366.15 1036.79 345.321 1003.5 336.653C989.784 333.082 968.22 332.264 952.56 334.721C928.6 338.481 908.009 348.104 887.653 365.055C860.717 387.485 845.651 418.752 847.296 448.805C847.596 454.277 847.989 459.655 848.17 460.755C848.499 462.75 847.873 462.756 586.269 463.007L324.037 463.259L323.597 465.507C323.355 466.743 322.626 471.805 321.976 476.755C316.451 518.84 304.568 563.283 289.363 598.735C261.465 663.779 216.255 713.514 158.052 743.187C117.463 763.881 73.695 775.696 18.979 780.731C9.916 781.565 1.938 782.249 1.25 782.251C0.253 782.254 0 846.806 0 1101.67V1421.08L3.75 1421.62C5.813 1421.92 11.55 1422.43 16.5 1422.76C21.45 1423.09 31.125 1424.03 38 1424.84C188.446 1442.59 278.328 1516.8 308.471 1648.17C313.888 1671.78 317.566 1699.4 318.535 1723.75C318.842 1731.45 319.324 1739.67 319.607 1742L320.123 1746.25H602.849H885.576L890.372 1760.5C900.492 1790.56 914 1820.64 928.102 1844.52C975.396 1924.58 1043.91 1971.31 1134.39 1985.2C1141.32 1986.26 1154.19 1987.69 1163 1988.38L1179 1989.62V2042.94V2096.25L1277.75 2096.29L1376.5 2096.33L1381.88 2107.04C1393.56 2130.33 1415.83 2167.25 1432.35 2190.75C1487.45 2269.12 1554.15 2334.32 1633 2386.91C1732.43 2453.21 1846.58 2494.67 1965.5 2507.67C1996.24 2511.03 2009.56 2511.68 2048 2511.68C2086.44 2511.68 2099.76 2511.03 2130.5 2507.67C2356.06 2483.02 2558.74 2356.62 2681.18 2164.25C2693.22 2145.34 2706.33 2122.58 2714.12 2107.04L2719.5 2096.33L2818.24 2096.29L2916.98 2096.25L2917.24 2043.03L2917.5 1989.81L2925.5 1988.55C3032.29 1971.68 3106.4 1932.24 3156.23 1865.75C3179.57 1834.6 3197.87 1794.84 3207.65 1754.01L3209.5 1746.27L3492 1746.01L3774.5 1745.75L3774.73 1741.25C3778.68 1663.97 3796.26 1598.78 3826.58 1549.02C3846.26 1516.72 3877.14 1485.64 3908 1467.07C3943.09 1445.95 3981.82 1432.77 4029.25 1425.8C4044.5 1423.56 4072.62 1421.28 4085.25 1421.27L4096 1421.25V1101.75C4096 798.137 4095.91 782.255 4094.25 782.251C4093.29 782.249 4085.07 781.566 4076 780.733C3980.46 771.966 3911.3 743.662 3859.95 692.308C3807.77 640.136 3780.15 571.071 3771.44 471.007L3770.76 463.259L3509.13 463.007C3248.13 462.756 3247.5 462.75 3247.83 460.755C3248.01 459.655 3248.4 454.277 3248.7 448.805C3250.35 418.752 3235.28 387.485 3208.35 365.055C3180.64 341.981 3152.74 332.3 3117.5 333.527C3099.82 334.143 3087.34 336.936 3074.24 343.214C3055.04 352.416 3043.19 364.092 3034.54 382.344C3028.05 396.057 3026.64 403.414 3026.64 423.755C3026.64 445.21 3028.06 451.837 3036.12 468.192C3040.49 477.053 3042.57 479.939 3049.88 487.31C3059.61 497.107 3068.63 502.221 3080.69 504.776C3101.86 509.262 3128.3 501.944 3141.83 487.856C3156.19 472.894 3158.77 454.156 3149.11 434.801C3142.24 421.033 3132.27 410.604 3119.09 403.396L3113.88 400.545L3119.19 399.93C3124.55 399.31 3135.13 400.421 3142.5 402.378C3154.33 405.52 3168.56 416.309 3176.37 428.061C3190.1 448.712 3191.44 470.301 3180.31 491.479C3176.24 499.237 3164.82 511.679 3156.82 517.088C3125.51 538.255 3079.58 542.402 3027.5 528.762C3000.74 521.753 2958.99 506.33 2922 489.788C2861.24 462.617 2820.25 436.592 2807.86 417.309C2806.29 414.864 2805 412.562 2805 412.193C2805 411.824 2809.16 412.62 2814.25 413.962C2863.26 426.889 2897.12 398.465 2897.29 344.255C2897.36 320.703 2890.88 297.634 2879.27 280.086C2876.98 276.628 2876.31 276.255 2872.42 276.255C2861.37 276.255 2849.89 280.785 2842.17 288.19C2839.43 290.811 2833.69 298.28 2829.41 304.788C2825.14 311.297 2819.93 318.326 2817.85 320.409C2801.63 336.629 2763.32 339.385 2727.5 326.911C2706.78 319.695 2697.42 313.024 2665.07 282.41C2646.42 264.756 2639.4 256.674 2618.52 228.755C2609.06 216.105 2597.84 201.48 2593.58 196.255C2558.21 152.844 2517.01 121.686 2463 97.5026C2439.76 87.0966 2426.85 82.6466 2407.32 78.3166C2375.83 71.3356 2354.08 68.8106 2325.5 68.8166C2257.85 68.8286 2202.35 88.5946 2150.06 131.292L2139.06 140.276L2140.98 135.804C2143.86 129.08 2146.93 118.705 2148.68 109.755C2150.32 101.337 2150.91 76.3106 2149.59 70.5366C2148.66 66.4586 2146.01 65.8706 2131.25 66.4696C2118.06 67.0056 2112.06 69.0106 2100.63 76.6976C2096.08 79.7536 2092.05 82.2546 2091.68 82.2546C2091.31 82.2546 2091 80.1166 2090.99 77.5046C2090.97 69.2736 2088.03 47.0576 2085.94 39.3726C2084.84 35.3126 2082.74 29.4626 2081.29 26.3726C2077.61 18.5326 2067.31 8.43759 2058.48 4.01559C2048.04 -1.21441 2048.34 -1.20341 2039.07 3.27859ZM2053.91 135.918C2068.09 144.145 2079.61 155.412 2085.89 167.198C2088.78 172.62 2093 185.877 2093 189.531C2093 190.53 2089.39 196.801 2084.98 203.466C2071.28 224.175 2056.49 256.055 2050.41 278.005C2049.45 281.443 2048.37 284.255 2048 284.255C2047.63 284.255 2046.55 281.443 2045.59 278.005C2039.51 256.055 2024.72 224.175 2011.02 203.466C2006.61 196.801 2003 190.53 2003 189.531C2003 185.877 2007.22 172.62 2010.11 167.198C2016.37 155.463 2027.59 144.463 2042 135.936C2047.59 132.631 2048.25 132.63 2053.91 135.918ZM1793.5 183.316C1829.32 186.422 1859 195.922 1886.89 213.203C1945.89 249.764 1982.31 318.85 1979.69 389.25C1977.85 438.769 1955.8 477.672 1913.15 506.661C1904.51 512.537 1880.8 524.559 1870.75 528.165L1865 530.228L1871.17 522.491C1899.86 486.5 1914.78 441.749 1912.59 398.255C1908.6 319.254 1856.24 258.754 1781.5 246.796C1752.92 242.222 1720.16 244.685 1693.73 253.397C1638.09 271.732 1600.35 321.331 1603.34 372.191C1604.61 393.916 1612.32 411.283 1627.94 427.617C1640.17 440.408 1655.19 449.04 1673.79 453.96C1682.13 456.166 1685.69 456.538 1699 456.598C1716.37 456.676 1724.54 455.035 1736.3 449.108C1755 439.676 1770.54 423.14 1776.46 406.364C1779.34 398.206 1780.43 384.872 1779.06 374.448C1776.15 352.158 1768.03 336.467 1749.62 317.505L1740.63 308.255L1750.57 308.286C1796.55 308.429 1824.04 327.55 1834.6 366.755C1837.12 376.076 1837.62 399.756 1835.56 411.875C1828.31 454.577 1800.47 490.629 1762.37 506.646C1744.81 514.028 1725.73 517.497 1703 517.439C1658.07 517.323 1619.34 501.831 1590 472.237C1570.99 453.063 1559.01 430.612 1552.76 402.438C1549.81 389.172 1549.57 354.528 1552.33 340.755C1563.72 283.9 1597.12 240.4 1652 210.933C1692.18 189.36 1744.79 179.092 1793.5 183.316ZM2344.5 183.299C2404.81 187.759 2457.1 210.396 2494.98 248.446C2520.75 274.333 2536.25 303.725 2543.67 340.755C2546.43 354.528 2546.19 389.172 2543.25 402.438C2534.74 440.749 2514.95 469.825 2482.5 491.697C2439.8 520.478 2375.4 525.918 2329.12 504.654C2294.07 488.553 2267.32 452.417 2260.44 411.875C2258.38 399.756 2258.88 376.076 2261.4 366.755C2265.69 350.813 2272.7 338.646 2283.47 328.415C2297.84 314.762 2317.51 308.373 2345.43 308.286L2355.37 308.255L2346.38 317.505C2327.97 336.467 2319.85 352.158 2316.94 374.448C2315.57 384.872 2316.66 398.206 2319.54 406.364C2327.1 427.793 2349.32 447.521 2373.7 454.451C2380.31 456.329 2383.87 456.657 2397 456.598C2410.31 456.538 2413.87 456.166 2422.21 453.96C2440.81 449.04 2455.83 440.408 2468.06 427.617C2483.68 411.283 2491.39 393.916 2492.66 372.191C2495.65 321.331 2457.91 271.732 2402.27 253.397C2375.84 244.685 2343.08 242.222 2314.5 246.796C2261.85 255.22 2218.82 288.343 2197.61 336.77C2171.2 397.084 2181.64 468.314 2224.83 522.491L2231 530.228L2225.25 528.165C2215.2 524.559 2191.49 512.537 2182.85 506.661C2153.72 486.862 2134.74 463.043 2124.13 432.954C2119.23 419.082 2116.96 406.47 2116.3 389.492C2113.58 319.117 2150.08 249.782 2209.11 213.203C2247.74 189.268 2292.26 179.435 2344.5 183.299ZM1468.55 425.255C1473.29 449.694 1483.61 477.254 1496.23 499.255C1507.92 519.621 1518.46 533.305 1538.92 554.709C1553.59 570.05 1557.28 575.728 1559.16 585.86C1560.37 592.353 1558.87 602.854 1555.61 610.644C1554.03 614.417 1553.9 614.494 1550 613.871C1543.69 612.863 1536.91 610.325 1531.71 607.033C1523.12 601.584 1518.72 593.736 1509.45 567.255C1505.46 555.862 1498.2 540.917 1494.95 537.434C1491.93 534.186 1486.12 534.459 1482.8 538.005C1479.05 542.016 1477.62 545.323 1473.11 560.384C1467.42 579.401 1463.32 590.791 1459.66 597.701C1451.29 613.508 1436.14 621.207 1413.33 621.24L1403.17 621.255L1402.45 613.56C1401.36 601.953 1402.58 581.991 1404.97 572.255C1407.44 562.203 1415.12 546.11 1421.36 537.901C1423.81 534.681 1430.86 526.5 1437.03 519.72C1449.66 505.847 1453.87 500.315 1458.1 492.012C1462.09 484.164 1464 476.232 1464 467.438C1464 459.675 1461.19 445.639 1459.91 446.976C1459.5 447.404 1456.41 452.878 1453.04 459.14C1443.4 477.075 1435.67 487.58 1422 501.301C1394.31 529.094 1359.19 549.675 1320.5 560.773C1298.53 567.075 1271.77 569.081 1255.21 565.666C1248.19 564.219 1233 558.173 1233 556.826C1233 556.518 1240.23 552.645 1249.07 548.219C1312.84 516.289 1381.47 471.288 1447 418.431L1464.5 404.316L1465.21 408.036C1465.6 410.081 1467.1 417.83 1468.55 425.255ZM2652.52 421.195C2716.66 472.708 2784 516.708 2846.93 548.219C2855.77 552.645 2863 556.518 2863 556.826C2863 558.173 2847.81 564.219 2840.79 565.666C2829.93 567.905 2810.05 567.745 2795.85 565.305C2751.42 557.671 2706.77 534.223 2674 501.31C2660.33 487.581 2652.59 477.062 2642.96 459.14C2639.59 452.878 2636.5 447.404 2636.09 446.976C2634.81 445.639 2632 459.675 2632 467.438C2632 476.232 2633.91 484.164 2637.9 492.012C2642.13 500.315 2646.34 505.847 2658.97 519.72C2665.14 526.5 2672.19 534.681 2674.64 537.901C2680.88 546.11 2688.56 562.203 2691.03 572.255C2693.42 581.991 2694.64 601.953 2693.55 613.56L2692.83 621.255L2682.67 621.24C2659.86 621.207 2644.71 613.508 2636.34 597.701C2632.68 590.791 2628.58 579.401 2622.89 560.384C2618.38 545.323 2616.95 542.016 2613.2 538.005C2609.88 534.459 2604.07 534.186 2601.05 537.434C2597.8 540.917 2590.54 555.862 2586.55 567.255C2577.28 593.736 2572.88 601.584 2564.29 607.033C2559.09 610.325 2552.31 612.863 2546 613.871C2542.1 614.494 2541.97 614.417 2540.39 610.644C2537.13 602.854 2535.63 592.353 2536.84 585.86C2538.72 575.728 2542.41 570.05 2557.08 554.709C2577.54 533.305 2588.08 519.621 2599.77 499.255C2614.83 473.01 2626.35 439.137 2630.48 408.993C2631.06 404.72 2631.3 404.36 2632.83 405.493C2633.77 406.187 2642.63 413.253 2652.52 421.195ZM881.975 546.505C889.126 554.979 899.005 564.155 907.799 570.494L915.098 575.755L666.116 576.007C430.08 576.246 417.107 576.35 416.629 578.007C379.741 705.823 307.943 796.251 202.5 847.698C167.169 864.936 130.245 877.212 97 882.773C88.475 884.199 80.713 885.596 79.75 885.877C78.13 886.352 78 885.083 78 868.841C78 851.447 78.02 851.289 80.25 850.831C151.317 836.247 204.771 812.51 253.33 773.975C266.658 763.399 289.766 740.68 301.87 726.255C339.341 681.596 368.085 623.554 385.069 558.255C387.286 549.73 389.289 542.193 389.519 541.505C389.852 540.51 439.503 540.255 633.319 540.255H876.7L881.975 546.505ZM3702.44 542.505C3702.71 543.742 3704.12 550.38 3705.59 557.255C3711.2 583.571 3721.24 615.154 3731.68 639.255C3756.97 697.705 3796.24 746.957 3846.34 783.077C3875.51 804.106 3914.42 823.315 3953 835.734C3967.1 840.273 3995.1 847.369 4008.25 849.736L4018 851.491V869.373C4018 879.579 4017.61 887.255 4017.08 887.255C4014.36 887.255 3978.88 879.778 3967.42 876.789C3909.51 861.686 3856.16 835.986 3813.15 802.471C3749.26 752.701 3702.77 681.389 3679.04 596.755C3676.72 588.505 3674.49 580.63 3674.08 579.255L3673.33 576.755L3426.49 576.255L3179.65 575.755L3184.07 572.86C3192.15 567.579 3204.88 556.167 3211.64 548.157L3218.31 540.255H3460.14H3701.96L3702.44 542.505ZM151.54 1034.77C175.477 1040.85 192.88 1059.83 197.018 1084.36C202.081 1114.38 180.63 1145.46 150.5 1151.76C120.535 1158.02 90.303 1140.79 80.9 1112.08C77.45 1101.55 77.442 1083.82 80.883 1073.85C87.396 1054.98 104.352 1039.51 123.638 1034.84C131.483 1032.94 144.221 1032.91 151.54 1034.77ZM3976.98 1036.55C3995.87 1043.28 4010.14 1058.77 4015.02 1077.84C4018.74 1092.36 4017.44 1105.28 4010.87 1119.03C3999.54 1142.75 3973.47 1156.55 3948.06 1152.26C3907.48 1145.42 3885.64 1103.13 3903.63 1066.25C3910.73 1051.71 3926.78 1038.77 3942.68 1034.78C3951.97 1032.45 3967.75 1033.26 3976.98 1036.55ZM4018 1331.25C4018 1348.9 4017.96 1349.25 4015.89 1349.25C4011.78 1349.25 3985.28 1354.5 3969.85 1358.36C3901.64 1375.45 3843.64 1408.63 3800.2 1455.42C3754.53 1504.6 3722.51 1571.96 3707.47 1650.46C3706.07 1657.77 3704.7 1664.77 3704.44 1666L3703.96 1668.25H3465.48C3249.54 1668.25 3227 1668.11 3227 1666.69C3227 1665.82 3228.58 1657.92 3230.5 1649.12C3232.42 1640.31 3234 1632.92 3234 1632.68C3234 1632.45 3333.17 1632.25 3454.38 1632.25H3674.75L3678.35 1617.5C3697.52 1538.89 3733.03 1472.45 3782.39 1422.87C3831.85 1373.17 3891.61 1340.87 3969.5 1321.73C3975.51 1320.25 4013.14 1313.57 4016.75 1313.33C4017.71 1313.27 4018 1317.48 4018 1331.25ZM99.5 1321.23C139.693 1326.1 199.496 1347.61 241.628 1372.36C335.018 1427.22 394.716 1513.19 420.541 1630L421.038 1632.25H639.019C758.909 1632.25 857 1632.52 857 1632.84C857 1633.62 863.918 1664.24 864.605 1666.5C865.108 1668.17 853.381 1668.25 628.067 1668.25C394.388 1668.25 391 1668.23 391 1666.32C391 1665.26 389.859 1658.21 388.465 1650.66C381.091 1610.74 369.719 1575.83 352.986 1541.75C307.655 1449.44 226.326 1387.38 114.5 1359.77C104.6 1357.32 92.338 1354.58 87.25 1353.66L78 1352V1335.63V1319.25L80.75 1319.27C82.263 1319.28 90.7 1320.16 99.5 1321.23ZM1305.96 1744C1305.89 1817.57 1306.61 1834.65 1310.96 1861.43C1313.9 1879.54 1310.45 1893.17 1299.76 1905.67C1296.56 1909.41 1293.48 1911.55 1286.55 1914.82L1277.5 1919.1L1276.13 1913.93C1275.23 1910.53 1274.72 1902.57 1274.66 1890.75C1274.58 1874.93 1274.85 1871.73 1276.87 1864.26C1279.58 1854.24 1284.95 1842.17 1288.89 1837.25C1295.58 1828.89 1298.23 1817.89 1297.79 1800.25L1297.5 1788.75L1293.07 1795.25C1277.32 1818.39 1255.06 1841.51 1237 1853.5C1230.68 1857.7 1222.35 1862.62 1218.5 1864.44C1211.99 1867.51 1210.65 1867.76 1199.25 1868.1L1187 1868.46L1187.02 1858.61C1187.04 1846 1188.89 1837.42 1193.88 1826.78C1208.51 1795.56 1234.64 1770.93 1273.65 1751.61L1288.79 1744.11L1290.9 1739.05C1293.27 1733.34 1293.67 1724.74 1291.8 1719.58C1291.14 1717.75 1290.33 1716.25 1289.99 1716.25C1289.66 1716.25 1287.84 1717.88 1285.95 1719.86C1280.75 1725.3 1263.47 1739.33 1255 1744.97C1220.85 1767.75 1177.61 1781.58 1140.5 1781.58C1125.82 1781.59 1114.77 1780.46 1096.58 1777.12C1074.06 1772.98 1059.32 1766.67 1051.06 1757.62C1046.72 1752.88 1043.03 1745.89 1044.23 1744.69C1044.47 1744.45 1050.93 1743.83 1058.58 1743.3C1096.06 1740.75 1152.97 1730.1 1200.56 1716.75C1230.26 1708.41 1268.08 1694.29 1291.5 1682.8C1298.65 1679.3 1304.85 1676.39 1305.27 1676.34C1305.69 1676.29 1306 1706.74 1305.96 1744ZM2805.1 1683.15C2845.26 1702.38 2897.1 1719.19 2950 1730.13C2981.83 1736.71 3015.2 1741.75 3037.46 1743.35C3045.14 1743.9 3051.6 1744.52 3051.81 1744.73C3052.97 1745.89 3049.21 1752.96 3044.97 1757.59C3034.91 1768.6 3015.19 1775.67 2983.5 1779.64C2956.1 1783.07 2945.63 1782.75 2920.5 1777.73C2879.88 1769.62 2844 1751.39 2814.2 1723.7C2809.65 1719.47 2805.8 1716.17 2805.66 1716.38C2802.39 1721.17 2802.13 1731.89 2805.1 1739.05L2807.21 1744.11L2822.35 1751.61C2861.36 1770.93 2887.49 1795.56 2902.12 1826.78C2907.11 1837.42 2908.96 1846 2908.98 1858.61L2909 1868.46L2896.75 1868.1C2885.35 1867.76 2884.01 1867.51 2877.5 1864.44C2853.11 1852.93 2824.82 1827.03 2804.73 1797.82L2798.5 1788.75L2798.21 1800.25C2797.77 1817.89 2800.42 1828.89 2807.11 1837.25C2811.05 1842.17 2816.42 1854.24 2819.13 1864.26C2821.15 1871.73 2821.42 1874.93 2821.34 1890.75C2821.28 1902.57 2820.77 1910.53 2819.87 1913.93L2818.5 1919.1L2809.45 1914.82C2802.52 1911.55 2799.44 1909.41 2796.24 1905.67C2785.55 1893.17 2782.1 1879.54 2785.04 1861.43C2789.39 1834.65 2790.11 1817.57 2790.04 1744C2790 1706.74 2790.13 1676.25 2790.33 1676.25C2790.53 1676.25 2797.18 1679.36 2805.1 1683.15ZM1807.04 2351.77C1814.32 2354.89 1836.49 2363.11 1847.5 2366.77C1987.76 2413.42 2145.75 2408.72 2282.49 2353.85L2296.43 2348.25L2336.46 2348.28L2376.5 2348.32L2370.5 2351.78C2352.99 2361.89 2316.57 2378.82 2290.69 2388.87C2138.32 2448.09 1966.61 2449.43 1814.17 2392.62C1783.84 2381.31 1744.19 2363.27 1724.5 2351.81L1718.5 2348.32L1758.66 2348.28L1798.82 2348.25L1807.04 2351.77Z" fill="#0000FF"/>
</svg>
