<svg width="4096" height="1609" viewBox="0 0 4096 1609" fill="none" xmlns="http://www.w3.org/2000/svg">
<rect width="4096" height="1609" fill="white"/>
<path fill-rule="evenodd" clip-rule="evenodd" d="M0 804.5V1609H2048H4096V804.5V0H2048H0V804.5ZM4095 402.847V804.693L4082.75 806.869C3874.62 843.837 3674.01 865.451 3460 873.966C3416.44 875.699 3380 876.355 3380.02 875.407C3380.08 872.161 3383.19 860.547 3384.89 857.216C3386.08 854.877 3391.11 849.546 3397.02 844.36C3402.57 839.487 3416.6 825.001 3428.19 812.168C3439.78 799.335 3449.85 788.609 3450.58 788.332C3451.3 788.055 3453.83 789.159 3456.2 790.784C3463.46 795.775 3480.13 803.673 3491.23 807.387C3510.16 813.722 3520.14 815.328 3541 815.401C3565.7 815.487 3582.02 812.564 3604.85 803.96C3635.35 792.468 3663.73 768.86 3683.61 738.44C3694.89 721.19 3700.99 705.846 3705.45 683.5C3708.89 666.27 3708.38 667.349 3713.79 666.043C3720.43 664.439 3731.5 658.6 3742.28 651.016C3755.04 642.04 3780 617.029 3787.37 605.829C3820.61 555.332 3824.85 491.124 3798.34 439.802C3795.75 434.77 3789.38 424.84 3784.19 417.733L3774.77 404.812L3777.34 396.656C3783.18 378.141 3784.43 369.206 3784.43 346C3784.43 322.349 3783.26 314.396 3776.98 295.061C3763.58 253.848 3731.01 216.88 3691.5 198.018C3674.13 189.725 3655.31 184 3645.41 184C3639.46 184 3637.67 181.986 3630.55 167.295C3627.46 160.92 3622.54 152.058 3619.61 147.602C3595.94 111.617 3555.4 85.387 3511 77.341C3497.98 74.981 3470.07 75.009 3457 77.396C3438.29 80.81 3419.43 87.054 3406.42 94.142C3402.52 96.264 3399.06 98 3398.74 98C3398.41 98 3396.73 95.531 3395.01 92.512C3389.69 83.227 3378.8 69.957 3368.27 59.951C3346.26 39.031 3321.13 25.044 3292.5 17.79C3284.38 15.731 3281.26 15.515 3260.5 15.568C3233.53 15.636 3219.31 17.627 3199.61 24.09C3176.99 31.514 3159.75 42.366 3141 61C3122.63 79.245 3110.86 96.59 3102.66 117.5C3099.43 125.728 3097.92 130.63 3093.49 147.221L3091.96 152.942L3088.73 152.221C3086.95 151.824 3078.07 151.525 3069 151.555C3055.83 151.599 3050.29 152.071 3041.56 153.895C3011.67 160.141 2987.76 172.198 2963.01 193.5C2952.88 202.216 2944.87 211.485 2935.86 224.89C2916.56 253.633 2908 282.694 2908 319.507V329.667L2900.06 334.836C2881.04 347.226 2862.52 369.044 2850.24 393.543C2838.11 417.74 2831.73 444.034 2831.63 470.251C2831.59 482.879 2831.44 483.956 2829.83 483.446C2828.87 483.141 2825.25 482.32 2821.79 481.622L2815.5 480.353L2811.3 472.588C2802.62 456.531 2792.26 446.21 2777.5 438.927C2764.91 432.713 2755.09 430.673 2740.58 431.252C2727.79 431.763 2719.6 433.728 2709.25 438.769C2706.36 440.176 2703.87 441.141 2703.73 440.914C2691.13 421.383 2675.46 409.403 2656.01 404.422C2646.95 402.103 2625.57 402.909 2615.02 405.967C2590.37 413.111 2569.87 434.658 2563.48 460.146L2561.89 466.5L2553.07 466.182C2525.61 465.193 2497.47 482.496 2484.25 508.507C2480.22 516.433 2477.9 525.514 2476.97 537C2476.09 547.901 2475.9 548.604 2473.3 550.5C2444.98 571.135 2433.58 609.393 2446.33 640.957C2450.17 650.482 2454.92 657.748 2462.25 665.335C2465.96 669.178 2469.01 672.812 2469.03 673.411C2469.38 688.579 2473.57 704.572 2480.08 715.665C2484.45 723.126 2498.82 737.513 2506.22 741.855C2520.55 750.256 2533.33 753.446 2549.5 752.661C2560.36 752.134 2565.67 750.956 2575.56 746.876L2580.62 744.789L2590.01 750.951C2602.08 758.879 2612.6 763.911 2620.06 765.33C2624.63 766.197 2626 766.863 2626 768.213C2626 770.148 2630.66 835.362 2631.39 843.75L2631.85 849H2627.66C2625.36 849 2615.6 848.335 2605.99 847.522C2596.37 846.71 2569.6 844.454 2546.5 842.511C2477.68 836.72 2406.36 830.173 2284.54 818.462C2244.17 814.581 2052.44 795.254 2007 790.484C1994.07 789.128 1976.97 787.357 1969 786.55C1954.71 785.104 1925.03 782.04 1905.5 779.995C1879.48 777.269 1639.35 752.556 1600 748.552C1520.16 740.431 1381.22 726.598 1318 720.477C1297.92 718.533 1274.75 716.281 1266.5 715.472C1258.25 714.663 1232.38 712.211 1209 710.024C1154.98 704.967 1137.15 703.292 1118.5 701.518C1009.03 691.105 952.431 688.431 860.5 689.33C804.338 689.879 773.626 691.187 726.5 695.04C456.687 717.097 224.998 794.897 42 924.892C34.575 930.166 22.425 939.372 15 945.349L1.5 956.217L1.248 724.944C1.109 597.744 1.182 493.485 1.409 493.257C2.189 492.478 25.494 488.157 40 486.103C58.833 483.436 78.152 481.425 100.5 479.805C124.43 478.07 217.554 478.075 244.5 479.812C327.235 485.147 370.587 492.897 453 517.089C482.381 525.713 487.687 527.514 505 534.737C521.001 541.414 534.094 546.239 534.663 545.671C535.416 544.917 527.232 536.5 517.233 527.743C495.104 508.365 462.09 483.531 445.201 473.557L437 468.715V383.893V299.07L439.25 297.902C442.666 296.127 453.15 288.368 479 268.48C500.943 251.599 515.957 240.498 522.108 236.606C524.673 234.984 524.86 235.052 533.608 240.826C538.498 244.054 548.813 251.601 556.529 257.597C564.246 263.594 579.847 275.42 591.2 283.878L611.84 299.256L612.186 419.878C612.377 486.22 612.3 540.804 612.016 541.176C611.732 541.548 595.3 545.969 575.5 551C475.549 576.399 423.183 592.428 372 613.29C367.325 615.196 356.525 619.572 348 623.014C288.776 646.93 253.007 663.116 203.5 688.403C160.278 710.479 121.022 732.75 113.184 739.641L109.5 742.88L119 739.82C370.297 658.874 547.536 620.677 727 608.791C753.268 607.052 857.007 607.048 882 608.787C913.699 610.991 956.109 615.589 976.5 619.032C986.121 620.657 1042.2 632.232 1100 644.521C1383.17 704.731 1586.52 737.156 1808 757.415C1860.93 762.257 1937.34 767.588 1980.5 769.45L1993.5 770.01L1962 761.619C1944.67 757.004 1917.23 749.769 1901 745.54C1884.77 741.311 1865.88 736.36 1859 734.538C1852.12 732.716 1837.5 728.888 1826.5 726.03C1815.5 723.173 1799.97 719.109 1792 717C1784.03 714.891 1768.5 710.827 1757.5 707.97C1746.5 705.112 1731.88 701.287 1725 699.47C1718.12 697.652 1701.25 693.23 1687.5 689.645C1673.75 686.059 1648.55 679.475 1631.5 675.014C1614.45 670.553 1592.85 664.902 1583.5 662.456C1574.15 660.009 1550.98 653.943 1532 648.975C1513.02 644.007 1488.95 637.707 1478.5 634.976C1468.05 632.245 1447.57 626.888 1433 623.071C1418.43 619.255 1382.42 609.836 1353 602.141C1323.58 594.446 1274.52 581.617 1244 573.634C1213.48 565.65 1183.1 557.706 1176.5 555.981C1169.9 554.256 1151.68 549.482 1136 545.373C1120.32 541.263 1099.62 535.85 1090 533.345C1080.38 530.839 1067.55 527.462 1061.5 525.841C1049.84 522.717 1015.16 518.337 966.5 513.843C944.584 511.82 935.641 511.533 894 511.517C861.773 511.506 842.963 511.911 835.5 512.777C829.45 513.479 817.188 514.337 808.25 514.683L792 515.313V431.028V346.742L797.174 347.429C800.019 347.806 806.882 349.214 812.424 350.556C823.942 353.347 828.668 353.583 833.4 351.606C852.468 343.639 853.826 284.491 836.605 212C830.316 185.525 813.84 129.011 800.308 87.5C793.857 67.708 783.215 40 782.065 40C780.819 40 773.766 58.71 764.049 87.797C735.554 173.092 721.055 229.666 716.53 273.222C714.609 291.702 714.605 301.106 716.508 317.506C719.513 343.414 725.184 353 737.504 353C740.036 353 747.307 351.65 753.662 350C760.017 348.35 767.122 347 769.451 347H773.686L774.352 364.657C774.718 374.368 774.715 412.192 774.344 448.71C773.707 511.611 773.575 515.157 771.843 516.084C770.838 516.622 763.15 517.935 754.758 519.001C746.366 520.068 719.074 523.879 694.11 527.47C669.145 531.062 648.332 534 647.86 534C646.804 534 646.699 329.304 647.754 328.652C648.168 328.396 651.206 329.289 654.504 330.637C661.361 333.439 667.689 334.546 671.454 333.601C675.56 332.57 681.56 326.45 683.981 320.822C688.873 309.451 682.913 299.171 663.5 285.495C651.606 277.117 630.464 261.264 629.292 259.846C628.582 258.987 628.057 251.09 627.84 238C627.516 218.482 627.38 217.26 625 212.501C622.062 206.627 617.887 203.566 610.585 201.932C604.2 200.503 599.534 201.714 594.541 206.099C591.062 209.153 587.635 216.015 586.475 222.25C586.091 224.313 585.346 226 584.819 226C583.445 226 577.028 221.462 556.016 205.633C545.832 197.96 535.7 190.864 533.5 189.863C523.133 185.148 514.363 188.742 490.5 207.487C481.7 214.399 455.02 234.485 431.211 252.121C375.707 293.235 370.096 297.693 367.02 303.122C361.789 312.353 364.897 325.683 373.521 331.013C378.333 333.987 386.928 333.951 395.514 330.92C399.067 329.666 402.121 328.833 402.302 329.07C402.483 329.306 402.437 355.973 402.201 388.33L401.771 447.159L399.135 446.531C397.686 446.185 391.1 443.395 384.5 440.331C358.834 428.417 351.029 425.044 338 420.239C263.868 392.898 206.197 380.697 123.5 374.858C92.486 372.668 12.415 373.843 2.75 376.63C1.088 377.109 1 367.705 1 189.067V1H2048H4095V402.847ZM2890.35 593.411C2891.2 594.714 2892.18 598.192 2892.52 601.14L2893.14 606.5L2889.74 600.368C2887.87 596.996 2884.61 591.876 2882.49 588.992L2878.65 583.748L2883.72 587.395C2886.51 589.401 2889.5 592.108 2890.35 593.411ZM2910.87 679.5C2932.98 723.975 2975.53 756.181 3026.6 767.101C3039.07 769.767 3064.71 770.758 3077.44 769.065C3089.48 767.462 3106.6 762.914 3117.5 758.424C3134.82 751.288 3131.66 751.057 3145.44 760.478C3178.22 782.899 3205.76 796.026 3223.49 797.681C3228.55 798.153 3230 798.648 3230 799.895C3230.01 800.778 3230.9 812.75 3231.98 826.5C3233.07 840.25 3234.26 857.504 3234.64 864.841L3235.31 878.182L3194.41 877.553C3039.07 875.163 2902.77 869.122 2730 856.971C2690.01 854.158 2689 854.038 2689.01 852.112C2689.01 851.225 2689.7 845.325 2690.53 839C2696.75 791.752 2696.4 793.18 2702.84 788.01C2705.07 786.219 2711.68 779.429 2717.53 772.919L2728.17 761.084L2731.84 763.341C2737.86 767.051 2747.18 770.836 2754.56 772.572C2764.28 774.859 2783.79 774.078 2793.5 771.013C2820.16 762.595 2839.81 741.519 2846.01 714.682L2848.19 705.261L2852 704.119C2857.77 702.388 2866.75 695.95 2875.02 687.613C2885.59 676.952 2891.94 665.776 2895.19 652.082C2895.78 649.562 2896.48 646.825 2896.73 646C2896.98 645.175 2898.92 649.675 2901.04 656C2903.17 662.325 2907.59 672.9 2910.87 679.5ZM3383.53 685.25C3390.3 712.79 3400.16 733.953 3414.36 751.377C3420.47 758.889 3420.85 760.492 3417.35 764.214C3412.72 769.13 3397.21 780.802 3388.55 785.884C3373.72 794.579 3364.9 798 3357.29 798C3351.07 798 3347.59 795.845 3344.85 790.277C3342.68 785.863 3342.5 784.323 3342.56 770C3342.61 758.427 3343.19 751.46 3344.86 742.5C3347.79 726.729 3357.76 687.043 3359.41 684.525C3360.42 682.987 3377.08 674.614 3380.14 674.106C3380.48 674.048 3382.01 679.063 3383.53 685.25ZM3245.29 684.41C3261.99 690.64 3271.55 692.188 3296.75 692.746L3319 693.239V698.244C3319 704.627 3314.86 725.129 3311.48 735.459C3307.92 746.357 3301.51 758.344 3297.23 762.1C3294.21 764.75 3293.1 765.143 3289.86 764.708C3279.68 763.343 3263.96 744.929 3247.46 715.037C3242.52 706.096 3230 679.832 3230 678.416C3230 678.159 3231.24 678.581 3232.75 679.354C3234.26 680.127 3239.9 682.402 3245.29 684.41ZM3206.43 686.46C3206.78 688.363 3212.26 700.301 3218.6 712.989C3227.98 731.75 3234 745.314 3234 747.657C3234 748.513 3225.48 747.863 3219.09 746.52C3209.71 744.545 3202.19 741.39 3189.5 734.095C3183.7 730.756 3177.83 727.744 3176.46 727.401C3175.1 727.059 3173.74 726.392 3173.45 725.919C3172.52 724.419 3175.83 719.267 3182.85 711.262C3186.59 706.993 3191.61 700.575 3193.99 697C3199.67 688.485 3203.97 683 3204.97 683C3205.41 683 3206.07 684.557 3206.43 686.46ZM2696.57 711.75C2699.11 723.262 2704.1 734.655 2710.11 742.707C2712.25 745.571 2714 748.357 2714 748.899C2714 750.44 2702.56 758.858 2695.36 762.607C2691.21 764.772 2687.44 766 2684.95 766C2681.57 766 2680.83 765.571 2679.39 762.792C2678.04 760.175 2677.84 757.737 2678.3 749.542C2678.88 739.332 2683.98 715.937 2686.21 713.245C2687.43 711.775 2692.66 709.219 2694.73 709.082C2695.41 709.037 2696.24 710.237 2696.57 711.75ZM2637.36 714.646C2643.56 716.5 2647.57 717 2656.26 717H2667.28L2666.67 722.871C2665.3 735.938 2658.51 751 2653.98 751C2648.42 751 2633.19 729.78 2626.92 713.287C2626.08 711.09 2626.19 710.868 2627.73 711.532C2628.7 711.95 2633.04 713.351 2637.36 714.646ZM2615 714.37C2615 715.123 2617.45 720.635 2620.44 726.62C2623.43 732.604 2626.36 738.8 2626.96 740.39L2628.06 743.28L2623.28 742.646C2620.65 742.297 2614.09 739.853 2608.71 737.215L2598.91 732.418L2601.94 728.459C2603.61 726.281 2606.87 721.913 2609.18 718.75C2613.39 713.003 2615 711.792 2615 714.37Z" fill="#0000FF"/>
</svg>
