<svg width="4127" height="2395" viewBox="0 0 4127 2395" fill="none" xmlns="http://www.w3.org/2000/svg">
<path d="M618 1358H3495V1788C3495 1843.23 3450.23 1888 3395 1888H718C662.772 1888 618 1843.23 618 1788V1358Z" fill="white"/>
<ellipse cx="106.5" cy="592.5" rx="102.5" ry="76.5" fill="white"/>
<ellipse cx="4024.5" cy="605" rx="102.5" ry="87" fill="white"/>
<ellipse cx="290.5" cy="1010" rx="59.5" ry="56" fill="white"/>
<ellipse cx="496.5" cy="1374" rx="57.5" ry="47" fill="white"/>
<ellipse cx="3834" cy="1001.5" rx="53" ry="52.5" fill="white"/>
<ellipse cx="2062.5" cy="2345.5" rx="45.5" ry="49.5" fill="white"/>
<ellipse cx="3630" cy="1377.5" rx="46" ry="46.5" fill="white"/>
<path d="M983 1888H1026V2004H1004C992.402 2004 983 1994.6 983 1983V1888Z" fill="white"/>
<path d="M3101 1883H3144V1979C3144 1990.05 3135.05 1999 3124 1999H3101V1883Z" fill="white"/>
<rect x="206" y="930" width="78" height="32" fill="white"/>
<rect x="3836" y="931" width="100" height="27" rx="2" fill="white"/>
<path fill-rule="evenodd" clip-rule="evenodd" d="M2048.15 50.5323C2038.8 52.4133 2012.7 57.5663 1990.15 61.9833C1967.6 66.4003 1937.67 72.2703 1923.65 75.0273C1886.04 82.4203 1850.42 89.4013 1821.65 95.0173C1807.62 97.7553 1791.87 100.866 1786.65 101.931C1781.42 102.997 1759.6 107.267 1738.15 111.421C1716.7 115.576 1693.75 120.07 1687.15 121.408C1680.55 122.746 1657.6 127.255 1636.15 131.427C1581.08 142.137 1547.68 148.677 1536.65 150.906C1531.42 151.962 1508.47 156.46 1485.65 160.901C1462.82 165.342 1439.87 169.851 1434.65 170.921C1429.42 171.991 1406.47 176.491 1383.65 180.921C1360.82 185.351 1337.87 189.851 1332.65 190.922C1327.42 191.992 1305.6 196.267 1284.15 200.421C1262.7 204.576 1239.75 209.07 1233.15 210.409C1226.55 211.748 1203.6 216.249 1182.15 220.411C1160.7 224.573 1138.87 228.854 1133.65 229.923C1128.42 230.992 1105.47 235.491 1082.65 239.921C1059.82 244.351 1036.87 248.851 1031.65 249.921C1026.42 250.991 1003.47 255.491 980.645 259.921C957.82 264.351 934.87 268.851 929.645 269.922C924.42 270.992 902.595 275.267 881.145 279.421C859.695 283.576 836.745 288.07 830.145 289.409C823.545 290.748 800.595 295.249 779.145 299.411C757.695 303.573 735.87 307.854 730.645 308.923C725.42 309.992 702.47 314.507 679.645 318.956C612.222 332.097 589.618 336.614 589.205 337.03C588.991 337.245 589.651 349.796 590.67 364.921C593.643 409.006 595.57 438.276 597.681 471.421C598.767 488.471 600.302 511.871 601.09 523.421C601.879 534.971 602.82 549.258 603.181 555.171L603.837 565.921L359.991 565.934C126.005 565.947 115.78 566.023 107.114 567.811C74.6172 574.518 59.2052 599.094 68.6212 629.194C69.8692 633.184 76.4032 645.924 84.5202 660.194C92.0992 673.519 105.431 697.021 114.146 712.421C122.861 727.821 136.377 751.671 144.181 765.421C165.418 802.837 190.288 846.743 209.608 880.921C219.09 897.696 229.363 915.808 232.438 921.171L238.028 930.921H432.757H627.486L628.08 937.171C629.577 952.913 632.584 1003.21 632.077 1004.03C631.737 1004.58 565.48 1004.93 466.536 1004.91C305.555 1004.87 301.456 1004.91 297.189 1006.8C294.784 1007.86 292.328 1009.65 291.731 1010.76C290.228 1013.57 290.372 1020.9 292.022 1025.57C292.78 1027.72 303.644 1047.69 316.166 1069.95C342.711 1117.14 376.781 1177.7 399.131 1217.42C407.795 1232.82 423.76 1261.17 434.608 1280.42C445.456 1299.67 459.239 1324.17 465.238 1334.86C477.876 1357.39 482.477 1362.77 493.83 1368.33C509.373 1375.93 485.489 1375.3 769.893 1375.64L1024.64 1375.95L1024.89 1669.09L1025.15 1962.24L1074.15 1980.1C1101.1 1989.92 1134.17 2001.96 1147.65 2006.86C1161.12 2011.76 1207.47 2028.65 1250.65 2044.41C1293.82 2060.17 1339.5 2076.83 1352.15 2081.43C1373.31 2089.12 1405.09 2100.7 1456.15 2119.34C1467.15 2123.35 1499.1 2135 1527.15 2145.22C1555.2 2155.44 1601.1 2172.17 1629.15 2182.4C1657.2 2192.64 1702.87 2209.29 1730.65 2219.41C1758.42 2229.54 1804.1 2246.19 1832.15 2256.42C1860.2 2266.65 1903.62 2282.49 1928.65 2291.61C1953.67 2300.74 1982.02 2311.09 1991.65 2314.62C2024.38 2326.61 2045.21 2330.56 2070.65 2329.59C2097.94 2328.55 2106.97 2326.18 2166.7 2304.37C2191.69 2295.24 2220.02 2284.92 2229.65 2281.43C2239.27 2277.95 2270.1 2266.71 2298.15 2256.45C2326.2 2246.19 2351.4 2236.98 2354.15 2235.99C2387.61 2223.83 2402.37 2218.45 2446.15 2202.46C2474.2 2192.21 2517.62 2176.36 2542.65 2167.24C2567.67 2158.12 2591.52 2149.43 2595.65 2147.92C2599.77 2146.42 2623.62 2137.72 2648.65 2128.6C2673.67 2119.48 2717.1 2103.63 2745.15 2093.38C2773.2 2083.14 2806.5 2071 2819.15 2066.4C2831.8 2061.81 2865.1 2049.66 2893.15 2039.41C2921.2 2029.16 2954.5 2017.01 2967.15 2012.41C2979.8 2007.82 3013.1 1995.67 3041.15 1985.41C3069.2 1975.16 3095.41 1965.6 3099.39 1964.16L3106.64 1961.55L3106.89 1668.49L3107.15 1375.42L3360.15 1374.91C3641.33 1374.33 3615.38 1375.03 3630.91 1367.57C3644.21 1361.17 3655.93 1350.85 3665.98 1336.66C3668.41 1333.23 3684.12 1305.9 3700.88 1275.92C3792.31 1112.41 3834.2 1036.69 3836.77 1030.27C3841.49 1018.49 3840.57 1009.24 3834.34 1005.68C3832.61 1004.69 3796.83 1004.32 3665.7 1003.92L3499.26 1003.42L3499.51 997.421C3499.65 994.121 3500.63 979.271 3501.7 964.421C3502.76 949.571 3503.63 935.959 3503.64 934.171L3503.65 930.921L3697.9 930.917L3892.15 930.914L3928.55 867.167C3948.57 832.107 3986.71 765.318 4013.32 718.747C4065.71 627.041 4065.65 627.163 4065.65 612.421C4065.65 605.384 4062.75 593.012 4059.72 587.058C4055.26 578.318 4044.36 571.029 4031.77 568.359C4026.19 567.176 3986.13 566.953 3776.9 566.938L3528.65 566.921V560.955C3528.65 557.674 3529.54 542.261 3530.62 526.705C3531.71 511.149 3533.97 477.496 3535.65 451.921C3541.26 366.069 3542.64 345.441 3543.04 341.728C3543.4 338.397 3543.18 337.984 3540.79 337.515C3539.34 337.23 3513.85 332.233 3484.15 326.412C3454.45 320.591 3425.87 314.959 3420.65 313.897C3410.93 311.923 3357.18 301.328 3261.15 282.46C3231.45 276.625 3201.75 270.751 3195.15 269.408C3188.55 268.064 3154.35 261.32 3119.15 254.42C3083.95 247.52 3050.87 240.997 3045.65 239.924C3040.42 238.851 3007.35 232.327 2972.15 225.426C2936.95 218.525 2902.75 211.778 2896.15 210.434C2889.55 209.089 2860.97 203.44 2832.65 197.881C2804.32 192.322 2771.25 185.806 2759.15 183.401C2747.05 180.996 2712.85 174.247 2683.15 168.403C2653.45 162.559 2620.37 156.04 2609.65 153.916C2598.92 151.792 2565.85 145.273 2536.15 139.429C2506.45 133.584 2472.25 126.836 2460.15 124.431C2448.05 122.027 2413.85 115.292 2384.15 109.464C2354.45 103.637 2325.87 97.9913 2320.65 96.9183C2315.42 95.8453 2282.35 89.3073 2247.15 82.3893C2176.66 68.5363 2117.79 56.9243 2087.32 50.8643C2076.42 48.6953 2066.97 46.9643 2066.32 47.0163C2065.68 47.0683 2057.5 48.6503 2048.15 50.5323Z" fill="#0000FF"/>
<path d="M3559.33 338.659C3559.01 340.286 3557.44 341.348 3555.81 341.032L2056.12 49.5216L2065.59 0.829334L3565.28 292.339C3566.9 292.655 3567.96 294.23 3567.65 295.857L3559.33 338.659Z" fill="white"/>
<path d="M565.431 294.864C565.115 293.237 566.177 291.663 567.803 291.347L2063.71 0.572381C2065.33 0.256237 2066.91 1.31842 2067.22 2.94484L2075.98 47.9932L577.132 339.34C575.506 339.656 573.931 338.594 573.615 336.967L565.431 294.864Z" fill="white"/>
<path d="M209.205 959.799C207.77 960.627 205.935 960.136 205.106 958.701L12.2229 624.617C5.47241 612.924 9.47846 597.974 21.1707 591.223L42.3413 579L247.448 934.255C248.276 935.69 247.785 937.525 246.35 938.353L209.205 959.799Z" fill="white"/>
<path d="M100 531C100 522.716 106.716 516 115 516L597.203 516C598.778 516 600.085 517.219 600.195 518.791L603.5 566L102.994 565.006C101.34 565.003 100 563.66 100 562.006L100 531Z" fill="white"/>
<path d="M3531 518H4024V567L3528 567L3531 518Z" fill="white"/>
<path d="M3491.96 1375.14L3625.22 1373.53C3626.79 1373.51 3628.11 1374.71 3628.25 1376.27L3632.5 1424.14L3492.04 1424.14L3491.96 1375.14Z" fill="white"/>
<path d="M618.462 1425.22L494.109 1422.58C492.233 1422.54 490.853 1420.8 491.236 1418.97L500.5 1374.5L618.462 1375.5V1425.22Z" fill="white"/>
<path d="M3503 930.501L3856.65 930.994C3858.75 930.997 3860.2 933.104 3859.44 935.066L3832.5 1005.5L3499 1003.5L3503 930.501Z" fill="white"/>
<path d="M245.5 930.5L628 930.5L632.5 1004.5L285.5 1004.5L245.5 930.5Z" fill="white"/>
<path d="M446.205 1389.8C444.77 1390.63 442.935 1390.14 442.106 1388.7L238.5 1036.04C237.672 1034.61 238.163 1032.77 239.598 1031.95L279.341 1009L484.448 1364.26C485.276 1365.69 484.785 1367.52 483.35 1368.35L446.205 1389.8Z" fill="white"/>
<path d="M554.466 518.493C552.81 518.598 551.382 517.338 551.281 515.681L538.161 299.644C538.069 298.134 539.117 296.791 540.604 296.513L583.5 288.5L600.14 512.549C600.264 514.213 599.005 515.659 597.339 515.765L554.466 518.493Z" fill="white"/>
<path d="M3534.17 517.685C3532.45 517.685 3531.08 516.24 3531.17 514.522L3543.31 291.914C3543.41 290.105 3545.08 288.795 3546.86 289.128L3589 297L3579.13 514.821C3579.06 516.423 3577.74 517.685 3576.13 517.685H3534.17Z" fill="white"/>
<path d="M3892.37 936.724C3890.86 935.939 3890.3 934.055 3891.15 932.576L4067 624L4111.5 651.91L3935.89 956.08C3935.09 957.47 3933.33 957.982 3931.91 957.243L3892.37 936.724Z" fill="white"/>
<path d="M3630 1368.5L3839.81 1025.44C3840.51 1024.3 3841.9 1023.76 3843.19 1024.12L3875.95 1033.45L3674.49 1390.85C3673.67 1392.31 3671.82 1392.81 3670.37 1391.97L3630 1368.5Z" fill="white"/>
<path d="M2049.13 2345.71L3116.96 1950.31L3134.4 1997.17L2078 2391L2049.13 2345.71Z" fill="white"/>
<path d="M1023.25 1958L2074.5 2343.5L2047.5 2389.5L996.5 2002L1023.25 1958Z" fill="white"/>
</svg>
