<svg width="4096" height="2386" viewBox="0 0 4096 2386" fill="none" xmlns="http://www.w3.org/2000/svg">
<ellipse cx="2048.48" cy="1952.99" rx="656" ry="413.5" fill="white"/>
<rect x="28.4829" y="28.4946" width="4026" height="843" fill="white"/>
<path d="M731.483 834.495H3329.48L3199.98 909.495L2964.48 1142.49L2673.98 1283.49L2453.98 1362.99L2066.48 1424.49L1687.48 1373.99L1277.98 1230.49L1062.48 1091.99L886.483 906.995L731.483 834.495Z" fill="white"/>
<path fill-rule="evenodd" clip-rule="evenodd" d="M0 457.346V914.607L436.75 914.619L873.5 914.631L876.909 920.869C912.375 985.776 974.445 1059.58 1042.5 1117.77C1170.23 1226.98 1337.02 1312.41 1531.5 1368.22C1858.34 1462.02 2237.66 1462.02 2564.5 1368.22C2848.3 1286.77 3074.59 1140.59 3193.96 961.607C3204.01 946.542 3213.24 931.583 3219.09 920.869L3222.5 914.631L3659.25 914.619L4096 914.607V457.304V0L2048 0.042L0 0.085V457.346ZM3907 51.729C3907 59.995 3909.85 76.856 3913.11 87.805C3920 110.998 3931.81 130.489 3949.97 148.632C3975.81 174.45 4003.05 186.864 4043.25 191.139L4049 191.751V457.042V722.333L4038.25 723.521C4003.84 727.324 3976.06 740.157 3951.78 763.462C3939.62 775.14 3930.81 786.759 3923.63 800.607C3914.08 819.021 3908.62 838.281 3907.32 858.162L3906.7 867.604L3551.21 867.856L3195.72 868.107L3180.55 894.107C3146.41 952.67 3118.43 989.182 3070.66 1037.51C2986.49 1122.66 2875.21 1196.26 2742.44 1254.61C2578.36 1326.72 2388.63 1372.04 2190 1386.59C2097.27 1393.38 1998.73 1393.38 1906 1386.59C1707.37 1372.04 1517.64 1326.72 1353.56 1254.61C1220.79 1196.26 1109.51 1122.66 1025.34 1037.51C977.575 989.182 949.594 952.67 915.446 894.107L900.285 868.107L546.247 867.856L192.208 867.604L191.507 859.356C188.795 827.417 179.11 802.072 160.462 778.107C135.348 745.834 98.628 726.611 55.25 723.03L47 722.349V457.119V191.89L58.978 190.691C94.65 187.118 124.382 173.23 148.984 148.648C173.664 123.987 187.498 94.393 191.084 58.585L192.283 46.607H2049.64H3907V51.729ZM217.058 83.107C213.688 101.487 203.525 125.199 190.856 144.237C181.67 158.042 159.753 180.286 146.5 189.257C126.119 203.052 102.817 213.137 83.248 216.633L75.996 217.928L76.248 456.94L76.5 695.952L84.597 697.694C111.616 703.506 141.02 718.529 162.361 737.425C189.163 761.157 209.216 795.138 216.772 829.626L218.63 838.107L567.966 838.607L917.303 839.107L936.401 871.715C946.906 889.65 958.855 909.45 962.955 915.715C1009.74 987.209 1081.58 1058.42 1166.43 1117.42C1308.17 1215.98 1490.99 1289.35 1692.82 1328.67C1894.22 1367.91 2106.65 1373.01 2314.77 1343.61C2577.13 1306.55 2818.45 1210.46 2982.5 1077.73C3025.22 1043.16 3068.35 1000.6 3097.65 964.107C3120.75 935.327 3133.33 916.566 3159.6 871.715L3178.7 839.107L3529.27 838.856L3879.84 838.604L3881.46 831.356C3889.87 793.791 3908.91 761.385 3937 736.819C3957.63 718.771 3983.2 705.357 4009.25 698.918L4020 696.261V457.005V217.749L4014.33 216.572C3996.01 212.769 3969.15 201.122 3953.61 190.248C3916.54 164.299 3890.94 126.379 3881.61 83.592L3879.97 76.078L2049.16 76.092L218.342 76.107L217.058 83.107ZM2006.22 1527.7C1961.3 1529.34 1909.86 1534.99 1865.1 1543.18C1664.58 1579.91 1501.07 1675.65 1425.48 1800.61C1372.93 1887.49 1366.04 1984.32 1406.01 2074.72C1424 2115.42 1453.54 2156.55 1490.76 2192.72C1584.08 2283.41 1728.21 2348.53 1891 2373.55C2135.55 2411.14 2389.72 2358.62 2553.52 2236.66C2616.4 2189.84 2664.15 2133.18 2689.99 2074.72C2729.56 1985.21 2723.22 1889.23 2672.05 1803.24C2621.22 1717.83 2529.23 1644.87 2410 1595.4C2289.77 1545.52 2151.72 1522.37 2006.22 1527.7ZM2081.5 1571.62C2258.26 1577.81 2416.81 1627.3 2529.5 1711.48C2635.76 1790.84 2685.71 1893.82 2668.08 1997.15C2646.66 2122.67 2525.06 2234.76 2345 2294.95C2145.76 2361.56 1902.91 2356.24 1713 2281.12C1629.94 2248.26 1562.87 2205.53 1512.19 2153.19C1420.11 2058.09 1399.32 1942.04 1455.38 1836.11C1485.14 1779.89 1537.11 1727.37 1604.5 1685.41C1713.44 1617.57 1858.66 1576.89 2010.5 1571.68C2043.24 1570.55 2050.86 1570.55 2081.5 1571.62ZM2010 1603.19C1974.39 1605.05 1951.21 1607.03 1922.5 1610.66C1833.87 1621.86 1748.51 1646.27 1676.41 1681.06C1533.26 1750.12 1452.03 1854.59 1456.32 1964.11C1458.24 2013.13 1476.63 2060.77 1510.61 2104.73C1567.4 2178.22 1668.35 2239.48 1790.5 2274.6C1850.44 2291.83 1904.06 2301.3 1975.5 2307.28C2005.54 2309.79 2090.46 2309.79 2120.5 2307.28C2191.94 2301.3 2245.56 2291.83 2305.5 2274.6C2427.65 2239.48 2528.6 2178.22 2585.39 2104.73C2667.47 1998.54 2656.17 1874.08 2555.38 1774.17C2476.95 1696.41 2352.47 1639.76 2207 1615.62C2154.64 1606.93 2114.96 1603.63 2057.5 1603.17C2034.95 1602.99 2013.57 1603 2010 1603.19Z" fill="#0000FF"/>
</svg>
