<svg width="4095" height="2332" viewBox="0 0 4095 2332" fill="none" xmlns="http://www.w3.org/2000/svg">
<path d="M1050 350H1301L1401 249.5L1687.5 85L2078.5 15.5L2436.5 85L2727.5 249.5L2800.5 350H3031L3115.5 462L3253 574L3470 670L3809 708.5V841H3932L4013 898L4083 1010.5L4065 1127L4013 1203.5L3895.5 1242H3809V1382L3542 1406L3284.5 1492.5L3148 1605L3031 1733L2815 1746.5L2736 1827.5L2706.5 2010.5L2524 2186.5L2272 2289.5L1924 2308L1596.5 2203.5L1414.5 2034.5L1346 1797L1288 1733H1050L918 1551.5L688.5 1451L369 1372H293.5V1251H159L33 1132.5L18 997L69 912L159 855L286 849.5V708L508 691L662.5 644L811 589.5L979.5 462L1050 350Z" fill="white"/>
<path fill-rule="evenodd" clip-rule="evenodd" d="M1996.94 0.52936C1907.64 4.93936 1826.28 18.0174 1745.73 40.9104C1601.41 81.9224 1474.5 149.572 1368.44 242.024C1351.64 256.665 1306.63 301.806 1291.99 318.695L1281.04 331.323L1260.49 331.965C1191.46 334.121 1129.39 337.507 1054.89 343.181L1046.83 343.794L1042.67 351.911C988.415 457.676 877.151 548.498 726.44 610.039C655.579 638.973 579.285 660.191 494.94 674.418C431.353 685.144 376.358 690.003 294.19 692.156L271.44 692.752V759.026V825.301L233.69 825.838C193.867 826.404 186.249 827.142 165.824 832.41C96.416 850.311 39.942 900.608 14.106 967.532C4.234 993.103 0 1016.82 0 1046.53C0 1069.36 1.42 1081.26 6.593 1101.82C25.82 1178.21 87.135 1239.96 163.68 1260C187.674 1266.28 192.255 1266.76 233.69 1267.27L271.44 1267.73V1334.63V1401.53L298.19 1401.54C386.927 1401.56 490.702 1414.23 579.44 1435.88C801.75 1490.12 971.176 1601.77 1042.68 1741.17L1046.85 1749.31L1054.4 1749.94C1104.86 1754.14 1201.49 1759.43 1258.44 1761.11L1280.94 1761.78L1292.44 1774.85C1298.76 1782.04 1311.76 1795.93 1321.32 1805.72L1338.71 1823.53L1337.32 1834.78C1335.28 1851.41 1335.53 1894.54 1337.76 1910.53C1352.65 2017.06 1421.98 2115.28 1535.94 2191.25C1755.91 2337.9 2097.58 2373.63 2377.04 2279.2C2592.63 2206.35 2735.09 2068.16 2757.12 1910.53C2759.34 1894.63 2759.6 1851.4 2757.58 1834.97L2756.22 1823.91L2769.92 1809.97C2777.45 1802.3 2789.72 1789.19 2797.19 1780.83L2810.77 1765.63L2815.85 1765.12C2818.65 1764.84 2834.39 1764.37 2850.82 1764.07C2884.45 1763.45 2929.94 1761.43 2975.94 1758.52C2992.99 1757.44 3014.81 1756.06 3024.44 1755.45C3034.06 1754.85 3042.9 1754.06 3044.08 1753.69C3045.55 1753.24 3048.21 1749.23 3052.48 1741.03C3114.99 1621.05 3244.85 1523.44 3422.94 1462.57C3535.04 1424.26 3674.06 1401.56 3796.69 1401.53L3823.44 1401.53V1334.63V1267.73L3861.19 1267.27C3902.62 1266.76 3907.21 1266.28 3931.2 1260C4016.27 1237.72 4079.29 1167.01 4093.12 1078.32C4095.55 1062.73 4095.55 1030.33 4093.12 1014.74C4079.19 925.402 4015.6 854.73 3929.06 832.41C3908.63 827.142 3901.01 826.404 3861.19 825.838L3823.44 825.301V758.915V692.529L3818.69 692.509C3800.56 692.433 3743.15 690.307 3724.94 689.037C3614.4 681.331 3517.65 662.574 3423.03 630.503C3260.12 575.291 3134.9 486.885 3068.16 379.979C3063.31 372.198 3047.01 342.71 3046.15 340.156C3045.38 337.843 2907.99 330.176 2843.88 328.868L2811.48 328.207L2800.71 316.175C2776.88 289.55 2749.3 262.006 2726.42 241.979C2621.52 150.155 2493.71 82.1774 2348.55 41.0094C2273.87 19.8294 2199.43 7.26536 2114.44 1.49636C2093.82 0.0973599 2018.29 -0.52464 1996.94 0.52936ZM2110.44 39.5204C2135.81 41.2034 2169.7 44.4474 2189.44 47.0814C2371.22 71.3384 2538.77 140.288 2670.44 245.028C2708.98 275.687 2739.57 304.958 2777.66 347.644C2791.65 363.328 2793.79 365.325 2797.16 365.882C2799.24 366.226 2808.59 366.515 2817.94 366.525C2851.76 366.561 2923.96 369.567 2986.94 373.561C3003.99 374.642 3018.68 375.527 3019.59 375.528C3020.64 375.529 3023.7 379.779 3028.05 387.279C3087.96 490.708 3196.17 578.45 3338.94 639.365C3464.09 692.762 3612 724.001 3764.94 729.332L3784.94 730.029L3785.2 796.779L3785.45 863.529L3832.2 863.532C3880.67 863.536 3895.16 864.278 3911.69 867.604C3981.53 881.66 4037.93 937.692 4053.03 1008.02C4063.41 1056.33 4053.83 1106.92 4026.62 1147.62C4001.34 1185.43 3963.69 1212.26 3920.18 1223.47C3900.3 1228.59 3897.38 1228.8 3839.69 1229.25L3785.44 1229.68V1296.6V1363.53L3775.19 1363.53C3743.65 1363.55 3673.63 1369.27 3627.44 1375.61C3577.99 1382.4 3516.76 1395.04 3469.94 1408.13C3260.93 1466.58 3102.36 1574.29 3025.75 1709.84L3021.56 1717.26L3012.75 1717.92C2957.1 1722.05 2859.81 1726.51 2824.94 1726.53C2816.69 1726.54 2806.23 1726.83 2801.7 1727.18L2793.46 1727.82L2774.05 1749.43C2763.37 1761.31 2752.6 1773 2750.11 1775.41L2745.59 1779.8L2744.53 1775.91C2743.95 1773.78 2742.18 1768.67 2740.6 1764.57L2737.73 1757.12L2748.33 1745.53C2754.17 1739.16 2764.54 1727.61 2771.38 1719.86L2783.82 1705.78L2814.38 1705.12C2873.79 1703.84 2930.36 1701.46 2983.73 1698C2996.26 1697.19 3006.92 1696.53 3007.41 1696.53C3007.9 1696.53 3010.67 1692.59 3013.55 1687.78C3095.54 1551.1 3260.13 1442.39 3471.94 1385.02C3557.35 1361.88 3658.61 1346.34 3746.38 1342.89L3763.44 1342.22V1274.87V1207.53L3824.19 1207.51C3870.51 1207.5 3887.44 1207.16 3895.46 1206.09C3932.9 1201.1 3965.2 1184.53 3991.45 1156.83C4012.24 1134.9 4025.84 1108.64 4032.6 1077.39C4034.51 1068.56 4034.84 1064.01 4034.84 1046.53C4034.84 1023.96 4033.53 1015.18 4027.39 996.382C4009.59 941.91 3964.29 901.35 3907.33 888.89L3894.94 886.18L3829.2 885.79L3763.45 885.4L3763.2 818.215L3762.94 751.029L3757.44 750.799C3553.28 742.262 3366.93 691.273 3221.94 604.275C3132.33 550.507 3060.82 482.924 3016.28 409.916L3008.28 396.804L2999.61 396.164C2948.77 392.41 2835.64 387.696 2792.44 387.53L2783.94 387.498L2766.94 368.338C2740.98 339.078 2721.26 318.46 2704.32 302.868C2668.99 270.337 2638.37 246.169 2600.44 220.86C2387.49 78.7744 2105.23 26.5834 1838.94 80.0564C1794.29 89.0214 1761.03 97.9324 1715.94 113.011C1606.21 149.702 1507.63 203.876 1423.94 273.479C1388.75 302.742 1359.81 331.886 1316.44 381.743L1308.94 390.363L1300.94 390.917C1296.54 391.222 1281.01 391.724 1266.44 392.033C1215.68 393.108 1095.13 399.137 1085.81 401.066C1084.45 401.347 1082.12 404.135 1079.37 408.768C1059.06 442.962 1024.66 484.63 991.016 515.788C938.981 563.981 882.321 602.278 810.94 637.502C701.574 691.472 577.99 726.561 439.44 742.981C410.234 746.443 356.261 750.529 339.747 750.529H331.44V817.965V885.4L265.69 885.79L199.94 886.18L187.551 888.89C130.592 901.35 85.289 941.91 67.488 996.382C61.347 1015.18 60.043 1023.96 60.043 1046.53C60.043 1064.01 60.373 1068.56 62.282 1077.39C77.289 1146.79 130.724 1196.94 199.418 1206.09C207.442 1207.16 224.365 1207.5 270.69 1207.51L331.44 1207.53V1275.03V1342.53H339.207C348.25 1342.53 371.2 1343.93 397.44 1346.09C545.268 1358.25 686.87 1395.24 805.38 1452.66C900.746 1498.86 979.815 1557.84 1036.5 1625.06C1052.12 1643.57 1069.33 1667.35 1079.38 1684.29C1082.12 1688.92 1084.45 1691.71 1085.81 1692C1094.12 1693.73 1197.97 1699.18 1248.44 1700.53C1270.71 1701.12 1293.44 1701.86 1298.94 1702.17L1308.94 1702.73L1323.44 1719.31C1331.41 1728.43 1342.27 1740.66 1347.55 1746.49L1357.17 1757.09L1354.29 1764.56C1352.7 1768.67 1350.91 1773.83 1350.31 1776.03L1349.21 1780.03L1340.19 1770.53C1335.23 1765.3 1323.74 1752.59 1314.67 1742.28L1298.17 1723.53L1288.55 1723.52C1272.93 1723.52 1217.2 1721.62 1185.44 1720.02C1150.78 1718.28 1078.32 1713.71 1073.8 1712.98C1071.07 1712.55 1069.98 1711.3 1065.43 1703.42C1000.57 1591.03 871.632 1494.55 705.44 1434.05C619.953 1402.93 526.904 1381.68 429.94 1371.13C390.576 1366.84 342.733 1363.55 319.69 1363.53L309.44 1363.53V1296.6V1229.68L255.19 1229.25C197.495 1228.8 194.578 1228.59 174.702 1223.47C107.945 1206.27 56.33 1152.49 41.848 1085.04C26.87 1015.29 53.66 943.435 110.664 900.481C137.982 879.896 169.65 867.775 204.44 864.589C210.765 864.01 236.974 863.534 262.683 863.532L309.426 863.529L309.683 796.779L309.94 730.029L317.94 729.805C550.497 723.284 764.879 658.795 914.94 550.219C960.028 517.597 1001.11 478.568 1031.97 439.029C1041.51 426.818 1061.16 397.7 1066.87 387.332C1071.21 379.443 1067.98 380.309 1101.44 378.041C1168.24 373.513 1255.95 369.568 1290.57 369.536L1298.19 369.529L1315.55 349.779C1335.62 326.926 1366.37 295.351 1384.61 278.847C1482.64 190.164 1605.67 122.37 1742.72 81.5074C1824.9 57.0064 1909.48 42.9124 2000.44 38.5634C2022.58 37.5054 2088.73 38.0804 2110.44 39.5204ZM2060.94 136.784C2083.17 148.197 2082.59 179.575 2059.94 190.49C2052.89 193.888 2041.99 193.888 2034.94 190.49C2023.58 185.016 2016.85 173.712 2017.69 161.529C2018.58 148.63 2026.6 138.629 2039.44 134.405C2044.33 132.795 2055.6 134.041 2060.94 136.784ZM229.92 1019.98C252.117 1030.84 251.681 1061.82 229.162 1073.76C222.644 1077.21 210.87 1076.98 203.258 1073.24C187.232 1065.37 181.754 1045.46 191.42 1030.22C199.409 1017.62 216.057 1013.19 229.92 1019.98ZM3888.12 1019.72C3898.95 1024.81 3904.9 1034.31 3904.9 1046.53C3904.9 1062.81 3893.83 1075.01 3877.89 1076.29C3861.12 1077.63 3847.02 1065.69 3845.69 1049.05C3845.1 1041.57 3846.53 1036.11 3850.7 1029.9C3858.85 1017.8 3874.8 1013.46 3888.12 1019.72ZM2094.94 1453.53C2189.95 1458.05 2275.64 1473.27 2357.94 1500.24C2552.95 1564.15 2684.76 1682.84 2711.91 1818.98C2715.74 1838.16 2716.82 1849.65 2716.8 1871.03C2716.78 1893.44 2715.67 1904.41 2711.26 1925.53C2695.11 2003.07 2643.78 2076.56 2563.44 2137.21C2471.38 2206.69 2346.79 2255.53 2206.94 2276.95C2152.31 2285.31 2108.02 2288.53 2047.44 2288.53C1986.85 2288.53 1942.56 2285.31 1887.94 2276.95C1679.76 2245.06 1508.78 2152.85 1427.11 2028.42C1401.47 1989.36 1384.83 1944.98 1379.34 1901.03C1377.73 1888.08 1377.71 1853.84 1379.31 1841.03C1391.53 1743.31 1454.35 1653.86 1559.62 1584.3C1675.44 1507.76 1829.58 1461.7 1996.94 1453.6C2020.99 1452.44 2071.24 1452.4 2094.94 1453.53ZM2013.94 1477.13C1920.37 1481.21 1846.94 1492.61 1769.99 1514.98C1580.93 1569.96 1447.04 1677.68 1411.51 1803.4C1404.25 1829.09 1402.96 1839.24 1402.96 1870.53C1402.96 1894.89 1403.22 1899.49 1405.27 1910.86C1410.17 1938.07 1417.12 1958.97 1429.93 1985.03C1457.94 2042 1506.34 2093.62 1573.44 2138.06C1670.36 2202.26 1802.69 2245.8 1942.44 2259.47C1982.81 2263.42 1996.22 2263.99 2047.44 2263.99C2098.65 2263.99 2112.07 2263.42 2152.44 2259.47C2393.1 2235.93 2594.66 2127.99 2664.95 1985.03C2677.76 1958.97 2684.71 1938.07 2689.61 1910.86C2691.66 1899.49 2691.92 1894.89 2691.92 1870.53C2691.92 1839.24 2690.63 1829.09 2683.37 1803.4C2653.04 1696.1 2551.18 1601.4 2401.44 1541.3C2314.4 1506.37 2215.94 1485.13 2110.44 1478.52C2093.4 1477.45 2028.08 1476.51 2013.94 1477.13Z" fill="#0000FF"/>
</svg>
