<svg width="4097" height="2715" viewBox="0 0 4097 2715" fill="none" xmlns="http://www.w3.org/2000/svg">
<ellipse cx="2048.5" cy="2173" rx="724.5" ry="495" fill="white"/>
<ellipse cx="2055.5" cy="695.5" rx="1014.5" ry="644.5" fill="white"/>
<rect x="58" y="909.082" width="1173" height="161.917" transform="rotate(-20.5672 58 909.082)" fill="white"/>
<rect x="2906.59" y="519" width="1173" height="161.917" transform="rotate(18.2059 2906.59 519)" fill="white"/>
<path d="M2669.5 1443L3652.87 1624.49L3602.28 1778.3L2630 1488.5L2669.5 1443Z" fill="white"/>
<path d="M475 1720L1324 1439L1372 1517L502.247 1793.01L475 1720Z" fill="white"/>
<rect x="506.981" y="1781.76" width="911.967" height="118.533" transform="rotate(-117.273 506.981 1781.76)" fill="white"/>
<rect x="3502" y="1730.18" width="911.967" height="118.533" transform="rotate(-63.0841 3502 1730.18)" fill="white"/>
<rect x="1089" y="1369" width="1918" height="149" fill="white"/>
<path fill-rule="evenodd" clip-rule="evenodd" d="M2007.14 0.237852C1841.23 6.12185 1683.88 42.1759 1534.11 108.623C1508.4 120.029 1459.49 144.384 1435.64 157.658C1270.87 249.358 1129.29 374.457 1018.16 526.536C1010.88 536.494 1004.82 544.641 1004.68 544.641C1003.62 544.641 953.559 555.945 927.637 562.039C605.614 637.742 308.241 742.61 18.818 882.532L0 891.63L55.442 1001.88C85.935 1062.53 146.774 1183.69 190.639 1271.14C234.505 1358.59 288.721 1466.59 311.12 1511.14C333.519 1555.69 381.037 1650.3 416.717 1721.39C452.396 1792.48 481.935 1850.64 482.361 1850.64C482.786 1850.64 492.922 1846.09 504.885 1840.52C683.293 1757.53 888.209 1686.22 1093.64 1635.65C1139.2 1624.43 1146.63 1622.68 1184.64 1614.27C1318.45 1584.66 1466.9 1560.36 1600.64 1546.17C1608.89 1545.3 1619.46 1544.16 1624.14 1543.63C1628.81 1543.11 1640.06 1541.99 1649.14 1541.15C1658.21 1540.3 1670.14 1539.17 1675.64 1538.63C1681.14 1538.09 1694.19 1536.98 1704.64 1536.16C1715.09 1535.34 1726.34 1534.43 1729.64 1534.13C1732.94 1533.84 1741.94 1533.18 1749.64 1532.66C1757.34 1532.13 1770.39 1531.25 1778.64 1530.68C1938.51 1519.78 2134.46 1519.4 2302.14 1529.66C2396.85 1535.45 2513.14 1546.77 2595.14 1558.17C2707.96 1573.86 2798.74 1589.71 2893.64 1610.28C3146.49 1665.11 3375.41 1740.65 3592.41 1840.87C3604.39 1846.4 3614.34 1850.75 3614.52 1850.53C3614.71 1850.32 3643.33 1793.44 3678.12 1724.14C3712.92 1654.84 3767.37 1546.39 3799.14 1483.14C3830.9 1419.89 3892.1 1297.94 3935.14 1212.14C3978.18 1126.34 4032.04 1019.11 4054.83 973.848L4096.26 891.555L4073.95 880.733C3778.59 737.46 3464.08 628.54 3123.43 551.554L3091.21 544.274L3087.99 539.708C3045.19 479.039 2983.02 407.012 2929.48 356.072C2830.89 262.257 2730.49 191.393 2613.14 132.777C2460.14 56.3569 2300.74 13.5009 2127.14 2.10985C2105.16 0.667852 2028.66 -0.525148 2007.14 0.237852ZM2092.14 62.6379C2235.85 68.4069 2369.29 96.9689 2500.61 150.072C2659.52 214.33 2806.43 314.574 2924.97 439.641C2967.66 484.679 3000.72 524.879 3039.14 578.468L3054.64 600.09L3076.64 604.844C3127.71 615.884 3217.31 637.251 3262.14 649.082C3293.53 657.367 3304.19 660.254 3333.14 668.292C3548.7 728.162 3757.35 803.738 3954.64 893.408C3998.18 913.2 4012.24 919.873 4011.91 920.588C4010.41 923.824 3888.72 1166.34 3872.64 1198.14C3860.96 1221.24 3806.06 1330.59 3750.64 1441.14C3669.25 1603.49 3586.36 1768.46 3585.75 1769.29C3585.69 1769.38 3580.69 1767.21 3574.64 1764.48C3490.49 1726.52 3384.01 1685.45 3280.64 1651.08C3039.5 1570.9 2780.08 1515.05 2510.14 1485.21C2466.98 1480.43 2434.01 1477.27 2389.64 1473.65C2338.36 1469.47 2291.88 1466.55 2238.64 1464.17C2166.76 1460.96 2132.69 1460.26 2047.64 1460.28C1962.75 1460.29 1929.86 1460.97 1858.14 1464.18C1807.82 1466.44 1745.94 1470.29 1706.64 1473.62C1541.72 1487.57 1397.63 1507.58 1248.64 1537.23C995.92 1587.52 755.087 1662.12 538.637 1757.17C526.537 1762.48 515.208 1767.45 513.461 1768.22L510.285 1769.61L451.078 1651.37C418.515 1586.35 381.193 1511.99 368.14 1486.14C355.088 1460.29 300.19 1350.94 246.144 1243.14C192.098 1135.34 133.496 1018.64 115.917 983.815C98.338 948.986 84.109 920.349 84.296 920.177C84.484 920.006 91.837 916.498 100.637 912.383C219.645 856.732 339.054 807.758 468.637 761.455C494.908 752.068 583.895 722.062 607.137 714.754C744.474 671.569 862.636 639.892 1002.93 608.648C1024.53 603.836 1042.34 599.728 1042.5 599.52C1042.66 599.311 1048.36 591.266 1055.15 581.641C1155.43 439.616 1279.54 323.634 1426.14 234.971C1594.34 133.24 1788.98 73.4709 1984.14 63.6239C2025.28 61.5479 2057.63 61.2529 2092.14 62.6379ZM1998.14 112.764C1803.18 121.947 1620.78 176.774 1454.64 276.13C1344.23 342.152 1245.79 426.055 1159.54 527.641C1138.22 552.75 1114.75 583.558 1088.7 620.641C1080 633.016 1072.31 643.614 1071.59 644.191C1070.88 644.769 1067.23 645.836 1063.47 646.564C1050.38 649.097 970.255 667.005 941.9 673.734C705.864 729.751 469.532 806.956 255.637 897.923C209.732 917.445 154.361 942.017 152.836 943.542C152.29 944.088 176.11 992.572 212.406 1064.8C245.669 1130.99 302.248 1243.64 338.136 1315.14C473.417 1584.66 533.439 1704.15 533.701 1704.47C533.849 1704.66 538.676 1702.76 544.427 1700.25C550.178 1697.75 566.833 1690.77 581.437 1684.74C963.154 1527.18 1402.34 1434.14 1858.64 1414.18C1982.76 1408.74 2116.68 1408.75 2238.14 1414.2C2341.45 1418.84 2452.35 1427.68 2539.64 1438.23C2644.54 1450.91 2738.32 1465.13 2816.14 1480.15C2942.48 1504.54 3027.42 1524.31 3136.18 1554.64C3273.49 1592.94 3407.95 1639.67 3538.6 1694.49C3551.78 1700.02 3562.62 1704.46 3562.7 1704.35C3562.83 1704.14 3643.51 1543.41 3781.89 1267.64C3820.11 1191.47 3872.26 1087.67 3897.76 1036.97C3923.27 986.284 3944.14 944.517 3944.14 944.16C3944.14 943.12 3910.51 927.869 3863.14 907.427C3611.54 798.853 3349.22 715.484 3061.32 652.6C3041.22 648.21 3024.7 644.51 3024.61 644.379C3024.51 644.248 3017.31 634.016 3008.6 621.641C2958.84 550.952 2922.59 507.64 2866.14 451.44C2818.94 404.454 2782.01 372.668 2731.79 335.815C2557.69 208.039 2351.35 131.554 2136.64 115.203C2090.74 111.709 2039.64 110.808 1998.14 112.764ZM2018.14 1634.24C2013.46 1634.43 1999.96 1635.07 1988.14 1635.66C1773.07 1646.41 1572.98 1719.04 1435.64 1836.2C1417.16 1851.96 1385.13 1883.89 1370.99 1900.64C1311.01 1971.69 1277.6 2043.46 1265.97 2126.25C1264.06 2139.82 1263.73 2146.66 1263.69 2173.14C1263.64 2203.71 1264.21 2212.37 1267.76 2234.14C1277.12 2291.67 1298.73 2345.57 1333.83 2398.91C1366.64 2448.77 1414.91 2498.55 1471.56 2540.92C1585.05 2625.81 1737.69 2684.08 1901.64 2705.11C1956.79 2712.18 1986.98 2714.02 2048.14 2714.02C2109.29 2714.02 2139.49 2712.18 2194.64 2705.11C2358.58 2684.08 2511.23 2625.81 2624.71 2540.92C2680.33 2499.32 2727.05 2451.5 2760.1 2402.33C2796.45 2348.27 2818.94 2292.96 2828.52 2234.14C2832.06 2212.34 2832.64 2203.73 2832.58 2173.14C2832.52 2146.78 2832.18 2139.76 2830.29 2126.25C2818.75 2043.65 2785.23 1971.66 2725.28 1900.64C2711.14 1883.89 2679.11 1851.96 2660.64 1836.2C2523.69 1719.38 2327 1647.73 2110.14 1635.66C2090.36 1634.56 2032.21 1633.66 2018.14 1634.24ZM2113.14 1698.13C2182.58 1702.49 2239.89 1711.14 2302.64 1726.74C2513.9 1779.27 2677.69 1895.47 2741.08 2037.79C2755.63 2070.46 2763.85 2099.25 2768.83 2134.97C2771.25 2152.3 2771.21 2196.15 2768.75 2214.14C2763.43 2253.17 2753.35 2286.04 2735.64 2322.14C2714.96 2364.26 2689.13 2399.65 2651.65 2437.18C2622.78 2466.1 2595.33 2488.45 2559.64 2512.12C2514.85 2541.81 2461.1 2568.97 2405.64 2589.94C2210.45 2663.74 1971.5 2672.73 1764.28 2614.09C1708.04 2598.17 1659.89 2579.55 1610.64 2554.67C1542.37 2520.19 1491.69 2484.32 1444.62 2437.18C1407.14 2399.65 1381.31 2364.26 1360.64 2322.14C1346.53 2293.4 1337.89 2268.55 1331.78 2239.14C1326.91 2215.7 1325.75 2203.13 1325.74 2174.14C1325.74 2145.23 1326.8 2133.81 1331.7 2109.83C1363.42 1954.68 1509.51 1818.77 1720.49 1748.17C1752.08 1737.6 1763.66 1734.2 1793.64 1726.73C1855.75 1711.25 1918.29 1701.89 1987.64 1697.71C2011.28 1696.29 2087.9 1696.54 2113.14 1698.13ZM2008.14 1734.22C1864.85 1740.59 1739.62 1770.84 1629.14 1825.77C1564.33 1858 1514.74 1892.82 1470.62 1937.07C1408.07 1999.8 1372.5 2069.1 1364.05 2144.64C1361.42 2168.18 1363.05 2205.4 1367.73 2228.62C1386.03 2319.43 1444.11 2401.33 1537.77 2468.4C1643.66 2544.23 1785.6 2593.91 1941.14 2609.59C2009.11 2616.45 2087.16 2616.45 2155.14 2609.59C2376.81 2587.25 2568.69 2495.45 2666.12 2365.14C2698.2 2322.25 2718.72 2277.36 2728.54 2228.62C2733.22 2205.4 2734.85 2168.18 2732.22 2144.64C2726.16 2090.46 2706.07 2039.42 2671.77 1991.13C2647.65 1957.18 2613.69 1922.36 2576.89 1893.87C2542.56 1867.29 2510 1847.09 2467.14 1825.77C2365.55 1775.26 2252.68 1745.92 2122.14 1736.1C2103.07 1734.67 2026.52 1733.41 2008.14 1734.22Z" fill="#0000FF"/>
</svg>
