<svg width="4094" height="1869" viewBox="0 0 4094 1869" fill="none" xmlns="http://www.w3.org/2000/svg">
<path d="M781.5 96L2053 0L3319.5 96V328.5L4078.5 498.5V1226L2979 1246.5L2837.5 1529.5L2518 1764L2001 1831L1582.5 1750L1321 1591.5L1135 1245.5L16 1233.5V495.5L781.5 325V96Z" fill="white"/>
<path fill-rule="evenodd" clip-rule="evenodd" d="M1900 0.224254C1839.45 1.13425 1685.35 6.07225 1638.5 8.60325C1628.05 9.16725 1610.27 10.0823 1599 10.6363C1558.82 12.6093 1503.61 15.9093 1458 19.0633C1411.08 22.3083 1392.99 23.6133 1381.5 24.5823C1374.9 25.1393 1363.65 26.0623 1356.5 26.6353C1311.55 30.2343 1227.09 37.8603 1207 40.1343C1204.53 40.4143 1195.86 41.3093 1187.75 42.1233C1137.81 47.1353 1088.54 52.7163 1020 61.1283C1003.88 63.1063 969.09 67.6323 951.5 70.0383C904.402 76.4833 875.567 80.5233 862 82.5793C857.875 83.2053 850 84.3973 844.5 85.2303C810.632 90.3553 788.91 93.7213 780.119 95.2053C775.509 95.9833 771.347 96.6203 770.869 96.6203C770.382 96.6203 770 145.381 770 207.482V318.345L764.25 319C761.088 319.36 750.4 320.978 740.5 322.595C683.524 331.902 657.302 336.303 630 341.143C613.225 344.117 597.925 346.827 596 347.166C592.591 347.764 589.964 348.242 566 352.621C559.675 353.777 551.35 355.364 547.5 356.148C543.65 356.932 528.575 359.861 514 362.658C452.863 374.389 384.176 388.928 320.5 403.615C312.8 405.391 304.025 407.409 301 408.099C272.688 414.562 197.32 433.209 157.5 443.603C123.346 452.518 75.189 465.93 33.5 478.138C24.7 480.715 13.563 483.966 8.75 485.363L0 487.903V877.762V1267.62L484.25 1267.64C788.814 1267.64 974.994 1268.01 986 1268.63C1031.71 1271.2 1064.58 1278.08 1090.48 1290.49C1106.75 1298.28 1114.29 1303.6 1127.73 1316.79C1156.19 1344.67 1175.68 1386.7 1204.2 1481.62C1204.78 1483.55 1207.17 1490.07 1209.52 1496.12C1231.19 1551.88 1272.44 1606.72 1327.8 1653.36C1339.55 1663.27 1360.18 1679.3 1369.5 1685.79C1395.94 1704.19 1411.81 1714.24 1434.32 1726.83C1452.66 1737.09 1488.8 1755.4 1503 1761.63C1508.22 1763.92 1514.53 1766.68 1517 1767.76C1519.47 1768.85 1522.4 1770.13 1523.5 1770.62C1543.92 1779.71 1585.6 1795.24 1615.5 1804.9C1661.59 1819.78 1719.69 1834.43 1769 1843.61C1775.32 1844.79 1783.88 1846.38 1788 1847.15C1828.44 1854.71 1890.19 1861.95 1951.5 1866.33C1987.79 1868.92 2106.21 1868.92 2142.5 1866.33C2169.98 1864.36 2213.04 1860.39 2231 1858.15C2260.92 1854.43 2265.93 1853.72 2291 1849.59C2368.37 1836.86 2438.57 1819.17 2508 1794.91C2526.63 1788.39 2564.95 1773.38 2577 1767.87C2580.58 1766.23 2586.88 1763.43 2591 1761.63C2603.07 1756.39 2643.35 1736.07 2658 1727.83C2761.57 1669.59 2836.83 1597.02 2874.45 1519.12C2883.35 1500.7 2885.53 1494.67 2901.8 1443.62C2912.28 1410.76 2920.99 1388.29 2931.45 1367.12C2943.71 1342.34 2955.46 1326.16 2972.17 1311.09C3000.73 1285.34 3042.37 1272.32 3108 1268.63C3119.01 1268.01 3305.19 1267.64 3609.75 1267.64L4094 1267.62V877.759V487.899L4088.75 486.372C4083.97 484.984 4067.11 480.035 4043.5 473.092C4033.5 470.15 4011.15 463.825 4006.5 462.618C4004.85 462.19 3991.12 458.442 3976 454.289C3934.64 442.933 3854.57 422.5 3817 413.715C3811.78 412.493 3804.8 410.861 3801.5 410.09C3798.2 409.318 3790.55 407.517 3784.5 406.089C3771.69 403.066 3749.96 398.111 3738.5 395.603C3669.89 380.588 3623.37 370.94 3572.5 361.172C3562.05 359.165 3550.35 356.893 3546.5 356.123C3542.65 355.353 3534.32 353.783 3528 352.633C3521.68 351.484 3514.47 350.116 3512 349.594C3509.53 349.071 3504.8 348.22 3501.5 347.702C3498.2 347.184 3481.55 344.28 3464.5 341.248C3434.61 335.933 3370.56 325.254 3339.5 320.409L3324.5 318.069L3324.25 207.345C3324.11 145.947 3323.61 96.6203 3323.13 96.6203C3322.65 96.6203 3318.49 95.9833 3313.88 95.2053C3305.09 93.7213 3283.37 90.3553 3249.5 85.2303C3244 84.3973 3236.12 83.2053 3232 82.5793C3221.83 81.0383 3194.24 77.1373 3168.5 73.6033C3138.24 69.4483 3131.28 68.5043 3120.5 67.0973C3081.41 61.9943 3070.68 60.6433 3045 57.5913C3035.93 56.5133 3022.88 54.9493 3016 54.1153C3009.12 53.2823 2997.2 51.9053 2989.5 51.0563C2981.8 50.2073 2969.65 48.8583 2962.5 48.0593C2946.49 46.2683 2925.71 44.0763 2906.25 42.1233C2898.14 41.3093 2889.47 40.4143 2887 40.1343C2866.91 37.8603 2782.45 30.2343 2737.5 26.6353C2730.35 26.0623 2719.1 25.1393 2712.5 24.5823C2701.01 23.6133 2682.92 22.3083 2636 19.0633C2591.6 15.9933 2537.97 12.7783 2495.5 10.6403C2484.5 10.0863 2466.5 9.16425 2455.5 8.59025C2429.62 7.23925 2367.9 4.90625 2323.5 3.60025C2304.25 3.03425 2275 2.09525 2258.5 1.51325C2231.57 0.564254 1945.76 -0.463746 1900 0.224254ZM2248 50.5263C2610.27 59.9923 2923.14 86.1453 3236.76 133.181C3256.71 136.173 3273.47 138.62 3274.01 138.62C3274.66 138.62 3275 177.318 3275 249.62C3275 337.755 3275.26 360.619 3276.25 360.617C3278.8 360.61 3351.07 372.028 3400 380.166C3617.28 416.306 3819.33 460.859 4008 514.238C4026.42 519.451 4042.29 523.949 4043.25 524.235C4044.91 524.729 4045 542.116 4045 871.187V1217.62L3599.75 1217.64C3338.55 1217.66 3142.93 1218.06 3126.5 1218.62C3094.3 1219.71 3073.61 1221.53 3052.44 1225.11C2998.06 1234.33 2957.9 1253.72 2928.18 1285.11C2896.2 1318.9 2873.69 1365.18 2847.94 1450.12C2841.17 1472.46 2836.2 1485.38 2828.52 1500.71C2813.3 1531.09 2794.74 1556.56 2767.5 1584.49C2722.71 1630.41 2669.05 1668.09 2598 1703.5C2508.88 1747.92 2406.21 1780.11 2291.52 1799.59C2269.15 1803.39 2264.66 1804.07 2241.5 1807.18C2209.22 1811.52 2167.55 1815.39 2127 1817.83C2098.31 1819.55 1995.69 1819.55 1967 1817.83C1926.45 1815.39 1884.78 1811.52 1852.5 1807.18C1829.34 1804.07 1824.85 1803.39 1802.48 1799.59C1641.24 1772.21 1500.63 1718.49 1397 1644.68C1352.82 1613.2 1314.84 1576.47 1289.42 1540.61C1269.27 1512.18 1257.32 1487.24 1246.06 1450.12C1220.31 1365.18 1197.8 1318.9 1165.82 1285.11C1136.1 1253.72 1095.94 1234.33 1041.56 1225.11C1020.39 1221.53 999.697 1219.71 967.5 1218.62C951.074 1218.06 755.449 1217.66 494.25 1217.64L49 1217.62V871.187C49 542.116 49.088 524.729 50.75 524.235C60.713 521.277 124.117 503.516 140 499.233C264.587 465.644 397.698 435.076 532.5 409.098C582.166 399.527 641.462 388.904 694 380.166C742.927 372.028 815.205 360.61 817.75 360.617C818.743 360.619 819 337.755 819 249.62C819 177.318 819.344 138.62 819.986 138.62C820.529 138.62 837.291 136.173 857.236 133.181C1172.95 85.8323 1515.51 57.4433 1853.5 50.6173C1883.2 50.0183 1912.68 49.3923 1919 49.2273C1946.25 48.5173 2211.13 49.5633 2248 50.5263ZM1949 98.7013C1674.83 101.357 1399.16 117.668 1138.5 146.658C1093.77 151.633 1075.71 153.773 1025 160.109C980.628 165.653 880.191 179.486 871.75 181.215L869 181.779V292.12V402.461L866.25 403.032C863.544 403.595 853.586 405.152 795 414.178C750.632 421.014 686.632 431.473 657 436.731C650.675 437.853 643.25 439.154 640.5 439.621C609.965 444.815 546.801 456.705 499.5 466.163C366.029 492.853 248.145 520.891 114 557.854L98.5 562.125V865.122V1168.12L545.5 1168.68C881.961 1169.11 995.467 1169.54 1004.5 1170.44C1011.1 1171.1 1023.53 1172.53 1032.11 1173.61C1136.74 1186.77 1203.48 1231.11 1248.12 1317.12C1263.43 1346.6 1275.29 1377.2 1291.15 1428.12C1295.61 1442.42 1300.5 1457.27 1302.02 1461.12C1330.84 1534.09 1406.13 1603.18 1517.52 1658.87C1652.87 1726.55 1825.79 1765.27 2011.75 1769.55C2248.91 1775.01 2469.17 1725.53 2626.78 1631.39C2693.85 1591.34 2747.16 1542.29 2775.45 1494.63C2787.28 1474.71 2791.61 1464.17 2802.85 1428.12C2831.23 1337.02 2855.39 1289.28 2892.7 1250.58C2912.16 1230.4 2930.61 1216.74 2955.5 1204.09C2991.57 1185.76 3028.19 1176.57 3089.5 1170.44C3098.53 1169.54 3212.04 1169.11 3548.5 1168.68L3995.5 1168.12V865.122V562.125L3980 557.854C3845.85 520.891 3727.97 492.853 3594.5 466.163C3547.2 456.705 3484.03 444.815 3453.5 439.621C3450.75 439.154 3443.32 437.853 3437 436.731C3407.37 431.473 3343.37 421.014 3299 414.178C3240.41 405.152 3230.46 403.595 3227.75 403.032L3225 402.461V292.12V181.779L3222.25 181.215C3213.81 179.486 3113.37 165.653 3069 160.109C3018.29 153.773 3000.23 151.633 2955.5 146.658C2737.41 122.404 2519.09 107.677 2280 101.094C2233.53 99.8143 2044.68 97.3373 2030 97.8143C2027.53 97.8953 1991.08 98.2943 1949 98.7013ZM224.068 570.216C235.169 573.479 239.461 579.761 237.072 589.25C236.411 591.875 234.646 595.845 233.15 598.071C231.654 600.298 229.821 603.6 229.078 605.408C226.738 611.099 222.911 611.435 218.203 606.365L215.906 603.891L219.932 603.247C223.002 602.756 224.306 601.929 225.427 599.762C226.814 597.08 226.739 596.732 224.097 593.568C221.814 590.832 220.63 590.234 217.662 590.318C210.088 590.533 204.077 596.629 200.153 608.074C188.081 643.288 202.983 695.979 240.097 749.304C251.7 765.976 270.626 787.988 279.187 794.768L283.329 798.049L282.739 793.064C281.907 786.036 284.225 774.098 287.796 767.024C293.559 755.608 304.128 745.549 316.014 740.169C321.24 737.803 324.258 737.152 331.549 736.816L340.597 736.399L346.094 741.423C353.843 748.505 357.219 755.721 357.805 766.454L358.26 774.789L355.675 772.204C353.505 770.034 352.184 769.62 347.432 769.62C330.84 769.62 322.573 787.316 330.016 806.903C336.654 824.373 355.984 841.076 383.897 853.461C390.221 856.267 393.484 856.968 406.397 858.295C425.364 860.243 458.044 860.3 467 858.4L473.5 857.021L465.5 855.837C458.831 854.851 455.17 853.468 443.5 847.529C435.8 843.611 426.8 838.467 423.5 836.099C415.343 830.245 406.852 821.35 402.521 814.12C398.86 808.008 395 797.24 395 793.14C395 790.636 393.427 790.848 413 790.713C428.008 790.609 432.559 787.246 422.5 783.693C409.355 779.05 397.766 771.35 387.496 760.434C379.038 751.445 374.691 744.339 370.945 733.381C366.072 719.124 364.167 695.283 366.971 683.62C372.164 662.015 389.645 648.62 412.645 648.62C423.657 648.62 428.46 651.211 432.11 659.12C435.442 666.34 434.067 674.531 428.691 679.486C426.379 681.617 425.409 681.812 418.941 681.447C412.626 681.09 411.477 680.713 409.423 678.325C407.436 676.015 407.123 674.674 407.331 669.363C407.465 665.927 407.922 662.555 408.347 661.868C409.594 659.85 406.979 660.392 400.5 663.495C391.913 667.608 389.096 670.988 387.79 678.746C385.736 690.944 390.26 702.048 399.237 706.843C403.041 708.875 404.793 709.107 415.5 709C426.061 708.894 429.479 708.377 444 704.692C456.713 701.467 463.848 700.255 475.085 699.415C488.834 698.387 490.069 698.446 496.659 700.448C500.503 701.615 505.302 703.693 507.324 705.065C509.346 706.437 511 707.311 511 707.006C511 705.429 506.844 690.49 505.53 687.346C504.693 685.344 501.982 680.367 499.504 676.286C497.027 672.205 495 668.644 495 668.372C495 667.675 503.261 669.299 511.355 671.587C526.851 675.968 532.392 678.673 558.5 694.601C581.693 708.75 591.801 718.666 600.825 736.12C604.819 743.846 606.371 748.281 610.584 764.011C616.088 784.564 625.041 800.916 634.674 808.01L638.5 810.828L630.825 810.243C614.075 808.967 594.336 803.001 577 793.975C571.225 790.969 563.575 787.345 560 785.922C553.34 783.271 542.754 778.128 523.698 768.285C517.211 764.935 506.623 760.713 497.198 757.719C477.173 751.357 470.069 750.126 456 750.579L451.5 750.724L460.783 754.14C480.185 761.277 495.703 769.827 511.282 781.963C533.281 799.1 548.105 806.055 565.963 807.621C571.208 808.081 579.926 809.393 585.335 810.536C597.391 813.085 617.347 815.617 625.47 815.629C628.787 815.633 633.843 815.919 636.706 816.263L641.912 816.888L638.739 821.504C633.186 829.582 618.451 843.249 607.492 850.487C596.461 857.772 570.426 871.334 548.5 881.215C530.871 889.16 506.809 901.028 499.5 905.384C489.032 911.622 471.22 924.634 467.474 928.781C463.907 932.729 460 940.332 460 943.325C460 946.243 457.403 942.851 454.025 935.524C449.69 926.118 448.92 917.753 451.817 911.542C452.952 909.11 454.536 905.995 455.337 904.62C456.138 903.245 457.615 900.136 458.62 897.712C461.412 890.972 465.42 886.048 472.267 880.945C475.695 878.39 477.6 876.627 476.5 877.028C456.074 884.473 434.499 890.27 416.772 893.076C357.559 902.451 298.78 890.441 252.5 859.512C239.491 850.818 229.584 841.665 226.222 835.233C223.919 830.83 223.545 828.893 223.524 821.286C223.501 812.802 223.613 812.354 226.348 809.999C228.335 808.289 229.847 807.744 231.348 808.199C232.532 808.557 246.55 817.539 262.5 828.158C291.75 847.632 309.515 858.179 325.53 865.577C335.014 869.959 347.838 872.829 365.856 874.601C377.083 875.706 408.522 875.785 419 874.735L425.5 874.084L419.066 873.281C415.528 872.84 409.228 871.364 405.066 870.002C400.905 868.639 390.976 866.174 383.003 864.523C375.029 862.873 364.454 860.17 359.503 858.515C347.115 854.377 303.3 832.543 287.5 822.635C229.509 786.269 184.331 735.26 158.449 676.928C150.871 659.849 148.929 652.428 148.286 638.089C147.831 627.944 148.079 624.73 149.863 617.589C153.164 604.381 158.969 593.62 167.368 585.139C179.79 572.594 189.037 568.811 207.568 568.691C214.96 568.644 220.441 569.15 224.068 570.216ZM3915.14 570.45C3924.33 572.998 3930.33 576.755 3938.69 585.194C3958.69 605.392 3963.52 637.118 3951.31 668.12C3927.55 728.467 3879.79 784.073 3818.42 822.818C3804.37 831.688 3758.18 854.616 3746.5 858.517C3741.55 860.17 3730.97 862.873 3723 864.523C3715.02 866.174 3705.1 868.639 3700.93 870.002C3696.77 871.364 3690.47 872.84 3686.93 873.281L3680.5 874.084L3687 874.735C3697.48 875.785 3728.92 875.706 3740.14 874.601C3760.4 872.609 3771.19 869.997 3783.33 864.148C3800.78 855.741 3817.48 845.759 3843.67 828.068C3871.81 809.062 3875.21 807.129 3877.96 808.6C3881.73 810.618 3883 813.761 3883 821.093C3883 834.984 3875.38 844.896 3853.43 859.577C3807.35 890.391 3748.1 902.473 3689.23 893.061C3671.87 890.286 3646.3 883.434 3629.5 877.059C3628.4 876.641 3630.26 878.356 3633.63 880.87C3641.45 886.699 3643.5 889.503 3650.5 903.921C3655.93 915.102 3656.21 916.047 3655.82 921.921C3655.54 926.203 3654.38 930.362 3652.06 935.371C3648.43 943.207 3646.02 946.235 3645.98 942.992C3645.94 939.839 3642.39 933.06 3638.56 928.813C3634.77 924.622 3616.92 911.581 3606.5 905.397C3598.1 900.413 3578.45 890.687 3559 881.893C3508.19 858.918 3486.08 844.784 3470.46 825.279L3463.93 817.12L3468.21 816.444C3470.57 816.072 3475.66 815.735 3479.53 815.694C3488.76 815.597 3508.35 813.14 3520.67 810.536C3526.07 809.393 3534.79 808.081 3540.04 807.621C3549.97 806.75 3558.76 804.282 3567.41 799.932C3574.15 796.543 3588.38 787.288 3594 782.636C3606.71 772.114 3627.23 760.669 3645 754.189C3654.45 750.742 3654.48 750.724 3650 750.579C3636.46 750.143 3628.85 751.373 3611.5 756.806C3594.96 761.984 3591.45 763.467 3575 772.207C3567.57 776.153 3557 781.25 3551.5 783.535C3546 785.82 3536.32 790.334 3530 793.566C3511.38 803.082 3492.15 808.933 3475.18 810.256L3467.5 810.854L3471.63 807.741C3481.47 800.317 3489.96 784.675 3495.48 763.778C3501.99 739.172 3507.82 727.939 3521 714.655C3529.17 706.418 3532.65 703.91 3556.08 689.381C3570.02 680.738 3576.61 677.483 3587.66 673.783C3596.72 670.752 3610.12 667.563 3610.91 668.25C3611.13 668.446 3609.08 672.321 3606.33 676.863C3603.59 681.404 3600.83 686.47 3600.2 688.12C3598.96 691.384 3595 705.616 3595 706.828C3595 707.239 3597.04 706.281 3599.54 704.699C3602.03 703.117 3606.98 701.037 3610.52 700.076C3620.31 697.427 3640.11 699.175 3662 704.62C3692.83 712.29 3707.12 710.978 3714.67 699.785C3717.73 695.233 3719.33 686.729 3718.48 679.414C3717.9 674.485 3717.15 672.683 3714.36 669.595C3711.01 665.888 3704.94 662.397 3699.46 661.021C3697.25 660.467 3696.87 660.607 3697.56 661.722C3698.04 662.489 3698.53 665.927 3698.67 669.363C3698.88 674.683 3698.56 676.014 3696.56 678.34C3694.47 680.771 3693.4 681.111 3686.8 681.445L3679.38 681.819L3676.26 678.262C3668.49 669.416 3672.7 653.184 3683.7 649.553C3688.97 647.814 3704.24 648.885 3710.91 651.461C3727.84 657.998 3737.89 671.147 3739.84 689.324C3740.91 699.319 3739.48 718.271 3736.94 727.62C3730.07 753.004 3709.58 774.536 3683.64 783.655C3673.42 787.243 3678.08 790.563 3693.51 790.699C3698.46 790.742 3704.46 790.796 3706.86 790.819L3711.23 790.86L3710.56 795.99C3709.42 804.74 3702.86 816.74 3694.33 825.674C3685.86 834.532 3676.87 840.63 3660 848.944C3651.04 853.358 3646.73 854.874 3640.5 855.799C3633.21 856.882 3632.81 857.054 3636 857.739C3651.07 860.976 3670.07 861.073 3700.77 858.071C3712.45 856.928 3716.26 856.139 3721.77 853.715C3750.11 841.251 3770.12 823.67 3776.77 805.389C3777.65 802.98 3778.37 797.635 3778.41 793.12C3778.49 786.458 3778.08 784.297 3776 780.197C3772.46 773.235 3766.57 769.62 3758.76 769.62C3753.8 769.62 3752.52 770.014 3750.32 772.208L3747.73 774.796L3748.2 766.773C3748.8 756.316 3752.81 747.771 3760.26 741.076L3765.46 736.402L3774.48 736.817C3781.74 737.152 3784.77 737.806 3789.99 740.169C3801.69 745.468 3812.45 755.615 3817.99 766.591C3822.01 774.563 3823.24 779.969 3823.19 789.39L3823.14 797.659L3825.82 795.738C3829.7 792.957 3841.45 780.544 3850.19 769.979C3878.21 736.124 3899.87 694.801 3907.02 661.549C3911.32 641.551 3910.55 619.924 3905.01 605.315C3899.9 591.803 3886.97 585.634 3881.44 594.068C3878.4 598.71 3881.88 603.62 3888.22 603.62C3890.31 603.62 3890.31 603.661 3887.92 606.229C3885.18 609.186 3882.14 610.6 3880.15 609.844C3879.41 609.562 3877.93 607.484 3876.86 605.226C3875.79 602.968 3873.6 598.87 3871.99 596.12C3864.75 583.717 3868.2 574.374 3881.52 570.288C3888.82 568.047 3906.79 568.134 3915.14 570.45ZM701.992 574.105C716.645 578.004 732.644 590.721 738.498 603.12C742.486 611.568 743.155 622.604 740.064 628.987C737.789 633.687 731.906 637.62 727.152 637.62C721.953 637.62 712.994 631.081 713.003 627.293C713.004 626.648 715.142 624.995 717.753 623.62C723.08 620.815 724.004 618.463 721.605 613.823C718.627 608.065 708.514 605.789 702.42 609.506C698.88 611.665 696 617.036 696 621.48C696 624.262 698.019 630.351 705.427 649.915C708.372 657.693 708.71 664.3 706.399 668.92C705.519 670.68 700.395 676.395 695.012 681.62C684.626 691.702 681.15 697.108 678.492 707.313C676.487 715.01 676.614 721.79 678.932 730.854C680.852 738.362 685.322 748.296 688.501 752.12L690.163 754.12L689.455 752.12C686.011 742.39 683.779 734.215 682.837 727.88C680.735 713.747 684.105 706.492 699.701 691.582C710.262 681.486 710.306 681.479 713.379 689.451C716.381 697.238 720 712.732 720 717.795C720 720.521 718.847 727.215 717.438 732.671C714.95 742.308 714.922 742.766 716.455 748.752C717.324 752.142 719.572 757.436 721.452 760.517C725.059 766.429 734.869 776.658 733.538 773.12C729.328 761.922 727.832 756.254 727.313 749.529C726.969 745.066 727.095 741.624 727.602 741.629C729.741 741.652 738.884 747.75 742.063 751.274C743.97 753.39 749.124 761.158 753.515 768.538C763.069 784.592 772.261 794.846 784.753 803.385C807.132 818.682 825.823 824.551 872 830.783L881.5 832.065L876.5 832.755C868.618 833.842 843.872 833.725 833.211 832.549C827.87 831.961 818.55 830.39 812.5 829.06C806.45 827.73 790.025 824.204 776 821.225C744.469 814.529 737.505 812.752 722.44 807.558C679.193 792.648 649.891 766.82 630.6 726.608C608.536 680.617 607.785 635.78 628.554 604.539C638.132 590.132 654.593 579.219 674.5 574.081C681.324 572.319 695.327 572.332 701.992 574.105ZM3432 574.161C3442.32 576.561 3459.79 585.605 3467.01 592.288C3495.02 618.225 3500.4 665.25 3480.96 714.233C3462.32 761.182 3430.98 791.208 3383.56 807.558C3368.5 812.752 3361.53 814.529 3330 821.225C3315.98 824.204 3299.55 827.73 3293.5 829.06C3287.45 830.39 3278.13 831.961 3272.79 832.549C3262.1 833.728 3237.35 833.842 3229.5 832.748C3224.82 832.097 3225.37 831.935 3238 830.246C3266.22 826.472 3287.85 821.179 3303.04 814.33C3312.18 810.208 3329.07 798.272 3336.09 790.972C3342.8 783.985 3347.95 776.657 3356.63 761.746C3361.64 753.132 3367.7 746.845 3374.21 743.517C3376.25 742.474 3378.23 741.62 3378.6 741.62C3378.98 741.62 3379.03 745.107 3378.72 749.37C3378.24 755.939 3376 764.511 3372.51 773.12C3371.11 776.587 3379.98 767.548 3384.01 761.399C3386.07 758.252 3388.56 752.727 3389.54 749.12L3391.31 742.562L3388.66 732.657C3387.2 727.209 3386 720.584 3386 717.936C3386 712.337 3391.21 692.095 3394.1 686.416L3396.09 682.523L3399.79 685.471C3406.01 690.416 3417.51 702.855 3420.3 707.649C3425.27 716.207 3424.74 728.089 3418.53 746.658C3416.8 751.836 3416.52 753.508 3417.6 752.12C3420.82 747.998 3425.2 738.156 3427.07 730.854C3429.27 722.235 3429.49 716.023 3427.87 708.419C3425.66 698.094 3422.32 692.761 3411.44 682.12C3405.81 676.62 3400.49 670.68 3399.6 668.92C3396.85 663.423 3397.58 657.54 3402.59 644.794C3408.26 630.392 3409.98 624.945 3409.99 621.271C3410.01 617.029 3407.06 611.63 3403.58 609.506C3397.49 605.789 3387.37 608.065 3384.4 613.823C3382 618.463 3382.92 620.815 3388.25 623.62C3390.86 624.995 3393 626.667 3393 627.335C3393 629.594 3386.92 635.49 3383.39 636.658C3376.47 638.941 3368.31 634.998 3365.36 627.949C3363.51 623.506 3363.65 614.025 3365.66 608.048C3370.7 593.04 3386.63 578.8 3403.57 574.152C3410.26 572.317 3424.09 572.321 3432 574.161ZM3188.86 848.044C3205.01 856.166 3221.46 859.223 3244 858.289C3256.07 857.789 3263.11 856.756 3286 852.13C3320.83 845.09 3332.21 843.089 3349 841.048C3365.5 839.043 3396.05 838.771 3409 840.513C3454.66 846.658 3491.96 865.679 3526.95 900.669C3557.88 931.595 3575.25 963.11 3580.52 997.863C3583.91 1020.21 3580.57 1043.85 3571.78 1059.62C3565.51 1070.87 3554.06 1084.16 3543.12 1092.85C3529.44 1103.73 3517.43 1108.42 3500.95 1109.31C3478.43 1110.53 3455.38 1101.69 3443.59 1087.29C3435.08 1076.91 3431.76 1062.93 3435.89 1054.85C3440.16 1046.47 3450.12 1042.53 3459.32 1045.56C3463.18 1046.83 3468 1050.22 3468 1051.66C3468 1052.15 3465.97 1054.83 3463.5 1057.62C3458.51 1063.25 3458.07 1065.17 3460.97 1068.86C3469.95 1080.27 3490.35 1073.47 3491.78 1058.6C3492.55 1050.52 3489 1044.77 3473.1 1028.29C3465.57 1020.5 3458.45 1012.52 3457.25 1010.57C3452.44 1002.69 3453.26 994.555 3460.43 979.214C3467.07 965.001 3469 957.916 3469 947.725C3469 942.948 3468.32 936.358 3467.49 933.08C3463.96 919.227 3454.2 904.69 3441.89 894.972C3430.4 885.894 3429.07 885.673 3436.84 894.13C3446.84 905.004 3455.6 918.487 3458.17 926.941C3460.65 935.123 3460.2 941.702 3456.32 954.034C3453.36 963.407 3444.18 982.62 3442.65 982.62C3441.05 982.62 3432.22 973.122 3424.08 962.62C3414.12 949.791 3411.48 943.823 3409.47 929.62C3408.51 922.863 3406.87 915.968 3405.49 912.902C3400.88 902.663 3388.3 892.258 3374.14 886.965L3367.5 884.486L3372.61 889.803C3375.43 892.727 3379.6 897.531 3381.88 900.478C3386.39 906.309 3393.59 920.366 3392.57 921.38C3391.53 922.424 3377.89 920.007 3371.87 917.711C3366.39 915.623 3362.8 913.249 3343 898.602C3326.86 886.66 3308.08 878.379 3291 875.667C3287.42 875.1 3279.05 874.632 3272.4 874.628C3224.4 874.598 3199.1 865.891 3175 841.111L3168.5 834.427L3175.36 839.566C3179.13 842.392 3185.21 846.207 3188.86 848.044ZM927.274 844.604C904.632 866.471 879.426 874.62 834.427 874.62C828.222 874.62 819.68 875.102 815.446 875.691C799.399 877.923 780.061 886.144 765 897.137C760.875 900.148 753.565 905.505 748.755 909.042C743.945 912.579 737.42 916.46 734.255 917.666C728.173 919.983 714.482 922.436 713.441 921.395C712.498 920.451 720.74 904.692 724.829 899.62C726.825 897.145 730.674 892.753 733.383 889.86L738.309 884.6L734.254 886.031C722.006 890.352 710.443 898.337 703.902 906.991C699.504 912.81 698.52 915.893 696.527 930.091C694.69 943.174 691.902 949.698 683.267 961.12C676.275 970.368 664.967 982.62 663.424 982.62C661.955 982.62 651.553 960.618 649.013 952.136C645.696 941.065 645.406 934.933 647.824 926.975C650.351 918.653 659.099 905.096 668.638 894.716C676.047 886.655 674.508 886.739 664.107 894.964C647.093 908.419 637 927.712 637 946.781C637 957.672 638.459 963.448 644.551 976.675C650.87 990.395 652.473 996.156 651.647 1002.18C650.692 1009.15 648.889 1011.69 633.525 1027.7C614.379 1047.65 610.966 1054.75 615.894 1064.41C618.233 1068.99 620.504 1071.1 625.254 1073.08C632.372 1076.06 640.778 1074.26 645.027 1068.86C647.929 1065.17 647.495 1063.24 642.489 1057.61C637.191 1051.64 637.459 1050.03 644.299 1046.72C649.296 1044.3 656.533 1043.98 661.298 1045.97C665.698 1047.81 670.757 1053.81 671.573 1058.16C672.627 1063.78 671.564 1070.71 668.682 1077C665.112 1084.8 660.962 1089.82 653.299 1095.63C632.303 1111.52 599.586 1114.11 576.337 1101.72C558.739 1092.34 538.04 1070.2 531.323 1053.57C519.629 1024.62 522.432 989.216 539.133 954.927C557.045 918.152 594.296 880.624 633.095 860.266C660.958 845.646 688.959 839.236 724.5 839.34C752.18 839.421 767.501 841.487 820.5 852.282L848.5 857.985L868 858.043C885.29 858.094 888.52 857.837 896.5 855.773C907.333 852.97 923.632 845.312 930.5 839.797C933.25 837.589 935.725 835.762 936 835.738C936.275 835.714 932.348 839.703 927.274 844.604ZM2118.5 1013.67C2206.24 1017.36 2294.95 1028.79 2379 1047.24C2550.49 1084.89 2702.18 1151.64 2814.19 1238.75C2821.17 1244.18 2827.17 1249.09 2827.52 1249.66C2827.88 1250.23 2825.05 1255.52 2821.25 1261.41C2810.61 1277.88 2807.64 1283.08 2798.57 1301.27C2782.25 1333.98 2773.18 1358.26 2749.88 1431.62C2733.11 1484.41 2687.87 1534.08 2613.5 1581.34C2525.66 1637.16 2406.7 1679.75 2277.5 1701.64C2198.62 1715.01 2134.82 1720.12 2047 1720.12C1959.18 1720.12 1895.38 1715.01 1816.5 1701.64C1642.69 1672.19 1489.94 1605.71 1404.24 1522.23C1372.75 1491.55 1354.35 1463.82 1344.12 1431.62C1320.82 1358.26 1311.75 1333.98 1295.43 1301.27C1286.35 1283.07 1283.4 1277.88 1272.72 1261.36C1267.08 1252.63 1266 1250.33 1266.97 1249.16C1267.63 1248.36 1274.54 1242.82 1282.33 1236.83C1419.35 1131.58 1609.35 1058.15 1823.5 1027.69C1885.7 1018.84 1943.85 1014.18 2016.5 1012.23C2034.36 1011.75 2092.28 1012.57 2118.5 1013.67Z" fill="#0000FF"/>
</svg>
