<svg width="4096" height="1485" viewBox="0 0 4096 1485" fill="none" xmlns="http://www.w3.org/2000/svg">
<path d="M24 27H4071V949H3192L3029 1157.5L2572.5 1400L1988 1448.5L1483 1365L1099 1173.5L898 949H24V27Z" fill="white"/>
<path fill-rule="evenodd" clip-rule="evenodd" d="M0 484.853V969.628L436.75 969.629L873.5 969.63L876.375 974.748C877.956 977.563 883.752 986.675 889.255 994.997C983.87 1138.07 1138.76 1258.6 1340.5 1346.14C1561.26 1441.92 1828.48 1490.68 2094.75 1483.77C2177.35 1481.62 2244.74 1476.18 2321 1465.5C2685.06 1414.5 2997.67 1260.89 3166.71 1049.93C3185.61 1026.35 3210.55 990.91 3219.62 974.748L3222.5 969.63L3659.25 969.629L4096 969.628V484.814V0L2048 0.039L0 0.078V484.853ZM4038.75 484.377L4039 911.626L3614.32 911.877L3189.64 912.128L3178.53 931.128C3146.35 986.201 3113.69 1028.16 3066.03 1075.63C2897.1 1243.9 2626.65 1363.86 2316.34 1408.14C2171.69 1428.78 2016.88 1432.4 1868.5 1418.6C1523.69 1386.55 1215.59 1260.53 1029.97 1075.63C982.315 1028.16 949.648 986.201 917.465 931.128L906.361 912.128L481.681 911.877L57 911.626V484.793C57 250.036 57.188 57.773 57.419 57.543C57.649 57.313 953.486 57.125 2048.17 57.126L4038.5 57.128L4038.75 484.377ZM103 484.628V866.628L436.25 866.565L769.5 866.502L760.5 863.729C738.814 857.049 718.873 847.572 700.655 835.291L688.33 826.982L687.123 834.171C682.74 860.255 657.345 869.173 619.105 858.056L613.669 856.476L618.085 853.981C623.876 850.708 627.743 846.985 630.092 842.418C631.141 840.377 632 838.481 632 838.204C632 837.927 629.103 839.517 625.563 841.736C608.424 852.483 595.093 852.995 569.725 843.884L559.513 840.216L565.742 838.955C575.515 836.977 578.954 834.691 582.405 827.878C584.377 823.986 583.96 823.883 575.339 826.128C557.873 830.677 540.065 825.598 527.333 812.436C523.193 808.156 513 793.978 513 792.499C513 792.074 514.913 792.594 517.25 793.655C526.942 798.054 535.029 795.712 551.488 783.738C565.999 773.182 572.619 770.206 582.534 769.783C589.271 769.496 591.897 769.881 598.321 772.098C602.56 773.561 607.259 774.616 608.764 774.443C611.053 774.179 611.552 773.586 611.818 770.812C612.238 766.443 608.384 761.37 602.297 758.276L597.712 755.946L602.106 753.825C609.53 750.241 616.233 749.257 623.666 750.659C629.839 751.824 643.669 757.953 650.75 762.663C653.071 764.206 653.998 764.439 653.993 763.476C653.984 761.487 650.852 757.086 647.657 754.573C643.727 751.481 645.444 750.35 654.196 750.262C669.73 750.108 680.845 759.896 684.956 777.349C686.225 782.739 686.9 795.044 685.978 795.978C685.69 796.268 682.765 795.205 679.478 793.615C668.291 788.205 661.612 787.125 639.5 787.153C624.749 787.172 617.138 787.633 610.5 788.911C598.86 791.151 553.932 801.893 554.37 802.331C554.721 802.682 564.104 801.39 592.5 797.083C615.577 793.583 644.97 792.649 657.045 795.033C668.297 797.254 680.379 803.212 696.5 814.487C732.747 839.84 743.017 845.345 761.2 849.17C772.277 851.5 773.292 851.101 766.581 847.054C738.232 829.96 717.134 801.015 711.544 771.548C704.67 735.311 721.371 699.06 751.843 684.076C761.243 679.453 769.261 677.628 780.164 677.628C795.86 677.628 809.233 682.437 823.62 693.255C834.009 701.067 834.172 701.979 824.289 696.993C807.882 688.716 792.267 688.797 775 697.25C765.111 702.091 752.959 714.15 748.253 723.793C743.029 734.495 741.666 741.427 742.287 754.128C742.98 768.288 747.57 781.927 756.701 796.959L760.42 803.08L761.723 796.604C764.978 780.437 774.396 770.503 789.032 767.8C798.621 766.03 807.97 768.793 815.326 775.575C827.339 786.648 826.685 804.808 813.963 813.451C811.01 815.457 809.56 815.745 804.118 815.41C798.434 815.059 797.423 814.665 794.868 811.806C791.455 807.986 791.108 803.52 794 800.628C796.779 797.849 800.437 798.096 802.902 801.231L804.949 803.833L806.097 801.314C807.911 797.333 804.618 791.493 799.642 789.868C789.076 786.419 778.856 795.627 778.733 808.709C778.63 819.679 785.552 829.145 801 839.157C814.553 847.941 828.574 853.245 847.294 856.67C859.147 858.838 887.995 860.414 894.273 859.237C897.54 858.624 897.986 858.162 898.519 854.84C900.01 845.54 902.487 836.492 905.558 829.128C912.143 813.336 916.571 788.321 915.738 771.628C915.308 763.013 913.728 756.628 912.027 756.628C911.669 756.628 909.379 757.615 906.938 758.821C891.627 766.389 876.08 755.614 867.868 731.744C866.841 728.758 866 725.926 866 725.451C866 724.976 867.782 725.496 869.96 726.608C872.477 727.892 875.848 728.622 879.21 728.611L884.5 728.595L877.386 725.133C864.589 718.906 860.095 711.677 854.38 688.128C853.921 686.237 853.999 686.247 855.802 688.31C858.795 691.732 865.053 695.628 867.558 695.628C872.661 695.628 872.65 694.666 867.482 689.331C855.757 677.225 854.032 663.111 862.081 645.128C863.75 641.399 864.415 640.637 864.698 642.128C865.759 647.719 866.258 648.853 869.068 652.053C871.314 654.611 874.637 656.48 881.804 659.214C892.665 663.357 897.178 665.742 901.343 669.537C904.745 672.637 908.47 679.712 909.403 684.846C910.281 689.677 912.493 691.969 914.989 690.634C917.461 689.311 919.321 683.368 918.473 679.506L917.789 676.39L921.006 678.259C929.351 683.106 933.97 693.011 934.033 706.194L934.067 713.128L936.033 710.767C937.115 709.469 938 707.069 938 705.434C938 701.543 939.698 702.148 943.36 707.344C948.505 714.645 947.953 723.383 941.773 732.428C939.266 736.097 930.724 743.526 928.923 743.603C928.605 743.617 927.803 740.682 927.139 737.081C923.932 719.677 913.444 705.117 885.368 679.095C872.935 667.572 873.488 668.435 891.876 689.25C915.894 716.438 920.127 725.031 924.58 755.628C926.265 767.213 926.176 792.473 924.432 797.128C924.02 798.228 927.242 795.719 931.592 791.553C947.703 776.12 960.785 769.145 988.635 761.139C1010.48 754.859 1017.4 752.329 1032.94 744.956C1062.34 731.004 1084.2 711.876 1095 690.647C1102.22 676.446 1104.86 658.444 1101.6 645.628C1098.46 633.271 1091.43 622.664 1082.11 616.207C1071.21 608.649 1052.63 605.755 1035.96 609.017C992.426 617.535 969.129 664.798 995.461 691.175C1002.6 698.323 1009.69 701.628 1017.88 701.628C1024.47 701.628 1031.42 699.242 1034.04 696.081C1035.07 694.84 1034.58 694.723 1030.65 695.263C1024.79 696.065 1020.62 694.376 1018.01 690.142C1015.45 686.004 1015.45 681.252 1018.01 677.114C1023.67 667.958 1038.13 670.986 1041.08 681.943C1044.01 692.816 1036.77 703.599 1024.06 707.298C1002.43 713.593 977.191 694.567 970.494 666.911C967.924 656.302 968.758 639.873 972.412 629.128C976.917 615.878 986.517 602.628 998.024 593.78C1006.01 587.634 1020.42 581.785 1032.96 579.593C1041.89 578.031 1060.99 578.237 1070 579.991C1092.38 584.349 1110.96 597.467 1123.03 617.423C1132.25 632.672 1135.34 653.226 1131.09 671.043C1123.12 704.41 1091.75 733.991 1044 753.162C1033.01 757.573 1031.4 758.628 1035.67 758.628C1047.62 758.628 1073.57 766.308 1091.7 775.215C1145.17 801.474 1195.66 859.613 1219.28 922.128C1233.18 958.895 1237.99 993.592 1238 1057.05C1238 1073.5 1238.18 1086.77 1238.41 1086.55C1239.07 1085.86 1243.75 1059.08 1245.64 1045.13C1248.37 1024.96 1248.13 985.389 1245.17 968.187C1239.32 934.188 1229.01 908.006 1210.75 880.797C1208.04 876.764 1206.04 873.255 1206.3 872.998C1206.55 872.74 1209.67 873.204 1213.23 874.029C1240.39 880.329 1268.29 895.646 1287 914.529C1301.24 928.901 1308 942.077 1308 955.447V959.845L1302.86 954.68C1296.47 948.257 1282.41 938.628 1279.43 938.628C1279.06 938.628 1284.48 944.542 1291.49 951.77C1315.26 976.31 1325 992.839 1325 1008.66C1325 1013.07 1322.55 1023.35 1321.15 1024.84C1320.78 1025.23 1313.35 1023.29 1304.64 1020.52C1295.94 1017.75 1288.59 1015.71 1288.31 1015.99C1287.61 1016.69 1296.98 1033.21 1304.28 1044.13C1314.84 1059.94 1323 1069.76 1338.43 1085.23C1362.06 1108.91 1382.82 1122.89 1407 1131.39C1426.05 1138.08 1447.83 1139.47 1458.74 1134.69C1468.81 1130.27 1475.29 1119.14 1472.92 1110.32C1470.06 1099.72 1460.27 1095.2 1453.92 1101.55C1450.48 1104.99 1449.84 1108.32 1452.93 1106.66C1455.8 1105.13 1457.77 1105.4 1460 1107.63C1462.92 1110.54 1462.52 1114.01 1458.92 1117.04C1450.57 1124.07 1438.12 1116.4 1437.19 1103.65C1435.48 1079.93 1467.08 1069.28 1484.84 1087.59C1490.45 1093.36 1493.19 1099.51 1493.77 1107.62C1494.38 1116.23 1492.66 1123.45 1488.52 1129.6L1485.28 1134.41L1492.19 1132.06C1507.01 1127.02 1521.73 1118.21 1530.29 1109.25C1540.04 1099.05 1546.93 1082.16 1546.98 1068.34C1547.05 1049.3 1536.6 1029.19 1521.36 1019.08C1514.78 1014.71 1502.97 1010.68 1496.21 1010.5L1491.5 1010.38L1497 1009.53C1500.29 1009.03 1506.52 1009.1 1512.5 1009.73C1530.74 1011.64 1542.42 1017.01 1554.61 1029.09C1568.64 1042.99 1574.72 1059.5 1573.73 1080.98C1573.14 1093.69 1571.4 1101.03 1566.52 1111.37C1553.64 1138.69 1526.86 1157.67 1492.14 1164.08C1483.12 1165.75 1460.94 1166.08 1452.5 1164.68C1449.75 1164.22 1447.35 1163.98 1447.17 1164.15C1446.27 1164.98 1461.68 1172.48 1470 1175.26C1482.13 1179.31 1494.95 1181.3 1517.5 1182.62C1555.45 1184.84 1566.9 1188.13 1585.43 1202.13C1596.42 1210.43 1606.6 1220.26 1626.77 1242.04C1637 1253.09 1645.77 1262.29 1646.24 1262.48C1647.35 1262.93 1625.93 1234.83 1616.63 1223.63C1595.59 1198.29 1574.46 1182.59 1555.19 1177.97C1551.23 1177.02 1548 1175.86 1548 1175.39C1548 1174.92 1551.26 1171.27 1555.25 1167.29C1566.6 1155.95 1578.62 1151.11 1589.41 1153.52C1595.77 1154.94 1602.75 1159.3 1606.46 1164.16L1609.1 1167.63H1604.52C1600.19 1167.63 1592.15 1170.11 1593.17 1171.13C1593.42 1171.39 1597.21 1172.09 1601.57 1172.68C1623.26 1175.64 1635.72 1183.24 1640.81 1196.64L1641.76 1199.13H1633.49C1624.07 1199.13 1620.66 1200.91 1621.2 1205.55C1621.44 1207.55 1622.54 1208.48 1626.5 1210.02C1642.97 1216.42 1648.59 1220.62 1653.78 1230.38C1655.46 1233.54 1658.67 1242.55 1660.91 1250.4C1665.43 1266.23 1667.46 1270.84 1671.66 1274.83C1674.86 1277.86 1680.82 1280.63 1684.17 1280.63C1692.67 1280.63 1669.68 1287.51 1658.5 1288.31C1648.86 1289 1641.2 1287.57 1633.22 1283.58C1627.1 1280.52 1617.46 1271.75 1613.21 1265.36C1611.84 1263.28 1610.51 1261.79 1610.27 1262.03C1610.02 1262.27 1609.43 1264.19 1608.95 1266.3C1607.7 1271.79 1609.42 1277.17 1614.55 1283.84L1618.94 1289.55L1610.22 1286.52C1595.76 1281.49 1585.27 1275.84 1578.98 1269.69C1572.69 1263.54 1570.25 1259.36 1566.61 1248.55L1564.17 1241.3L1563 1245.64C1561.62 1250.75 1562.38 1257.34 1565.05 1263.44L1566.94 1267.74L1564.72 1267.11C1559.66 1265.67 1545.22 1258.25 1539.43 1254.12C1531.25 1248.28 1525.4 1241.57 1521.74 1233.81C1519.03 1228.08 1518.79 1226.79 1519.21 1219.81C1519.66 1212.31 1521.78 1206.58 1526.52 1200.03C1528.03 1197.94 1527.99 1197.93 1516.27 1197.31C1477.04 1195.23 1434.99 1179.94 1395.12 1153.28C1363.45 1132.11 1329.73 1099.5 1306.66 1067.74L1300.5 1059.26L1299.76 1065.15C1297.7 1081.54 1291.34 1091.27 1271.64 1108.19C1258.53 1119.44 1253.43 1125.28 1249.77 1133.22C1246.42 1140.48 1246.64 1155.09 1250.27 1166.05L1252.9 1173.97L1246.37 1167.55C1230.27 1151.71 1211.43 1126.71 1202.35 1109.12C1196.5 1097.79 1191.46 1083.69 1189.06 1071.93C1186.63 1060 1186.35 1041.86 1188.43 1031.13C1190.06 1022.7 1189.78 1022.36 1181.45 1022.94C1169.11 1023.8 1165.17 1028.72 1164.1 1044.59L1163.46 1054.13L1151.42 1030.13C1137.06 1001.48 1134.07 993.052 1133.29 979.008C1132.63 967.092 1134.58 959.002 1140.47 949.228C1142.43 945.984 1143.81 943.104 1143.54 942.83C1142.62 941.917 1129.82 945.573 1126.29 947.757C1122.28 950.238 1117 957.066 1117 959.778C1117 960.796 1116.66 961.626 1116.25 961.623C1114.76 961.614 1103.59 943.064 1097.96 931.232C1086.56 907.294 1083.55 889.019 1088.82 875.628C1092.08 867.334 1100.16 861.125 1111.54 858.161C1122.82 855.22 1147.17 856.754 1159.5 861.182C1162.36 862.208 1144.22 843.906 1133.22 834.658C1098.77 805.691 1064.41 794.628 1025.73 800.052C986.26 805.587 961.113 821.96 951.921 848.111C944.941 867.972 948.18 892.883 960.635 915.128C998.887 983.445 1070.31 1060.35 1152 1121.2C1286.31 1221.25 1459.7 1296.38 1657.02 1340.06C1907.79 1395.56 2188.21 1395.56 2438.98 1340.06C2636.33 1296.38 2809.67 1221.26 2944 1121.2C3006.3 1074.8 3062.29 1019.72 3102.15 965.615C3117 945.473 3135.18 917.103 3142.36 902.891C3146.29 895.1 3148.45 883.555 3148.39 870.628C3148.34 860.724 3147.94 857.969 3145.5 850.776C3136.89 825.376 3115.28 809.386 3080.51 802.676C3039.94 794.847 3006.56 803.07 2971.21 829.603C2963.44 835.428 2935.52 861.485 2936.26 862.218C2936.42 862.382 2939.92 861.608 2944.03 860.498C2953.26 858.004 2974 856.927 2982.39 858.505C2995.13 860.9 3003.32 866.726 3007.85 876.609C3015.17 892.59 3007.03 922.909 2987.12 953.873C2984.03 958.683 2981.28 962.619 2981 962.619C2980.72 962.62 2979.66 960.581 2978.64 958.088C2976.59 953.119 2972.77 949.711 2965.95 946.777C2961.45 944.843 2952.64 943.246 2953.2 944.466C2953.36 944.83 2955.16 948.055 2957.2 951.632C2965.87 966.885 2966.22 983.034 2958.32 1004.13C2956.88 1007.98 2950.71 1021.03 2944.61 1033.13L2933.52 1055.13L2932.86 1045.9C2931.7 1029.61 2927.21 1024.19 2914.84 1024.15C2911.17 1024.14 2907.95 1024.35 2907.69 1024.63C2907.42 1024.9 2907.81 1028.28 2908.56 1032.13C2911.97 1049.63 2909.55 1073.11 2902.35 1092.59C2893.36 1116.87 2873.66 1145.91 2851.14 1168.05L2844.1 1174.97L2846.71 1167.05C2848.77 1160.78 2849.33 1157.04 2849.41 1149.11C2849.49 1139.76 2849.29 1138.65 2846.3 1132.58C2843 1125.89 2836.9 1119.42 2818.07 1102.67C2805.33 1091.33 2798.6 1079.48 2797.09 1065.74L2796.5 1060.31L2788.83 1070.77C2784.61 1076.53 2776.25 1086.84 2770.25 1093.68C2733.18 1135.99 2688.42 1168.05 2642.64 1185.07C2622.43 1192.59 2592.96 1198.63 2576.45 1198.63C2572.73 1198.63 2570 1199.06 2570 1199.65C2570 1200.21 2571.11 1202.35 2572.46 1204.4C2583.56 1221.22 2577.83 1240.66 2557.49 1255.17C2551.56 1259.4 2533.53 1268.63 2531.19 1268.63C2530.56 1268.63 2530.98 1266.66 2532.2 1263.9C2534.42 1258.89 2535.09 1250.26 2533.65 1245.13C2532.86 1242.29 2532.67 1242.56 2530.06 1250.3C2523.56 1269.61 2512.97 1278.68 2486.47 1287.64L2477.63 1290.63L2480.15 1287.88C2487.35 1280.04 2489.96 1272.62 2487.75 1266.28L2486.4 1262.42L2483.85 1266.28C2474.13 1280.97 2458.8 1289.63 2442.52 1289.63C2435.61 1289.63 2420.55 1286.49 2413.5 1283.58L2410.5 1282.35L2414.28 1281.5C2425.94 1278.88 2430.08 1273.2 2436.04 1251.63C2443.22 1225.66 2448.5 1219.44 2470.5 1210.99C2474.47 1209.47 2475.56 1208.55 2475.8 1206.55C2476.34 1201.91 2472.93 1200.13 2463.51 1200.13H2455.24L2456.19 1197.64C2460.59 1186.05 2471.28 1178.43 2487.59 1175.25C2491.94 1174.4 2497.53 1173.31 2500 1172.82L2504.5 1171.94L2500.78 1170.28C2498.74 1169.37 2494.93 1168.63 2492.32 1168.63H2487.57L2492.53 1163.6C2503.43 1152.53 2516.55 1151.07 2530.81 1159.34C2535.81 1162.23 2545.9 1171.7 2547.82 1175.3C2548.92 1177.35 2548.7 1177.53 2543.74 1178.56C2523.39 1182.82 2502.08 1198.42 2479.68 1225.44C2470.47 1236.55 2450.69 1262.67 2451.16 1263.08C2451.35 1263.24 2456.22 1258.15 2462 1251.77C2478.43 1233.6 2502.76 1209.65 2511.07 1203.44C2530.36 1189.04 2541.33 1185.89 2580 1183.66C2601.98 1182.4 2614.39 1180.49 2626.22 1176.57C2634.74 1173.75 2644.61 1169.21 2648.39 1166.37C2650.06 1165.11 2649.67 1165.04 2644.89 1165.72C2635.5 1167.05 2613.75 1166.71 2604.44 1165.09C2576.99 1160.3 2550.92 1144.58 2537.33 1124.63C2528.15 1111.14 2523.96 1098.48 2523.3 1082.13C2522.69 1067.24 2524.32 1058.76 2530.1 1046.76C2533.46 1039.78 2535.82 1036.58 2542.43 1030.03C2556.39 1016.2 2571.44 1010.52 2593.41 1010.77C2603.48 1010.88 2604.5 1011.02 2599.5 1011.6C2580.89 1013.75 2564.52 1025.31 2556.62 1041.87C2551.6 1052.41 2550.62 1056.84 2550.62 1069.13C2550.61 1078.51 2551.01 1081.28 2553.33 1087.96C2556.74 1097.8 2561.69 1105.59 2569.02 1112.63C2577.5 1120.78 2594.03 1130.01 2607.62 1134.19L2611.75 1135.46L2608.39 1130.47C2604.01 1123.95 2602.73 1118.86 2603.17 1109.66C2603.74 1097.72 2610 1087.74 2620.21 1082.51C2626.1 1079.49 2637.04 1078.82 2643.78 1081.06C2650.23 1083.2 2657.36 1090.54 2659.03 1096.75C2662.38 1109.18 2655.41 1120.63 2644.5 1120.63C2637.5 1120.63 2633.12 1115 2635.97 1109.68C2637.22 1107.35 2641.47 1106.27 2644.02 1107.64C2646.72 1109.08 2646.69 1106.77 2643.96 1103.3C2639.62 1097.79 2630.18 1099.37 2625.87 1106.33C2619.39 1116.82 2627.18 1132.47 2641.12 1136.98C2656 1141.78 2684.15 1136.76 2707.06 1125.2C2743 1107.08 2779.76 1069.75 2803.95 1026.81C2806.84 1021.69 2809 1017.29 2808.75 1017.04C2808.49 1016.79 2801.81 1018.63 2793.89 1021.12C2785.98 1023.62 2778.73 1025.9 2777.79 1026.2C2773.45 1027.57 2770.62 1010.55 2773.39 999.752C2776.93 985.934 2785.11 974.013 2805.7 952.635C2818.08 939.792 2819.01 938.579 2814.98 940.629C2807.73 944.317 2799.87 950.011 2794.25 955.649L2789 960.914V956.481C2789 950.656 2791.34 941.857 2794.61 935.403C2807.37 910.236 2843.69 885.409 2882.12 875.598C2886.58 874.459 2890.42 873.719 2890.66 873.954C2890.89 874.189 2887.94 879.22 2884.09 885.134C2870.33 906.267 2859.32 932.577 2854.16 956.628C2846.91 990.385 2847.63 1032.95 2856.17 1076.31L2858.5 1088.13L2859.12 1047.63C2859.91 995.924 2862.17 975.597 2870.5 945.209C2891.16 869.811 2952.63 796.864 3017.44 770.818C3030.06 765.746 3047.43 761.097 3058.13 759.926L3065.43 759.128L3056.86 755.875C3013.79 739.537 2981.21 712.635 2969.46 683.712C2960.96 662.807 2962.6 637.81 2973.72 618.628C2978.37 610.607 2993.45 595.329 3001.22 590.773C3014.67 582.885 3027.7 579.624 3045.71 579.636C3073.1 579.653 3091.11 586.473 3107.52 603.032C3116.82 612.419 3122.64 622.546 3125.92 635.067C3128.44 644.697 3128.7 659.474 3126.49 668.168C3119.17 696.948 3092.47 715.855 3070.74 707.652C3060.05 703.617 3054.01 694.695 3055.46 685.072C3056.5 678.114 3061.1 673.517 3067.65 672.888C3072.21 672.449 3073.01 672.7 3076.31 675.593C3080.54 679.313 3081.76 683.788 3080 689.14C3078.27 694.371 3073.91 696.843 3067.27 696.353C3062.73 696.017 3062.2 696.163 3063.27 697.456C3065.72 700.414 3072.37 702.584 3079.05 702.606C3094.41 702.658 3108.84 689.214 3111.95 671.951C3114.91 655.536 3105.84 635.315 3090.08 623.188C3078.61 614.365 3065.95 609.872 3050 608.968C3032.35 607.968 3018.99 612.496 3008.43 623.059C2998.83 632.665 2994 644.978 2994 659.883C2994 670.107 2996.22 679.04 3001.52 690.128C3016.99 722.493 3053.78 747.417 3107.57 761.978C3133.29 768.94 3149.44 777.383 3164.5 791.744L3170.5 797.466L3170.53 776.297C3170.57 757.177 3170.83 753.87 3173.29 742.128C3177.46 722.243 3183.8 711.44 3205.73 686.883C3211.01 680.968 3216.72 674.574 3218.41 672.676C3223.06 667.48 3206.5 682.36 3196.63 692.254C3178.78 710.15 3168.07 728.345 3168.01 740.878C3168 744.332 3167.25 744.319 3162.36 740.777C3153.97 734.699 3149 726.455 3149 718.628C3149 713.203 3151.35 707.425 3154.85 704.262C3156.9 702.411 3156.92 702.431 3158.08 707.029C3158.72 709.577 3159.58 711.868 3159.99 712.12C3160.4 712.372 3161.03 709.228 3161.4 705.132C3162.66 691.314 3166.62 682.891 3173.76 678.885L3177.5 676.789V682.297C3177.5 686.9 3177.89 688.124 3179.89 689.742C3182.1 691.532 3182.42 691.556 3184.07 690.065C3185.05 689.177 3186.17 686.577 3186.55 684.289C3188.19 674.405 3194.62 667.201 3205.97 662.535C3226.61 654.046 3229.44 651.968 3230.65 644.425C3231.28 640.458 3231.32 640.425 3232.61 642.753C3236 648.872 3238.41 658.349 3238.42 665.628C3238.43 675.191 3235.23 682.583 3228.05 689.581C3223.51 693.997 3223.21 694.559 3225.02 695.136C3228.45 696.223 3233.04 694.587 3237.27 690.774L3241.31 687.128L3240.59 690.964C3239.44 697.14 3235.42 708.233 3232.58 713.077C3229.55 718.248 3225.14 721.88 3217.15 725.775L3211.5 728.528L3216.5 728.556C3219.36 728.572 3223.32 727.758 3225.75 726.655C3228.09 725.594 3230 724.854 3230 725.012C3230 726.717 3225.25 739.155 3223.28 742.628C3213.8 759.275 3201.57 765.002 3188.78 758.775C3186.18 757.511 3183.61 756.752 3183.06 757.088C3179.51 759.283 3179 779.996 3182.04 798.628C3184.39 813.066 3185.54 817.114 3190.44 828.22C3194.21 836.792 3198 850.075 3198 854.753C3198 859.495 3200.36 859.985 3219.95 859.32C3246.1 858.433 3265.86 854.17 3283 845.721C3305.65 834.551 3317 822.283 3317 808.957C3317 797.97 3309.87 789.425 3300.54 789.223C3293.15 789.063 3287.84 794.873 3289.47 801.343L3290.12 803.973L3292.6 801.301C3295.55 798.118 3299.23 797.856 3302 800.628C3304.39 803.019 3304.53 805.695 3302.48 809.661C3300.48 813.54 3296.2 815.628 3290.25 815.628C3279.96 815.628 3272 806.369 3272 794.4C3272 783.711 3277.31 775.57 3287.58 770.516C3298.18 765.294 3309.94 766.366 3320.31 773.5C3327.95 778.756 3333.98 790.136 3334.02 799.389L3334.04 804.128L3335.97 801.628C3339.76 796.718 3346.92 781.971 3350.03 772.712C3358.24 748.199 3353.16 725.467 3335.59 708.127C3316.66 689.439 3288.44 685.532 3267.5 698.7L3262.5 701.844L3265.5 698.648C3270.48 693.345 3284.33 684.735 3293.18 681.449C3299.97 678.925 3303.48 678.264 3312.27 677.862C3332.76 676.925 3347.29 682.778 3362.66 698.151C3370.64 706.145 3372.46 708.64 3376.88 717.721C3385.32 735.068 3387.72 751.205 3384.55 769.245C3379.39 798.551 3360.54 826.139 3333.18 844.407C3322.51 851.537 3323.16 852.044 3338.14 848.245C3355.09 843.944 3365.56 838.144 3399.17 814.44C3411.3 805.883 3424.71 798.669 3433.5 795.97C3442.69 793.15 3479.11 793.393 3499 796.406C3528.79 800.92 3540.53 802.617 3541.5 802.55C3543.35 802.423 3507.65 793.635 3492.5 790.489C3479.96 787.884 3474.51 787.293 3459.25 786.879C3443.02 786.438 3439.96 786.622 3431.69 788.532C3426.58 789.713 3419.57 792.018 3416.11 793.654C3412.65 795.29 3409.64 796.628 3409.41 796.628C3409.18 796.628 3409 794 3409 790.788C3409 783.474 3412.23 770.619 3415.45 765.131C3418.47 759.967 3425.04 753.937 3429.86 751.888C3433.88 750.179 3443.86 749.674 3448.45 750.947L3451.4 751.766L3448.17 754.291C3445.36 756.489 3440.08 764.628 3441.46 764.628C3441.74 764.628 3444.89 762.836 3448.47 760.645C3461.07 752.934 3474.23 748.847 3482.29 750.144C3484.61 750.516 3489.13 751.983 3492.35 753.405L3498.2 755.991L3494.11 757.915C3486.75 761.378 3481.2 769.753 3484.01 773.141C3485.81 775.304 3489.85 774.974 3497.63 772.029C3503.6 769.772 3505.62 769.489 3513 769.874C3523.67 770.43 3528.61 772.601 3543.7 783.365C3549.86 787.758 3556.61 792.173 3558.7 793.177C3564.57 795.995 3572.8 796.254 3578.36 793.794C3580.91 792.665 3583 791.96 3583 792.229C3583 793.911 3571.7 809.048 3567.03 813.628C3554.11 826.297 3537.16 830.553 3518.75 825.752C3515.04 824.784 3512 824.382 3512 824.86C3512 826.814 3515.12 831.552 3518.01 833.984C3521.2 836.669 3529.44 839.605 3533.93 839.658C3537.69 839.703 3535.33 840.827 3522.78 844.973C3507.92 849.883 3497.88 851.32 3489.38 849.754C3482.7 848.523 3474.7 845.003 3467.71 840.223C3465.62 838.796 3463.7 837.628 3463.44 837.628C3463.17 837.628 3463.83 839.316 3464.9 841.378C3467.3 846.038 3473.28 851.796 3478.34 854.338L3482.18 856.265L3477.04 857.927C3460.15 863.379 3440 864.1 3428.58 859.659C3417.31 855.276 3409.92 845.494 3408.29 832.784L3407.5 826.659L3399.08 832.679C3382.02 844.892 3362.55 854.547 3339.5 862.238L3326.5 866.575L3659.75 866.601L3993 866.628V484.628V102.628H2048H103V484.628Z" fill="#0000FF"/>
</svg>
