<svg width="4095" height="1738" viewBox="0 0 4095 1738" fill="none" xmlns="http://www.w3.org/2000/svg">
<path d="M962 166L1232 94L1496 55.5L1766 24.5L2050 10.5L2330.5 24.5L2598.5 51L2874.5 102.5L3142.5 163.5L3076.5 341.5L3567 473L4074 653L3739 1228L3492 1143L3468 1251.5L3371 1268.5L3169 1192.05L3298.5 1089.5L3110 1050L3230.2 1160.5L3055 1251.5V1107L2918 1030.5L2906 1042.5L3020 1224L3055 1251.5L2851 1356L2671.08 1310.5L2598.5 1058L2671.08 957.5L2569 938H2437L2510 1005.5L2566 1052.5L2598.5 1058H1522L1679.5 938L1420 957.5L1522 1058H2598.5L2679.5 1290.5L2598.5 1483L2377 1660.5L2064.5 1718L1752 1660.5L1496 1483L1444.5 1325.5L1299.5 1356L1201.5 1336.5L1075 1262L1138.5 1141L1210 1032L1106 1088.5L1029 1163.5L988 1209.5L908 1145.5L1000 1054L846.5 1083.5L831.5 1109.5L908 1145.5L988 1209.5L794.5 1262L702 1269.5L647 1227.5V1133L369 1227.5L35.5 656.5L479.5 481L1031.5 337.5L962 166Z" fill="white"/>
<path fill-rule="evenodd" clip-rule="evenodd" d="M1955.34 0.981654C1643.65 7.79565 1325.69 53.6266 1016.84 136.256C980.469 145.988 926.61 161.287 925.77 162.127C925.272 162.626 930.507 175.886 957.85 243.386C961.86 253.286 969.879 273.086 975.67 287.386C981.461 301.686 988.932 320.107 992.272 328.321C995.612 336.535 998.345 343.34 998.345 343.443C998.345 343.546 996.432 343.933 994.095 344.304C982.939 346.071 885.911 367.062 845.345 376.485C566.309 441.299 288.394 530.308 25.8446 638.947C0.850641 649.29 -0.161359 649.746 0.0146408 650.591C0.108641 651.04 5.90764 661.078 12.9006 672.897C19.8946 684.716 43.1686 724.086 64.6216 760.386C86.0736 796.686 124.646 861.936 150.337 905.386C242.337 1060.98 291.575 1144.3 325.847 1202.39C344.994 1234.84 360.796 1261.55 360.962 1261.76C361.128 1261.97 377.144 1256.04 396.554 1248.59C455.455 1225.97 507.053 1207.21 557.845 1189.94C571.045 1185.45 583.589 1181.11 585.72 1180.29C587.851 1179.47 589.755 1178.96 589.951 1179.16C590.147 1179.35 590.99 1183.08 591.824 1187.44C599.171 1225.84 622.993 1257.95 656.99 1275.27C701.918 1298.17 762.877 1295.81 834.345 1268.42C864.676 1256.79 884.696 1250.83 906.345 1247C960.617 1237.4 1007.89 1245.24 1058.84 1272.29C1075.31 1281.03 1088.07 1288.97 1125.21 1313.6C1167.93 1341.93 1183.55 1351.39 1205.84 1362.4C1232.27 1375.46 1258.64 1383.48 1288.34 1387.51C1303.43 1389.55 1334.37 1389.81 1348.84 1388.01C1371.73 1385.16 1396.03 1378.89 1414.13 1371.16C1418.68 1369.21 1422.56 1367.79 1422.74 1368C1422.92 1368.21 1424.97 1374.91 1427.29 1382.89C1458.46 1489.87 1547.51 1587.05 1673.84 1651.97C1920.88 1778.91 2260.96 1763.72 2482.34 1615.86C2565.83 1560.1 2626 1490.28 2656.9 1413.3C2662.69 1398.87 2669.84 1376.07 2672.78 1362.65L2674.47 1354.92L2679.66 1357.95C2701.13 1370.5 2725.77 1379.7 2751.34 1384.72C2784.63 1391.25 2821 1390.9 2854.34 1383.73C2896.93 1374.57 2925.48 1360.17 3000.77 1309.91C3016.21 1299.59 3034.24 1287.9 3040.84 1283.93C3055.91 1274.85 3083.73 1261.13 3096.8 1256.35C3122.56 1246.91 3152.49 1242.13 3178.84 1243.23C3212.38 1244.64 3237.71 1250.49 3283.32 1267.36C3307.45 1276.29 3317.07 1279.37 3332.84 1283.24C3409.06 1301.91 3471.29 1286.13 3505.95 1239.35C3515.75 1226.11 3523.85 1208.48 3527.36 1192.71L3528.63 1187.04L3551.24 1194.85C3600.6 1211.91 3642.98 1227.41 3698.14 1248.59C3717.55 1256.04 3733.56 1261.97 3733.73 1261.76C3733.9 1261.55 3758.35 1220.21 3788.06 1169.89C3864.81 1039.9 3905.47 971.092 3945.83 902.886C3965.2 870.161 3997.25 815.936 4017.06 782.386C4036.87 748.836 4062.4 705.65 4073.79 686.418C4085.17 667.185 4094.57 651.072 4094.67 650.612C4094.85 649.745 4093.87 649.303 4068.84 638.947C3806.33 530.323 3528.34 441.29 3249.34 376.485C3208.78 367.062 3111.75 346.071 3100.59 344.304C3098.26 343.933 3096.34 343.546 3096.34 343.443C3096.34 343.34 3099.08 336.535 3102.42 328.321C3105.76 320.107 3113.23 301.686 3119.02 287.386C3124.81 273.086 3132.83 253.286 3136.84 243.386C3164.18 175.886 3169.42 162.626 3168.92 162.127C3168.08 161.287 3114.22 145.988 3077.84 136.256C2708.42 37.4186 2336.86 -7.35835 1955.34 0.981654ZM2189.84 32.2927C2211.29 33.1397 2237.17 34.2967 2247.34 34.8637C2257.52 35.4307 2270.12 36.1327 2275.34 36.4227C2544.3 51.3717 2833.24 99.2966 3099.34 173.094C3113.37 176.983 3125.87 180.383 3127.12 180.648C3129.93 181.243 3130.55 179.234 3118.35 209.386C3113.01 222.586 3104.46 243.736 3099.34 256.386C3094.23 269.036 3082.23 298.689 3072.67 322.281C3063.12 345.873 3055.42 365.287 3055.57 365.423C3055.72 365.558 3067.54 368.017 3081.84 370.886C3240.23 402.663 3383.39 438.076 3546.84 485.913C3650.33 516.201 3783.75 560.909 3893.99 602.241C3957.9 626.2 4050.54 662.968 4051.08 664.585C4051.25 665.106 4030.4 701.049 4004.74 744.459C3979.08 787.869 3941.34 851.736 3920.88 886.386C3900.41 921.036 3853.61 1000.24 3816.87 1062.39C3780.12 1124.54 3743.55 1186.41 3735.58 1199.89C3727.62 1213.36 3720.96 1224.54 3720.79 1224.73C3720.62 1224.92 3708.64 1220.57 3694.17 1215.05C3621.61 1187.41 3539.63 1158.48 3477.24 1138.5L3460.63 1133.19L3464.86 1141.48C3471.61 1154.71 3473.8 1163.98 3473.8 1179.39C3473.81 1189.13 3473.34 1194.01 3471.93 1198.89C3466.35 1218.22 3452.87 1234.52 3435.34 1243.14C3415.86 1252.72 3391.12 1257.45 3365.34 1256.53C3332.31 1255.36 3301.78 1247.21 3267.67 1230.46C3241.91 1217.82 3233.02 1211.92 3130.84 1139.78C3000.1 1047.46 2925.77 1004.36 2881.84 995.382C2827.64 984.303 2768.24 994.755 2725.82 1022.84C2713.7 1030.86 2706.68 1036.76 2695.71 1048.15C2648.9 1096.75 2640.55 1164.87 2674.08 1224.67C2697.57 1266.56 2724.54 1287.46 2767.53 1297.07C2776.55 1299.09 2780.55 1299.38 2799.34 1299.38C2817.82 1299.38 2822.44 1299.06 2832.17 1297.09C2854.62 1292.54 2876.81 1283.26 2891.84 1272.13C2901.2 1265.2 2914.24 1251.84 2919.69 1243.58C2925.09 1235.4 2931.04 1222.31 2933.51 1213.17C2936.35 1202.65 2936.56 1181.16 2933.94 1168.94C2928.57 1143.89 2918.95 1125.3 2903.37 1109.89C2886.57 1093.26 2871.92 1087.98 2845.84 1089.19C2818.53 1090.45 2797.46 1100.91 2788.59 1117.59C2785.25 1123.89 2782.34 1135.98 2782.35 1143.59C2782.36 1155.25 2786.89 1174.72 2792.94 1189.11C2798.55 1202.44 2793.19 1213.89 2781.34 1213.89C2772.56 1213.89 2767.88 1208.48 2761.71 1191.22C2747.84 1152.41 2750.7 1115.06 2769.28 1092.59C2785.89 1072.48 2816.39 1061.63 2851.84 1063.19C2887.52 1064.77 2909.48 1073.73 2929.86 1095.01C2965.45 1132.18 2976.34 1191.28 2956.25 1238.28C2935.66 1286.44 2888.8 1319.11 2827.56 1328C2815.16 1329.8 2809.94 1330.05 2794.34 1329.6C2764.79 1328.75 2742.08 1323.34 2718.76 1311.59C2693.75 1299 2669.78 1275.71 2651.73 1246.47C2649.15 1242.28 2646.84 1239.05 2646.61 1239.29C2646.37 1239.52 2646.9 1244.23 2647.77 1249.75C2650.26 1265.37 2651.31 1289.86 2650.27 1308.07C2645.15 1398.29 2598.97 1482.57 2515.84 1553.38C2424.43 1631.25 2296.7 1683.51 2154.23 1701.34C2114.87 1706.26 2096.11 1707.31 2047.34 1707.31C1998.58 1707.31 1979.82 1706.26 1940.46 1701.34C1761.1 1678.9 1606.17 1601.75 1517.83 1490.89C1479.71 1443.04 1456.28 1391.82 1447.37 1336.84C1445.02 1322.3 1443.11 1292.88 1444.01 1284.89L1444.63 1279.39L1437.74 1285.93C1407.47 1314.68 1367.38 1329.81 1321.32 1329.87C1239.9 1329.97 1173.69 1284.77 1157.3 1217.89C1154.23 1205.4 1153.94 1180.08 1156.69 1166.89C1165.62 1124.17 1190.86 1089.02 1223.77 1073.46C1239.3 1066.12 1255.69 1062.9 1277.46 1062.89C1307.75 1062.88 1328.83 1070.32 1345.38 1086.86C1354.98 1096.44 1360.67 1106.06 1364.36 1118.91C1367.34 1129.31 1368.1 1149.98 1365.98 1162.9C1362.8 1182.24 1355.45 1202.71 1349.31 1209.29C1346.1 1212.73 1345.02 1213.24 1340.26 1213.6C1336.07 1213.91 1334.12 1213.54 1331.65 1211.99C1324.09 1207.24 1323.05 1199.38 1328.3 1186.89C1333.82 1173.79 1336.55 1161.71 1337.1 1147.99C1337.89 1128.25 1334.53 1117.92 1323.87 1107.37C1312.49 1096.09 1296.06 1090.11 1273.84 1089.19C1248.01 1088.11 1231.85 1094.09 1215.58 1110.77C1195.28 1131.57 1183.27 1164.35 1184.61 1195.26C1185.25 1209.89 1188.3 1221.3 1194.89 1233.73C1212.02 1265.98 1243.17 1287.28 1287.34 1296.92C1301.16 1299.94 1329.01 1300.7 1344.11 1298.47C1378.13 1293.45 1405.68 1278.83 1425.14 1255.48C1445.85 1230.61 1459.26 1202.84 1464.44 1174.09C1467 1159.92 1467.01 1138.9 1464.46 1124.8C1453.11 1061.88 1400.46 1011.64 1329.36 995.879C1317.43 993.235 1295.83 990.911 1283.07 990.897C1271.43 990.884 1246.47 993.37 1237.34 995.45C1217.1 1000.06 1193.18 1010.38 1160.34 1028.66C1109.66 1056.87 1068.68 1083.85 959.345 1161.01C881.187 1216.17 864.878 1226.35 835.494 1238.36C787.95 1257.78 743.988 1261.8 703.832 1250.41C666.758 1239.89 646.417 1214.72 646.362 1179.3C646.335 1161.48 651.891 1144.68 662.935 1129.21C665.416 1125.73 667.129 1122.89 666.741 1122.89C665.501 1122.89 598.83 1144.47 569.845 1154.26C516.749 1172.19 445.537 1197.6 432.345 1203.32C428.22 1205.12 423.495 1206.91 421.845 1207.31C420.195 1207.71 408.804 1211.88 396.532 1216.57C384.26 1221.26 374.078 1224.93 373.905 1224.74C373.732 1224.54 367.073 1213.36 359.108 1199.89C351.142 1186.41 314.563 1124.54 277.821 1062.39C241.079 1000.24 195.872 923.736 177.361 892.386C83.5416 733.498 57.4416 689.334 50.6656 678.013C46.5926 671.207 43.4106 665.189 43.5936 664.639C44.1486 662.973 135.752 626.59 200.695 602.241C310.937 560.909 444.358 516.201 547.845 485.913C711.297 438.076 854.457 402.663 1012.84 370.886C1027.14 368.017 1038.97 365.558 1039.12 365.423C1039.27 365.287 1031.57 345.873 1022.01 322.281C1012.46 298.689 1000.46 269.036 995.345 256.386C990.233 243.736 981.68 222.586 976.34 209.386C964.141 179.234 964.755 181.243 967.566 180.648C968.82 180.383 981.32 176.983 995.345 173.094C1200.66 116.156 1415.71 75.1107 1627.34 52.4707C1745.1 39.8737 1826.54 34.5917 1966.34 30.4827C1996.04 29.6097 2154.38 30.8927 2189.84 32.2927ZM1970.34 75.4957C1878.87 78.0607 1823.9 80.6696 1760.84 85.4417C1569.61 99.9107 1387.76 126.833 1199.84 168.495C1156.65 178.072 1125.11 185.811 1122.61 187.446C1117.52 190.782 1104.76 203.731 1099.18 211.22C1088.59 225.441 1082.56 238.396 1078.27 256.164C1075.3 268.442 1075.03 290.877 1077.72 301.386C1080.32 311.525 1088.3 327.322 1094.78 335.124C1115.14 359.667 1148.35 372.009 1180.13 366.851C1213.35 361.46 1242.41 336.124 1251.39 304.715C1254.03 295.475 1255.03 278.483 1253.4 270.623C1248.33 246.263 1224.89 227.916 1198.84 227.916C1173.5 227.916 1151.04 244.836 1144.93 268.53C1140.91 284.121 1144.66 295.014 1155.9 300.344C1161.79 303.14 1172.05 302.177 1177.55 298.311C1183.1 294.417 1186.18 288.739 1187 280.914C1187.73 273.946 1190.25 269.997 1195.3 267.902C1201.1 265.5 1208.49 269.989 1210.4 277.077C1212.73 285.751 1207.72 301.63 1199.75 310.798C1190.54 321.393 1177.86 326.41 1162.05 325.718C1153.59 325.348 1151.78 324.909 1145.12 321.62C1135.29 316.762 1128.48 309.962 1123.65 300.185C1119.87 292.547 1119.84 292.401 1119.87 280.438C1119.9 266.621 1121.5 259.198 1126.8 248.358C1135.73 230.088 1151.73 215.872 1172.89 207.402C1183.26 203.253 1191.47 202.278 1204.18 203.685C1215.88 204.98 1219.41 204.641 1239.84 200.257C1278.25 192.019 1323.54 175.188 1380.84 147.863C1407.55 135.127 1414.34 132.485 1414.34 134.829C1414.34 135.638 1363.62 196.928 1353.47 208.386C1338.83 224.906 1315.94 233.832 1287.98 233.922L1276.84 233.958L1288.84 238.772C1319.43 251.042 1334.93 263.037 1338.33 277.065C1338.9 279.442 1340.72 291.286 1342.37 303.386C1344.02 315.486 1345.64 326.849 1345.97 328.636C1346.31 330.511 1346.15 331.886 1345.58 331.886C1345.04 331.886 1339.25 323.679 1332.72 313.648C1316.11 288.142 1302.29 270.004 1288.8 256.008C1278.72 245.553 1264.05 232.886 1262.03 232.886C1261.65 232.886 1262.91 235.062 1264.82 237.721C1269.76 244.591 1273.99 254.111 1276.47 263.904C1278.33 271.254 1278.53 274.171 1278.05 286.369C1277.37 303.544 1274.56 314.838 1267.33 329.386C1261.19 341.75 1254.97 350.097 1244.18 360.436C1220.98 382.669 1192.89 392.994 1159.46 391.58C1134.09 390.508 1113.34 382.765 1092.69 366.663L1086.53 361.864L1093.94 380.044C1098.01 390.044 1101.11 398.456 1100.83 398.738C1100.54 399.021 1083.11 402.715 1062.08 406.949C989.318 421.597 973.722 424.796 945.845 430.789C850.419 451.306 732.345 480.251 653.845 502.37C514.655 541.59 411.965 574.02 295.345 615.584C264.515 626.572 185.684 655.656 184.523 656.471C184.346 656.595 185.974 659.327 188.142 662.542C209.522 694.243 198.039 737.065 163.663 753.826C160.132 755.548 155.916 757.222 154.294 757.546C152.672 757.871 151.345 758.537 151.345 759.028C151.345 759.876 163.204 780.034 256.858 938.386C278.977 975.786 308.213 1025.29 321.826 1048.39C335.438 1071.49 348.809 1094.11 351.538 1098.65L356.5 1106.92L362.912 1101.05C370.031 1094.52 380.736 1088.69 389.805 1086.39C397.576 1084.43 412.908 1084.46 420.621 1086.46C432.786 1089.61 445.503 1097.65 453.285 1107.1C458.829 1113.84 464.822 1126.53 466.406 1134.89C467.084 1138.46 467.729 1141.51 467.84 1141.65C467.952 1141.8 480.148 1137.65 494.944 1132.43C823.028 1016.75 1173.99 936.3 1517.84 897.952C1703.14 877.287 1861.61 868.46 2047.34 868.46C2233.08 868.46 2391.55 877.287 2576.84 897.952C2918.11 936.011 3270.52 1016.51 3592.82 1130.03C3608.21 1135.45 3621.09 1139.89 3621.44 1139.89C3621.8 1139.89 3622.63 1137.09 3623.3 1133.68C3627.24 1113.7 3639.48 1097.1 3656.58 1088.54C3666.38 1083.63 3673.93 1081.89 3685.31 1081.89C3703 1081.89 3716.11 1087.42 3729.07 1100.37L3737.3 1108.59L3760.97 1068.49C3773.98 1046.43 3805.65 992.836 3831.34 949.386C3933.03 777.393 3943.5 759.637 3943.94 758.488C3944.23 757.75 3941.83 756.467 3937.62 755.11C3916.98 748.45 3900.24 730.067 3895.82 709.201C3892.18 692.012 3895.72 674.264 3905.7 659.664C3907.1 657.618 3907.93 655.75 3907.55 655.514C3906.41 654.82 3848.88 633.427 3823.34 624.205C3695.55 578.051 3589.1 544.146 3440.84 502.37C3362.34 480.251 3244.27 451.306 3148.84 430.789C3120.97 424.796 3105.37 421.597 3032.61 406.949C3011.58 402.715 2994.15 399.021 2993.86 398.738C2993.58 398.456 2996.68 390.049 3000.75 380.055C3004.82 370.062 3007.97 361.886 3007.75 361.886C3007.53 361.886 3004.54 364.169 3001.1 366.96C2988.64 377.064 2972.87 384.77 2955.8 389.095C2943.94 392.098 2916 392.396 2904.67 389.64C2881.82 384.084 2863.18 373.861 2847.8 358.446C2833.33 343.942 2823.99 327.45 2818.64 306.96C2815.11 293.446 2814.88 272.984 2818.14 261.577C2820.69 252.651 2823.89 245.942 2829.64 237.462L2833.65 231.539L2828.86 234.962C2808.02 249.835 2789.14 271.792 2762.88 311.707C2755.99 322.19 2749.9 331.046 2749.34 331.386C2747.88 332.294 2748.01 330.805 2751.92 302.899C2755.65 276.233 2756.87 271.804 2762.37 264.86C2769.15 256.296 2786.67 245.866 2807.84 237.792L2817.84 233.979L2806.18 233.933C2782.55 233.838 2762.54 227.483 2747.78 215.383C2744.64 212.811 2701.02 161.492 2681.52 137.424C2676.39 131.097 2681.19 132.662 2712.84 147.641C2778.66 178.782 2826.5 195.817 2868.11 202.931C2878.58 204.721 2880.83 204.802 2889.6 203.708C2906.16 201.641 2917.78 204.274 2935.07 214.012C2944.4 219.26 2959.16 233.524 2964.27 242.227C2972.27 255.858 2976.63 275.656 2974.42 288.347C2971.9 302.86 2962.38 315.364 2948.84 321.971C2942.02 325.302 2941.54 325.386 2929.34 325.386C2917.38 325.386 2916.56 325.251 2910.11 322.204C2902.52 318.622 2893.42 310.585 2889.63 304.114C2883.74 294.057 2881.72 280.635 2885.1 273.886C2887.62 268.841 2893.27 266.247 2898.39 267.782C2903.62 269.347 2906.37 273.491 2907.33 281.254C2908.21 288.395 2909.93 292.216 2914.01 296.083C2925.93 307.409 2946.27 301.643 2950.47 285.746C2952.12 279.521 2949.52 265.92 2945.07 257.421C2940.65 248.992 2929.5 238.023 2921.34 234.075C2898.24 222.896 2873.29 226.822 2855.62 244.411C2840.31 259.658 2836.14 278.023 2842.4 302.641C2849.77 331.676 2873.08 355.119 2903.89 364.505C2911.98 366.967 2914.39 367.238 2928.84 367.299C2947.54 367.379 2954.78 365.804 2969.84 358.375C2991.78 347.559 3008.21 328.314 3015.51 304.886C3017.57 298.265 3017.84 295.393 3017.84 280.386C3017.84 261.872 3016.85 255.818 3011.36 240.757C3004.54 222.077 2991.68 203.935 2976.41 191.436L2969.57 185.847L2944.71 179.942C2786.42 142.353 2618.06 113.623 2455.34 96.4347C2362.4 86.6167 2275.07 80.5036 2175.34 76.8336C2148.04 75.8287 1994.26 74.8257 1970.34 75.4957ZM3015.34 197.414C3015.34 197.648 3017.4 200.887 3019.92 204.612C3031.71 222.074 3040.26 246.543 3042.16 268.265L3042.84 276.144L3055.79 244.043C3062.91 226.387 3068.53 211.743 3068.29 211.5C3068.04 211.258 3057.27 208.292 3044.34 204.911C3031.42 201.529 3019.61 198.363 3018.09 197.876C3016.58 197.389 3015.34 197.181 3015.34 197.414ZM1051.35 204.523C1037.88 208.106 1026.66 211.241 1026.41 211.49C1026.16 211.739 1031.56 225.858 1038.4 242.867C1050 271.698 1050.89 273.541 1051.52 270.089C1051.9 268.052 1052.97 261.886 1053.9 256.386C1057.2 236.97 1064.47 219.253 1076.76 200.636C1078.14 198.549 1078.25 197.901 1077.21 197.947C1076.46 197.98 1064.82 200.939 1051.35 204.523ZM1749.84 922.45C1683.2 926.971 1607.59 933.371 1561.34 938.406C1506.03 944.428 1471.87 948.48 1434.34 953.469C1404.8 957.397 1345.99 965.908 1345.58 966.315C1345.44 966.46 1350.06 967.81 1355.85 969.317C1413.32 984.27 1460.37 1020.65 1483.98 1068.39C1491.01 1082.6 1495.36 1095.03 1497.98 1108.34C1498.91 1113.08 1499.97 1116.6 1500.33 1116.17C1500.7 1115.74 1503.2 1112.24 1505.89 1108.39C1528.25 1076.42 1567.78 1036.85 1604.8 1009.37C1651.4 974.775 1702.21 947.762 1766.34 923.486C1769.92 922.132 1771.94 921.056 1770.84 921.093C1769.74 921.131 1760.29 921.741 1749.84 922.45ZM2005.84 921.475C2003.64 921.679 1994.87 922.328 1986.34 922.918C1826.94 933.953 1677.75 994.241 1585.98 1084.7C1554.01 1116.22 1533.82 1143.19 1516.97 1176.89C1497.77 1215.29 1489.13 1250.92 1489.11 1291.89C1489.08 1331.94 1497.24 1366.3 1515.82 1404.39C1548.61 1471.6 1610.82 1532.11 1694.65 1578.32C1793.81 1632.99 1918.48 1662.88 2047.34 1662.88C2218.31 1662.88 2377.05 1611.14 2485.84 1519.94C2498.4 1509.42 2520.93 1487.3 2531.27 1475.35C2580.94 1417.92 2605.62 1356.97 2605.58 1291.89C2605.55 1250.92 2596.92 1215.29 2577.72 1176.89C2545.78 1113 2486.56 1054.53 2408.84 1010.13C2325.15 962.326 2228.84 933.794 2115.73 923.301C2100.01 921.843 2016.81 920.461 2005.84 921.475ZM2328.34 923.434C2386.79 946.018 2424.23 964.872 2466.84 993.195C2496.5 1012.9 2518.99 1031.39 2544.87 1057.32C2574.78 1087.3 2594.43 1113.12 2613.01 1146.89L2619.34 1158.39L2619.36 1142.39C2619.39 1119.29 2622.48 1101.85 2629.98 1082.39C2649.15 1032.7 2693.69 992.359 2750.12 973.588C2757.42 971.16 2763.59 968.978 2763.83 968.739C2764.3 968.259 2707.49 959.818 2666.95 954.347C2629.64 949.311 2589.26 944.493 2533.34 938.406C2485.08 933.151 2396.15 925.679 2348.84 922.902C2338.94 922.321 2328.82 921.638 2326.34 921.384L2321.84 920.923L2328.34 923.434ZM1617.79 963.722C1617.27 964.182 1611.67 968.084 1605.34 972.394C1582.74 987.799 1555.62 1009.55 1540.12 1024.7C1536.43 1028.32 1533.22 1031.08 1532.99 1030.83C1532.77 1030.59 1531.16 1027.56 1529.43 1024.1C1522.33 1009.94 1514.56 998.788 1501.64 984.219L1494.4 976.052L1498.12 975.472C1507.67 973.984 1608.9 963.208 1615.29 962.999C1617.23 962.936 1618.33 963.254 1617.79 963.722ZM2513.96 966.412C2533.15 968.351 2562.34 971.502 2578.84 973.414C2595.34 975.327 2611.09 977.142 2613.84 977.449C2624.4 978.626 2624.21 978.113 2616.94 986.082C2603.97 1000.3 2592.85 1017.98 2584.74 1037.3C2582.18 1043.4 2579.92 1048.57 2579.72 1048.8C2579.51 1049.03 2571.58 1041.6 2562.09 1032.28C2538.07 1008.68 2516.43 990.875 2489.34 972.401C2475.8 963.164 2475.45 962.886 2477.51 962.886C2478.37 962.886 2494.77 964.473 2513.96 966.412ZM1128.34 1004.45C1008.39 1029.13 909.149 1052.99 801.345 1083.09C783.47 1088.08 767.158 1092.6 765.095 1093.14C763.033 1093.69 761.345 1094.43 761.345 1094.81C761.345 1095.18 763.483 1096.52 766.095 1097.79C779.529 1104.29 791.15 1115.65 797.393 1128.39C804.797 1143.48 804.75 1157.45 797.244 1172.74C785.228 1197.22 755.003 1209.36 733.362 1198.39C720.059 1191.65 711.398 1175 711.36 1156.09C711.334 1143.22 716.443 1138.6 724.958 1143.79C729.798 1146.74 732.345 1153.08 732.345 1162.17C732.345 1169.24 732.57 1170.07 735.351 1173.24C739.64 1178.12 744.507 1180.14 752.04 1180.14C760.535 1180.14 766.606 1176.56 770.29 1169.4C772.537 1165.03 772.842 1163.23 772.818 1154.41C772.787 1142.62 771.993 1140.68 764.144 1133.26C750.34 1120.2 724.777 1114.03 709.764 1120.14C696.759 1125.42 685.054 1134.84 678.531 1145.26C672.982 1154.13 671.19 1159.37 670.611 1168.39C669.646 1183.43 674.226 1194.41 686.666 1206.86C694.665 1214.86 701.531 1218.78 713.872 1222.39C755.691 1234.61 805.528 1229.11 849.873 1207.38C872.476 1196.31 896.175 1179.39 955.845 1131.74C973.445 1117.69 995.345 1100.56 1004.51 1093.68C1037.55 1068.87 1103.57 1026.02 1139.34 1006.18C1144.57 1003.28 1147.94 1000.94 1146.84 1000.98C1145.74 1001.02 1137.42 1002.58 1128.34 1004.45ZM2993.87 1013.53C3027.21 1032.92 3090.47 1074.5 3116.34 1094.02C3125.42 1100.87 3147.48 1118.15 3165.36 1132.43C3221.33 1177.12 3246.13 1195 3266.69 1205.52C3309.07 1227.2 3357.32 1234.2 3397.84 1224.57C3417.64 1219.86 3426.01 1215.42 3436.33 1204.16C3453.67 1185.23 3454.64 1161.94 3438.94 1141.18C3430.96 1130.63 3414.82 1120.18 3403.17 1118.03C3385.37 1114.74 3356.14 1127.35 3349.43 1141.21C3347.82 1144.54 3347.35 1147.44 3347.35 1153.95C3347.36 1164.25 3348.41 1168.3 3352.29 1173.01C3356.34 1177.92 3361.29 1180.09 3368.47 1180.09C3380.18 1180.09 3389.11 1172.77 3387.95 1164.11C3386.99 1156.96 3389.02 1150.21 3393.45 1145.78C3396.41 1142.82 3398.14 1141.89 3400.67 1141.89C3408.28 1141.89 3410.97 1150.97 3408.01 1166.66C3403.7 1189.45 3389.91 1202.11 3369.34 1202.16C3336.61 1202.23 3310.76 1169.59 3318.88 1138.43C3322.12 1125.98 3332.64 1111.74 3344.79 1103.38C3347.85 1101.27 3350.23 1099.44 3350.09 1099.3C3349.75 1098.96 3312.45 1088.31 3284.34 1080.53C3216.12 1061.64 3135.97 1041.49 3071.22 1026.96C3041.05 1020.18 2988.4 1008.89 2987.01 1008.89C2986.39 1008.89 2989.48 1010.97 2993.87 1013.53ZM1186.33 1055.51C1154.7 1082.04 1126.14 1126.84 1092.36 1202.89C1081.69 1226.92 1078.71 1232.89 1077.41 1232.89C1076.56 1232.89 1075.34 1189.9 1075.37 1161.39C1075.39 1144.06 1075.59 1141.8 1077.72 1135.77C1084.09 1117.73 1101.99 1100.16 1135.61 1078.92C1144.74 1073.15 1192.66 1047.98 1194.63 1047.91C1195.06 1047.9 1191.32 1051.32 1186.33 1055.51ZM2953.1 1061.35C3003.87 1087.43 3032.32 1110.72 3042.31 1134.38L3044.84 1140.39L3044.51 1185.38C3044.32 1210.13 3043.8 1231.03 3043.36 1231.83C3042.14 1234 3039.79 1229.58 3028.22 1203.42C3003.9 1148.44 2982.52 1110.51 2960.46 1083.19C2952.82 1073.73 2935.56 1056.18 2928.34 1050.54L2924.84 1047.8L2930.79 1050.37C2934.06 1051.79 2944.1 1056.73 2953.1 1061.35ZM978.506 1071.64C974.973 1076.55 946.028 1104.34 939.088 1109.47C925.025 1119.88 910.546 1125.74 901.896 1124.54C899.668 1124.23 886.447 1120.35 872.516 1115.93C858.585 1111.51 846.971 1107.89 846.707 1107.89C846.443 1107.89 846.474 1107.49 846.775 1107C847.474 1105.87 850.298 1105.36 869.845 1102.89C918.717 1096.69 955.256 1086.11 974.845 1072.48C980.945 1068.23 980.953 1068.23 978.506 1071.64ZM3147.02 1073.54C3168.15 1087.06 3200.14 1096.14 3250.25 1102.86C3262.57 1104.51 3272.9 1106.11 3273.22 1106.43C3274.25 1107.46 3271.52 1108.46 3244.66 1116.89L3218.03 1125.24L3211.44 1124.11C3194.97 1121.29 3173.3 1105.88 3149.48 1080.04C3144.34 1074.45 3140.39 1069.89 3140.72 1069.89C3141.04 1069.89 3143.88 1071.53 3147.02 1073.54Z" fill="#0000FF"/>
</svg>
