<svg width="4202" height="2447" viewBox="0 0 4202 2447" fill="none" xmlns="http://www.w3.org/2000/svg">
<path d="M38.4832 967.995L172.983 926.995L208.483 797.995H867.983V557.995L1114.48 453.495H2061.98H3113.48L3142.48 555.495L3218.98 571.495L3233.48 816.495H3881.98L3934.98 936.495L4058.48 967.995V1495.99L3934.98 1527.99L3881.98 1633.49H2061.98L208.483 1658.99L172.983 1539.49L38.4832 1495.99V967.995Z" fill="white"/>
<path fill-rule="evenodd" clip-rule="evenodd" d="M2113.29 0.994455C2098.31 2.85045 2082.52 8.60345 2071.29 16.2955C2068.81 17.9895 2062.48 23.4495 2057.21 28.4285C2043.1 41.7795 2033.85 45.9615 2010.79 49.4325C1998.08 51.3435 1989.83 51.3405 1978.67 49.4205C1967.16 47.4415 1965.93 47.0285 1945.64 38.3405C1920.94 27.7665 1915.81 26.4665 1899.29 26.5875C1888.24 26.6695 1884.04 27.1495 1876.16 29.2305C1857.76 34.0875 1846.91 39.6615 1837.46 49.1175C1830.29 56.2785 1825.77 63.7535 1822.26 74.2185C1818.06 86.7275 1816.9 96.2815 1816.84 119.019L1816.79 139.589L1807.31 146.007C1777.41 166.258 1758.25 185.148 1749.05 203.448C1740.34 220.756 1736 242.662 1734.44 277.027L1733.79 291.607L1721.79 288.242C1715.19 286.392 1692.98 280.203 1672.45 274.489C1651.91 268.774 1634.91 263.907 1634.68 263.672C1634.44 263.437 1635.37 256.765 1636.74 248.846C1642.9 213.308 1643.67 206.764 1643.73 189.448C1643.79 170.815 1643.11 167.402 1636.95 155.448C1632.91 147.615 1614.3 128.957 1600.79 119.19C1595.29 115.215 1584.43 107.313 1576.66 101.631C1568.89 95.9485 1560.11 90.2545 1557.16 88.9775C1552.49 86.9615 1543.03 83.9955 1541.16 83.9605C1539.78 83.9345 1534.19 111.276 1531.68 130.321C1529.71 145.247 1530.27 169.327 1532.8 178.412C1537.88 196.673 1545.03 206.868 1574.05 237.291C1581.9 245.516 1588.19 252.374 1588.04 252.531C1587.64 252.924 1541.53 250.219 1526.79 248.938C1500.24 246.631 1481.19 242.962 1472.25 238.432C1465.68 235.102 1453.13 225.446 1444.71 217.246C1432.1 204.966 1423.92 193.686 1402.21 158.62C1388.43 136.377 1380.93 126.409 1369.34 114.948C1350.65 96.4565 1330.13 85.2565 1301.37 77.8415C1275.8 71.2495 1246.85 68.3585 1215.29 69.2465C1181.18 70.2065 1170.71 72.8995 1120.79 93.5455C1115.84 95.5925 1106.42 99.1625 1099.85 101.478L1087.92 105.689L1091.9 108.207C1094.1 109.592 1099.24 112.411 1103.34 114.471C1108.65 117.145 1112.95 120.398 1118.35 125.833C1128.68 136.231 1133.54 143.421 1144.8 164.983C1150.11 175.139 1157 186.996 1160.12 191.333C1175.49 212.719 1207.75 235.141 1237.19 244.895C1247.88 248.44 1259.72 251.159 1272.79 253.073C1286.58 255.093 1320.94 254.605 1344.29 252.057C1379.9 248.172 1389.55 247.596 1398.01 248.853C1402.26 249.486 1406.08 250.341 1406.49 250.753C1407.34 251.605 1389.12 257.958 1359.81 267.027C1324.92 277.824 1307.51 285.898 1275.29 306.217C1250.9 321.598 1243.55 325.769 1237.79 327.506C1230.37 329.738 1216.54 330.787 1179.52 331.922C1118.84 333.783 1082.31 339.807 1047.79 353.645C1021.84 364.044 1007.67 373.359 979.787 398.336C965.155 411.443 958.902 415.212 948.181 417.385C945.807 417.867 945.519 418.459 944.934 424.054C943.286 439.816 932.72 481.032 925.095 501.439C922.632 508.031 921.214 510.531 919.781 510.807C918.706 511.014 903.825 510.855 886.711 510.454L855.596 509.725L854.225 493.586C850.663 451.631 854.252 433.407 868.67 420.229C876.033 413.499 884.368 409.705 901.287 405.382C912.143 402.608 916.478 401.035 918.537 399.125C920.05 397.722 921.283 396.321 921.278 396.011C921.273 395.701 918.461 393.678 915.028 391.515C898.502 381.101 887.892 372.047 878.911 360.697C866.766 345.348 856.584 340.873 833.787 340.864C819.781 340.859 813.523 341.726 805.45 344.794C797.132 347.955 791.832 351.531 786.132 357.83C779.281 365.401 774.189 375.076 765.344 397.333C761.434 407.169 757.827 415.944 757.328 416.833C756.182 418.874 755.909 418.167 753.895 407.948C750.925 392.881 750.087 381.034 751.217 370.092C751.806 364.396 752.287 354.494 752.287 348.088C752.287 336.631 752.203 336.201 747.172 321.944C738.285 296.757 737.077 291.735 736.948 279.448C736.856 270.68 737.278 267.028 739.028 261.448C743.563 246.992 754.109 232.832 769.527 220.496C786.551 206.875 797.826 203.059 823.526 202.219L840.264 201.672L829.744 195.354C823.959 191.879 813.603 184.711 806.731 179.425C790.558 166.983 787.246 165.5 777.342 166.265C769.764 166.85 753.462 171.318 733.36 178.318L722.934 181.949L720.134 178.699C718.594 176.911 713.836 170.843 709.561 165.215C700.789 153.668 701.186 153.839 689.017 156.417C672.926 159.827 663.454 168.414 646.999 194.507C641.124 203.825 635.522 212.437 634.552 213.646L632.787 215.844L626.787 213.789C619.498 211.292 610.719 211.667 604.713 214.731C597.249 218.538 589.861 228.465 585.624 240.377C579.227 258.363 578.174 289.774 583.328 308.876L585.553 317.121L575.67 327.015C570.234 332.457 564.914 338.712 563.846 340.916C562.021 344.683 562.002 345.127 563.526 348.324C565.578 352.626 572.445 357.868 593.787 371.424C603.137 377.363 612.362 383.302 614.287 384.622L617.787 387.021L610.787 386.401C593.981 384.911 566.807 381.692 555.287 379.825C505.691 371.79 461.753 358.295 434.706 342.79C417.669 333.024 409.593 325.436 395.491 305.948C381.196 286.193 372.344 278.347 359.455 274.005C348.528 270.323 338.52 271.641 333.437 277.43C327.832 283.814 328.281 294.168 334.739 307.438C336.61 311.282 337.992 314.576 337.811 314.758C337.629 314.939 334.001 315.351 329.748 315.672L322.016 316.257L322.543 326.353C323.159 338.144 325.745 346.904 330.95 354.831C336.173 362.786 341.937 367.917 356.61 377.671C372.423 388.184 381.856 397.144 385.686 405.291C387.197 408.505 388.218 411.351 387.953 411.615C387.689 411.879 386.194 411.446 384.63 410.652C369.281 402.858 343.71 399.782 325.495 403.537C302.555 408.266 287.543 423.035 291.338 437.14C293.925 446.758 299.603 453.974 311.092 462.246C319.118 468.025 341.749 479.978 363.248 489.794L374.71 495.027L367.147 499.337C351.815 508.076 344.887 514.212 341.209 522.311C338.402 528.494 338.784 530.237 344.262 536.231C355.053 548.037 374.917 554.738 413.287 559.516C420.712 560.441 427.127 561.504 427.542 561.878C427.957 562.252 424.807 564.441 420.542 566.744C416.277 569.046 411.823 571.721 410.645 572.689C406.051 576.461 403.643 585.609 404.849 594.701C405.448 599.216 405.984 600.019 411.048 603.974C423.085 613.375 436.142 615.761 455.287 612.059C485.17 606.282 492.625 604.952 493.005 605.333C493.234 605.562 492.316 607.931 490.966 610.599C487.28 617.877 485.287 625.586 485.287 632.564C485.287 639.915 486.428 643.404 490.101 647.29C495.32 652.811 499.74 654.321 511.963 654.759C524.815 655.219 533.803 653.725 550.382 648.37C556.209 646.488 561.384 644.951 561.882 644.956C562.38 644.96 563.805 648.672 565.049 653.206C566.292 657.739 568.923 664.748 570.895 668.782C574.151 675.443 574.702 676.061 576.905 675.508C582.236 674.17 580.835 680.802 573.384 692.179C564.478 705.776 551.492 715.539 535.287 720.818C521.008 725.47 495.479 727.116 470.787 724.978C411.689 719.862 390.558 722.393 377.166 736.192C373.841 739.618 369.287 746.597 369.287 748.266C369.287 748.484 373.815 751.305 379.35 754.534C384.885 757.764 389.047 760.495 388.6 760.603C387.856 760.784 358.258 761.356 215.921 763.941C188.495 764.439 165.884 765.017 165.675 765.226C165.467 765.435 164.843 781.77 164.29 801.527C162.794 854.938 161.184 867.88 154.47 880.445C146.325 895.686 128.269 905.096 98.9639 909.373C81.6999 911.892 52.1709 913.236 25.5369 912.715L0.286865 912.22V1210.01V1507.8L5.53687 1507.4C19.1769 1506.36 59.9499 1506.13 75.4919 1507.02C119.8 1509.53 144.863 1521.19 156.693 1544.79C164.315 1560 165.287 1568.34 165.287 1618.52V1658.95H413.866H662.446L669.116 1661.58C705.144 1675.78 746.686 1705.9 786.287 1746.54C794.812 1755.29 804.858 1766.27 808.611 1770.95C845.021 1816.3 865.045 1876.38 855.767 1912.45C851.674 1928.36 841.527 1942.24 829.754 1948.04C823.944 1950.9 822.739 1951.13 815.595 1950.77C805.76 1950.28 798.82 1947.25 784.451 1937.19C778.712 1933.17 773.816 1930.09 773.57 1930.33C772.404 1931.5 771.199 1953.7 771.744 1963.95C773.742 2001.48 784.327 2029.28 804.828 2050.82C827.754 2074.91 859.691 2087.21 895.287 2085.65C929.231 2084.16 959.172 2072.01 982.156 2050.39C1016.39 2018.19 1025.88 1972.09 1009.32 1918.45C1003.81 1900.62 998.015 1887.6 985.137 1864.14C980.097 1854.96 972.694 1840.76 968.686 1832.59C964.678 1824.42 960.699 1816.96 959.843 1816.01C957.252 1813.15 958.092 1812.68 961.537 1815.06C967.311 1819.06 1005.25 1857.11 1014.77 1868.45C1019.85 1874.5 1035.24 1892.09 1048.98 1907.55C1062.72 1923 1077.56 1940.1 1081.97 1945.55C1090.75 1956.4 1143.83 2010.17 1162.58 2027.21C1241.97 2099.33 1332.9 2154.3 1420.29 2182.98C1460.89 2196.31 1504.4 2204.79 1548.79 2208.03C1569.24 2209.52 1617.02 2208.67 1635.29 2206.49C1699.71 2198.78 1759.04 2179.22 1807.79 2149.61C1888.27 2100.72 1943.7 2027.28 1965.66 1940.45C1969.02 1927.17 1972.87 1906 1974.37 1892.56L1975.59 1881.68L1983.09 1882.31C1987.21 1882.66 1994.18 1882.95 1998.56 1882.95H2006.53L2006.01 1910.7C2005.6 1932.1 2005 1941.38 2003.39 1951.27C1998.23 1982.99 1988.21 2012.68 1974.71 2036.24C1963.05 2056.6 1940.84 2088.47 1933.8 2094.95C1932.31 2096.32 1929.3 2099.58 1927.11 2102.18L1923.13 2106.91L1929.46 2114.67C1932.94 2118.93 1942.25 2129.85 1950.15 2138.93C1977.04 2169.84 1987.21 2185.01 2006.16 2222.45C2012.28 2234.55 2018.19 2245.57 2019.29 2246.95L2021.29 2249.45L2023.31 2246.95C2024.42 2245.57 2030.2 2234.77 2036.15 2222.95C2056.89 2181.73 2065.39 2169.25 2099.77 2129.45C2106.43 2121.75 2113.58 2113.32 2115.68 2110.73L2119.48 2106L2109.15 2094.95C2083.11 2067.08 2058.62 2024.57 2045.93 1985.22C2038.68 1962.73 2036.33 1945.57 2035.59 1909.7L2035.01 1881.95H2050.54H2066.07L2068.29 1894.2C2081.52 1967.34 2089.61 1990.64 2116.83 2034.07C2151.85 2089.96 2197.69 2130.78 2260.79 2162.25C2348.55 2206.04 2459.17 2219.8 2559.79 2199.47C2615.04 2188.3 2675.71 2165.25 2730.19 2134.73C2788.22 2102.21 2851.59 2055.26 2895.15 2012.51C2908.76 1999.15 3011.56 1886.76 3023.72 1871.95C3025.75 1869.47 3035.82 1859.12 3046.1 1848.95C3056.38 1838.77 3068.55 1826.27 3073.14 1821.17C3077.74 1816.07 3082.35 1811.45 3083.39 1810.89C3086.71 1809.12 3085.66 1813.28 3081.53 1818.28C3077.83 1822.75 3051.35 1874.32 3045.25 1888.95C3029.58 1926.45 3023.5 1952.97 3024.61 1978.95C3025.48 1999.31 3030.06 2014.32 3039.96 2029.2C3069.52 2073.68 3138.66 2096.96 3191.64 2080.28C3225.98 2069.48 3251.33 2044.66 3262.74 2010.69C3268.72 1992.87 3269.68 1985.59 3269.74 1957.78C3269.76 1943.66 3269.48 1931.81 3269.11 1931.44C3268.73 1931.06 3264.69 1933.06 3260.12 1935.87C3228.91 1955.08 3204.31 1952.05 3192.68 1927.57C3187.48 1916.61 3185.88 1907.89 3185.89 1890.45C3185.89 1872.64 3187.47 1863.48 3193.88 1844.02C3201.46 1820.98 3210.08 1804.81 3228.85 1778.45C3236.63 1767.53 3242.24 1761.37 3263.95 1739.91C3278.16 1725.86 3292.94 1711.85 3296.79 1708.78C3328.81 1683.21 3365.6 1663.11 3391.76 1656.9C3405.43 1653.65 3457.85 1653 3705.46 1652.97L3931.13 1652.95L3931.55 1611.7C3932.01 1565.39 3932.5 1561.56 3939.97 1545.97C3944.72 1536.05 3956.65 1523.96 3966.79 1518.78C3987.94 1507.96 4007.63 1505.38 4061.04 1506.46L4096.29 1507.17V1209.46V911.762L4078.04 912.448C4059.61 913.141 4022.25 911.804 4006.29 909.88C3986.55 907.503 3968.65 902.691 3959.39 897.274C3951.6 892.712 3944.54 885.233 3940.74 877.523C3935.12 866.099 3934.27 860.073 3933.19 823.948C3932.65 806.073 3931.96 785.486 3931.65 778.198L3931.08 764.948H3815.96C3717.78 764.948 3701.13 764.745 3702.81 763.567C3703.9 762.808 3709.29 759.811 3714.79 756.907C3729.11 749.348 3728.77 749.764 3725.2 743.965C3721.61 738.134 3714.94 731.831 3709.3 728.957C3696.86 722.61 3674.56 720.712 3637.73 722.866C3612.7 724.331 3585.22 724.351 3574.79 722.912C3547.63 719.167 3528.54 705.742 3518.34 683.224L3515.97 677.999L3521.59 672.515C3530.32 663.984 3532.47 660.138 3533.05 651.947C3533.64 643.728 3533.06 643.934 3545.79 647.478C3566.9 653.354 3589.93 655.577 3600.96 652.801C3607.67 651.11 3612.89 645.757 3613.81 639.621C3614.78 633.143 3612.41 623.601 3607.32 613.517C3605.12 609.154 3603.43 605.47 3603.57 605.328C3603.71 605.187 3611.47 606.605 3620.81 608.479C3646.19 613.572 3655.83 614.599 3664.56 613.139C3672.84 611.755 3684.48 606.453 3688.53 602.22C3691.96 598.633 3692.94 592.41 3691.31 584.539C3689.78 577.179 3685.79 572.629 3675.61 566.629C3666.69 561.376 3664.27 562.495 3695.36 557.496C3717.02 554.013 3729.92 550.685 3738.29 546.421C3746.33 542.32 3757.29 534.021 3757.29 532.027C3757.29 531 3756.39 527.252 3755.29 523.7C3752.46 514.531 3747.85 509.769 3734.39 502.122C3728.27 498.642 3723.53 495.367 3723.85 494.843C3724.17 494.32 3728.57 491.823 3733.61 489.295C3749.33 481.421 3766.47 471.861 3774.29 466.613C3793.28 453.856 3803.09 439.965 3803.43 425.324C3803.54 420.224 3803.27 419.515 3799.82 415.98C3795.32 411.378 3788.89 407.765 3780.79 405.297C3772.15 402.667 3751.33 402.928 3737.79 405.836C3729.22 407.674 3714.76 411.679 3709.78 413.59C3706.08 415.007 3710.12 402.554 3715.24 396.74C3719.12 392.334 3721.98 390.311 3741.29 378.361C3762.84 365.019 3773.05 348.899 3774.47 325.969L3774.74 321.49L3766.93 317.373C3762.64 315.109 3759.18 312.97 3759.25 312.621C3759.31 312.272 3760.99 308.578 3762.96 304.411C3767.81 294.213 3768.62 285.096 3765.23 279.059C3759.63 269.098 3745.13 268.406 3729.83 277.368C3722.11 281.891 3710.92 293.327 3699.53 308.333C3683.86 328.968 3675.07 336.994 3659.57 344.807C3632.29 358.563 3566.03 377.151 3519.98 383.964C3508.09 385.723 3480.93 386.921 3479.74 385.738C3479.55 385.542 3484.4 382.696 3490.53 379.414C3514.69 366.483 3530.54 353.723 3533.11 345.139C3535.45 337.323 3532.86 333.44 3517.42 321.635C3512.63 317.973 3511.29 316.418 3511.84 315.135C3517.12 302.686 3518.34 274.786 3514.4 256.146C3510.7 238.625 3503.8 221.976 3497.57 215.565C3491.79 209.612 3488.12 209.095 3475.01 212.383L3463.88 215.176L3461.54 212.312C3460.26 210.737 3454.84 202.302 3449.5 193.568C3434.36 168.814 3424.36 159.979 3407.41 156.386C3394.76 153.705 3395.72 153.198 3384.3 168.533C3376.36 179.186 3373.81 181.97 3372.48 181.429C3371.55 181.05 3364.6 178.547 3357.05 175.868C3336.76 168.675 3328.22 166.651 3317.79 166.572C3306.7 166.487 3304.33 167.592 3291.29 178.891C3280.44 188.296 3273.64 192.966 3263.29 198.124L3255.79 201.86L3271.79 201.911C3291.49 201.975 3298.79 203.076 3307.79 207.341C3317.04 211.73 3325 217.873 3335.35 228.617C3345.26 238.902 3349.1 244.229 3353.81 254.204C3359.34 265.906 3360.62 272.578 3360 286.448C3359.4 299.804 3358 305.097 3349.69 325.448L3344.79 337.448L3345.29 350.948C3346.38 380.449 3345.93 393.758 3343.41 406.198C3342.1 412.661 3340.73 417.948 3340.37 417.948C3340.01 417.948 3337.07 410.861 3333.82 402.198C3323.77 375.34 3317.82 364.503 3308.07 355.3C3298.79 346.537 3288.44 342.399 3272.29 340.996C3260.94 340.009 3247.15 341.027 3240.61 343.334C3229.6 347.219 3223.98 351.673 3215.33 363.385C3206.66 375.125 3201.2 379.928 3186.95 388.331C3180.54 392.116 3175.29 395.52 3175.29 395.894C3175.29 398.098 3181.53 401.854 3187.69 403.36C3191.49 404.288 3200.22 407.088 3207.11 409.584C3240.02 421.514 3244.19 429.03 3242.86 473.948C3242.53 485.223 3242 498.088 3241.69 502.537L3241.13 510.627L3205.55 511.292C3185.98 511.658 3169.79 511.78 3169.57 511.564C3169.35 511.348 3165.61 501.783 3161.25 490.309L3153.33 469.448L3153.31 452.352C3153.3 442.949 3152.99 431.136 3152.64 426.102L3151.99 416.948H3128.74H3105.49L3095.71 410.795C3054.78 385.074 3012.38 371.448 2960.79 367.435C2925.82 364.715 2874.59 350.599 2843.79 335.198C2834.72 330.662 2821.29 322.453 2821.29 321.443C2821.29 320.284 2827.33 318.699 2840.71 316.345C2857.89 313.325 2865.04 310.882 2877.99 303.617C2890.55 296.563 2899 290.271 2904.1 284.158C2909.2 278.039 2918.2 264.122 2922.18 256.196C2930.04 240.537 2931.61 233.332 2933.78 202.948C2934.67 190.573 2935.75 177.344 2936.18 173.55L2936.96 166.651L2921.87 167.319C2856.67 170.205 2825.01 188.345 2805.12 234.218C2802.93 239.271 2797.09 254.124 2792.16 267.226C2787.23 280.328 2781.65 294.434 2779.76 298.573L2776.33 306.098L2771.06 305.553C2768.16 305.253 2762.64 304.746 2758.79 304.427C2748.81 303.599 2732.2 300.598 2706.12 294.906C2674.59 288.027 2664.95 286.272 2648.29 284.378C2628.93 282.178 2599.6 282.869 2568.29 286.26C2555.36 287.66 2541.91 289.026 2538.39 289.295L2531.99 289.785L2541.27 280.461C2546.77 274.942 2552.65 270.082 2555.67 268.55C2559.09 266.82 2567.54 264.632 2581.17 261.947C2621.74 253.952 2644.51 246.098 2660.79 234.481C2675.21 224.196 2682.33 212.366 2689.77 186.371C2697.59 159.041 2702.69 146.898 2713.03 130.97C2716.06 126.307 2721.38 119.551 2724.85 115.955C2731.49 109.076 2737.01 99.2695 2735.23 97.4955C2733.71 95.9734 2708.38 95.5695 2697.49 96.8945C2661.63 101.257 2612.87 115.255 2588.29 128.244C2562.42 141.921 2547.98 158.396 2540.65 182.641C2538.11 191.022 2537.95 192.876 2537.31 220.948C2536.69 248.244 2536.47 250.877 2534.39 256.191C2523.46 284.169 2474.34 312.066 2411.79 325.831C2389.49 330.737 2374.52 333.016 2364.01 333.107C2351.39 333.217 2346.17 330.912 2342.39 323.563C2339.98 318.882 2339.93 318.31 2340.35 301.602C2341.16 269.602 2340.71 251.005 2338.89 241.448C2330.3 196.367 2304.11 160.902 2254.15 126.714C2245.56 120.829 2237.27 114.537 2235.75 112.731C2230.64 106.667 2228.3 98.6915 2225.28 77.0465C2221.24 47.9975 2218.58 40.6165 2208.21 29.5225C2195.71 16.1605 2178.98 7.46045 2156.83 2.80845C2146.2 0.574455 2124.1 -0.346545 2113.29 0.994455ZM2004.68 64.0455C2024.86 70.0015 2032.01 78.2775 2029.39 92.6475C2028.48 97.6185 2019 125.537 2017.8 126.759C2017.63 126.93 2013.17 121.947 2007.88 115.685C1994.61 99.9775 1989.29 91.3685 1987.26 82.3505C1986.2 77.5835 1986.2 77.5755 1991.47 69.7645C1994.37 65.4655 1996.93 61.9485 1997.16 61.9485C1997.39 61.9485 2000.77 62.8925 2004.68 64.0455ZM1509.54 267.604C1514.9 267.959 1519.29 268.577 1519.29 268.977C1519.29 270.017 1509.14 273.616 1499.79 275.895C1495.39 276.966 1481.95 279.468 1469.92 281.453C1457.89 283.438 1442.98 286.342 1436.79 287.905C1388.07 300.21 1362.71 326.045 1351.36 374.948C1349.36 383.554 1346.29 407.311 1346.29 414.204L1346.29 417.959L1308.04 417.424C1261.33 416.77 1243.29 416.039 1243.29 414.802C1243.29 412.893 1261.68 377.037 1269.11 364.462C1275.13 354.271 1278.65 349.621 1285.42 342.861C1329.88 298.525 1411 268.464 1489.79 267.128C1495.29 267.035 1504.17 267.249 1509.54 267.604ZM2025.94 277.545C2029.17 285.63 2032.74 289.699 2043.72 297.849C2048.82 301.631 2054 306.145 2055.24 307.88C2058 311.764 2075 325.457 2085.79 332.492C2098.95 341.073 2107.57 345.062 2141.71 358.368L2147.63 360.676L2138.71 362.291C2109.96 367.492 2081.91 369.362 2043.41 368.646C1998.23 367.807 1960.16 363.202 1930.06 354.935C1923.74 353.2 1913.29 348.166 1913.29 346.856C1913.29 345.879 1920.42 344.049 1928.74 342.892C1946.51 340.42 1963.04 333.812 1976.13 323.943C1986.88 315.847 2000.15 301.639 2006.24 291.705C2011.81 282.635 2021.28 270.828 2022.66 271.257C2023.14 271.406 2024.61 274.236 2025.94 277.545ZM1569.55 278.967C1613.97 288.673 1673.21 307.616 1704.26 322.046C1709.23 324.352 1713.29 326.523 1713.29 326.87C1713.29 328.364 1693.24 348.694 1679.6 361.038C1671.45 368.413 1659.16 379.596 1652.29 385.89C1629.38 406.865 1618.46 414.316 1606.79 416.959C1597.9 418.971 1564.98 419.806 1511.29 419.38C1465.39 419.016 1413.52 417.517 1412.53 416.525C1411.66 415.654 1422.66 410.535 1441.79 402.917C1471.36 391.137 1484.6 382.747 1503.31 363.947C1526.15 340.995 1541.91 314.744 1554.78 278.198C1555.4 276.452 1558.86 276.632 1569.55 278.967ZM2605.94 304.682C2605.08 310.008 2600.86 315.482 2591.87 322.948L2584.05 329.448L2584.61 342.448C2585.23 356.761 2586.86 364.141 2591.56 373.948C2594.11 379.267 2597.42 383.173 2609.78 395.448C2618.09 403.698 2625.87 411.855 2627.07 413.576L2629.25 416.703L2623.52 417.333C2610.68 418.744 2543.4 419.216 2527.13 418.01C2468.8 413.684 2425.99 401.294 2394.32 379.57C2386.32 374.083 2366.29 355.468 2366.29 353.518C2366.29 350.403 2408.6 337.628 2447.29 329.062C2482.31 321.308 2593.92 301.3 2603.67 301.028C2606.45 300.951 2606.53 301.082 2605.94 304.682ZM2777.99 345.361C2791.72 350.497 2798.89 353.525 2820.86 363.47C2860.83 381.564 2863.58 383.812 2873.74 406.731C2876.24 412.373 2878.29 417.205 2878.29 417.468C2878.29 418.168 2842.61 418.049 2822.41 417.283L2805.04 416.624L2802.27 412.266C2800.75 409.869 2797.63 402.404 2795.33 395.678C2790.55 381.667 2785.22 371.292 2774.41 354.948C2764.57 340.082 2765.11 340.948 2765.69 340.948C2765.97 340.948 2771.5 342.934 2777.99 345.361ZM1792.85 349.842C1796.67 350.883 1808.47 354.258 1819.09 357.342C1906.58 382.756 1981.18 394.484 2062.79 395.653C2113.06 396.373 2136.98 394.936 2200.29 387.392C2260.73 380.19 2273.51 380.313 2296.86 388.329C2325.52 398.168 2350.66 409.212 2357.29 414.875L2360.79 417.867L2101.29 417.765C1958.56 417.708 1807.14 417.389 1764.79 417.055L1687.79 416.448L1694.29 410.058C1703.11 401.387 1715.2 391.865 1737.79 375.798C1748.24 368.365 1760.39 359.674 1764.79 356.484C1777.64 347.163 1780.54 346.478 1792.85 349.842ZM2081.79 456.355C2222.04 456.367 2350.51 456.196 2367.29 455.976C2399.7 455.551 2412.27 456.545 2429.4 460.885C2451.19 466.41 2470.46 477.625 2481.6 491.274L2485.42 495.948L2067.1 495.86C1837.03 495.812 1646.54 495.475 1643.79 495.11L1638.79 494.448L1637.85 487.506C1637.11 481.943 1637.26 479.286 1638.61 474.131C1641.85 461.769 1644.01 459.784 1656.3 457.878C1672.47 455.368 1684.33 455.106 1754.29 455.708C1794.16 456.052 1941.54 456.343 2081.79 456.355ZM2615.79 457.962C2615.79 460.105 2612.88 459.796 2612.46 457.607C2612.2 456.271 2612.61 455.864 2613.95 456.121C2614.96 456.316 2615.79 457.144 2615.79 457.962ZM2679.79 456.958C2708.84 458.778 2730.44 463.806 2747.79 472.788C2754.92 476.481 2758.65 479.315 2765.79 486.443L2774.79 495.438L2739.29 496.27C2719.76 496.727 2672.96 497.179 2635.29 497.275C2567.34 497.447 2553.9 496.953 2542.03 493.849C2538.57 492.944 2538.33 492.653 2538.99 490.157C2539.38 488.667 2539.66 486.483 2539.61 485.303C2539.52 483.429 2540.73 482.806 2549.15 480.384C2557.22 478.063 2561.63 477.488 2576.29 476.853C2594.71 476.055 2606.08 474.051 2616.68 469.732C2623.12 467.107 2623.8 465.153 2619.54 461.485C2618.02 460.183 2617.07 458.836 2617.41 458.492C2618.06 457.839 2641.94 456.35 2655.79 456.1C2660.19 456.02 2670.99 456.406 2679.79 456.958ZM2904.31 458.236C2922.58 462.474 2939.07 471.932 2953.71 486.572C2958.46 491.326 2962.17 495.397 2961.95 495.62C2961.73 495.842 2927.29 495.71 2885.41 495.325L2809.29 494.625V487.943C2809.29 484.269 2809.58 475.801 2809.94 469.127L2810.59 456.993L2828.19 456.644C2863.86 455.936 2897.42 456.638 2904.31 458.236ZM1493.29 457.935C1499.61 458.461 1511.42 460.256 1519.52 461.925C1538.52 465.835 1551.68 466.917 1566.68 465.799C1573.25 465.31 1580.02 464.805 1581.71 464.678L1584.79 464.448L1585.9 473.448C1586.51 478.398 1587.33 485.486 1587.73 489.198L1588.45 495.948H1376.16H1163.88L1167.83 491.903C1170 489.678 1175.99 484.877 1181.12 481.234C1186.26 477.591 1194.09 471.554 1198.51 467.818C1212.93 455.637 1194.85 456.947 1348.29 456.965C1424.33 456.973 1486.74 457.391 1493.29 457.935ZM1026.29 524.343C1026.29 526.645 1020.26 540.091 1016.82 545.448C1002.49 567.795 975.86 582.524 938.881 588.549L928.498 590.241L927.907 611.344C927.582 622.951 927.042 679.698 926.706 737.448C926.37 795.198 926.026 842.502 925.941 842.569C925.856 842.635 832.524 842.924 718.537 843.21C549.524 843.635 511.287 843.492 511.287 842.438C511.287 840.527 519.541 829.89 524.75 825.089C533.79 816.756 546.563 809.642 558.694 806.185C564.384 804.563 574.638 804.474 713.797 804.834C795.753 805.046 867.641 804.89 873.547 804.488L884.287 803.756V677.21V550.664L897.537 551.219C907.54 551.638 912.257 552.304 916.787 553.936C926.356 557.385 929.778 556.582 952.287 545.608C977.012 533.555 996.034 527.41 1019.11 524.025C1022.23 523.567 1025.12 523.137 1025.54 523.07C1025.95 523.003 1026.29 523.576 1026.29 524.343ZM3212.29 677.331V803.713L3220.04 804.497C3224.3 804.929 3280.21 805.097 3344.29 804.87C3541.6 804.173 3530.56 804.064 3539.26 806.795C3551.32 810.582 3560.25 815.628 3571.05 824.767C3576.12 829.05 3585.29 840.181 3585.29 842.047C3585.29 842.579 3500.04 842.948 3377.29 842.948H3169.29L3169.14 807.698C3169.06 788.31 3168.73 731.512 3168.39 681.479L3167.79 590.51L3163.29 589.72C3135.32 584.81 3127.37 582.677 3117.28 577.378C3108.85 572.943 3084.76 551.948 3088.11 551.948C3088.74 551.948 3098.59 553.826 3110.02 556.121C3128.62 559.859 3132.35 560.301 3145.79 560.371L3160.79 560.448L3169.02 556.648C3179.5 551.814 3182.84 551.191 3199.04 551.058L3212.29 550.948V677.331ZM840.85 764.63C840.578 765.157 608.287 765.352 608.287 764.826C608.287 763.272 626.322 749.404 634.93 744.338C654.772 732.66 671.882 725.514 714.997 710.895C762.959 694.633 781.454 686.685 799.787 674.455C814.6 664.574 829.264 650.483 837.185 638.519L839.787 634.589L840.366 699.519C840.684 735.23 840.902 764.53 840.85 764.63ZM3277.8 659.376C3295.34 676.937 3318.36 689.707 3352.5 700.815C3363.94 704.539 3377.45 710.44 3431.79 735.448C3458.23 747.619 3466.68 751.483 3475 755.214C3478.97 756.993 3482.23 758.785 3482.25 759.198C3482.27 759.611 3476.32 759.955 3469.04 759.964C3461.75 759.973 3438.46 760.409 3417.29 760.932C3396.11 761.456 3357.86 762.342 3332.29 762.901C3306.71 763.46 3279.11 764.162 3270.95 764.46L3256.11 765.002L3256.83 711.725C3257.23 682.423 3257.69 657.773 3257.85 656.948C3258 656.123 3258.17 650.748 3258.21 645.003L3258.29 634.557L3264.02 642.93C3267.17 647.536 3273.37 654.936 3277.8 659.376ZM339.287 805.92C375.248 806.885 401.221 808.158 417.787 809.768L424.787 810.448L425.062 826.769L425.337 843.09L344.562 842.769C268.072 842.465 263.534 842.546 259.016 844.289C252.802 846.686 251.797 848.81 249.871 863.613C249.008 870.245 247.161 879.672 245.767 884.56C242.366 896.481 233.769 913.55 225.915 923.972C217.279 935.434 200.717 951.195 189.246 958.868C163.111 976.349 129.215 987.912 99.0419 989.638L88.2869 990.254V1209.52V1428.78L96.0369 1429.44C184.827 1437.04 245.902 1491.54 250.973 1567.7C251.541 1576.23 251.751 1576.95 253.688 1576.95C259.241 1576.95 326.917 1581.14 342.787 1582.46C420.147 1588.9 482.067 1599.06 524.787 1612.33L532.787 1614.82L458.202 1614.88C417.181 1614.92 344.44 1614.65 296.557 1614.28L209.496 1613.62L209.036 1591.03C208.43 1561.21 205.549 1547.42 195.757 1527.45C175.993 1487.13 132.752 1467.97 61.5369 1467.95L44.2869 1467.95V1209.95V951.948L57.0369 951.933C145.812 951.83 187.693 927.778 202.687 868.288C206.085 854.803 208.079 839.425 208.889 820.448L209.572 804.448L255.179 804.668C280.264 804.788 318.112 805.352 339.287 805.92ZM3887.71 819.198C3890.71 880.362 3900.53 905.021 3930.29 926.149C3955.16 943.807 3980.4 950.385 4028.04 951.626L4052.29 952.257V1210.1V1467.95H4036.34C3997.07 1467.95 3963.98 1473.57 3943.79 1483.68C3907.35 1501.91 3891.2 1536.05 3887.72 1602.2L3887.05 1614.95L3695.1 1614.7C3532.16 1614.49 3503.66 1614.24 3506.47 1613.09C3520.41 1607.37 3565.22 1598.81 3614.29 1592.49C3676.94 1584.43 3781.87 1576.98 3833.43 1576.96L3845.06 1576.95L3845.63 1573.7C3845.93 1571.91 3846.7 1565.05 3847.33 1558.45C3849.78 1532.67 3856.66 1515.56 3873.09 1494.37C3890.11 1472.41 3914.09 1453.77 3938.79 1443.31C3956.95 1435.61 3981.84 1429.97 3997.79 1429.94C4001.64 1429.93 4005.69 1429.68 4006.79 1429.38C4008.78 1428.85 4008.79 1428.13 4008.49 1210.65C4008.32 1090.64 4008.03 991.957 4007.83 991.356C4007.61 990.703 4002.91 990.012 3996.13 989.638C3952.12 987.207 3912.46 968.931 3881.98 937.026C3864.09 918.294 3855.7 900.362 3847.39 863.044C3845.16 853.027 3843.07 844.408 3842.75 843.89C3842.39 843.313 3809.29 842.948 3757.23 842.948H3672.29V829.017C3672.29 816.253 3672.47 814.8 3674.54 811.661L3676.79 808.234L3721.79 807.451C3746.54 807.019 3782.76 806.358 3802.29 805.98C3821.81 805.603 3848.86 805.216 3862.4 805.121L3887.01 804.948L3887.71 819.198ZM2615.29 1576.8C2615.29 1577.28 2610.75 1582.56 2605.2 1588.55C2599.65 1594.55 2592.82 1602.94 2590.03 1607.2L2584.95 1614.95L2392.87 1614.92C2258.41 1614.9 2201.33 1614.57 2202.59 1613.84C2206.76 1611.41 2237.08 1599.77 2250.39 1595.48C2267.47 1589.98 2290.43 1584.11 2309.79 1580.29C2323.33 1577.61 2325.16 1577.51 2365.79 1576.95C2435.73 1576 2615.29 1575.89 2615.29 1576.8ZM1237.57 1577.61L1274.35 1578.27L1270.67 1581.31C1267.38 1584.01 1259.29 1595.16 1259.29 1596.97C1259.29 1597.78 1268.86 1602.12 1274.79 1603.99C1280.63 1605.84 1291.4 1613.17 1290.13 1614.44C1289.18 1615.39 1154.67 1615.72 1054.79 1615.01C967.163 1614.39 965.617 1614.35 954.787 1612.1C940.548 1609.13 931.098 1606.47 902.361 1597.3C877.144 1589.25 850.254 1581.02 841.287 1578.61C836.376 1577.29 855.319 1577.12 1018.29 1577.04C1118.66 1576.99 1217.34 1577.25 1237.57 1577.61ZM1714.29 1579.39C1750.6 1585.09 1782.4 1593.74 1815.79 1606.99C1837.79 1615.72 1840.2 1614.86 1793.29 1614.91C1770.46 1614.93 1685.41 1615.23 1604.29 1615.57L1456.79 1616.19L1454.3 1610.32C1452.37 1605.74 1449.13 1601.64 1439.55 1591.67C1432.81 1584.63 1427.29 1578.45 1427.29 1577.91C1427.29 1577.3 1476.36 1576.95 1563.04 1576.95L1698.79 1576.95L1714.29 1579.39ZM3200.79 1577.82L3205.79 1578.52L3201.79 1579.33C3195.37 1580.62 3168.94 1588.34 3139.49 1597.54C3108.09 1607.34 3100.11 1609.22 3080.79 1611.38C3044.12 1615.49 2971.77 1617.22 2883.79 1616.08C2850.24 1615.65 2806.92 1615.33 2787.54 1615.37C2768.15 1615.41 2752.29 1615.16 2752.29 1614.8C2752.29 1612.9 2760.15 1607.82 2770.54 1603.02C2777 1600.03 2782.29 1597.2 2782.29 1596.73C2782.29 1595.44 2778.26 1587.77 2776.2 1585.13C2775.21 1583.86 2772.73 1581.5 2770.7 1579.88L2767.01 1576.95L2981.4 1577.04C3099.31 1577.08 3198.04 1577.44 3200.79 1577.82ZM1891.53 1652.81L1905.28 1653.58L1922.88 1665.38C1981.91 1704.96 1996.34 1722.19 2003.3 1761.45C2005.48 1773.69 2007.25 1796.8 2007.27 1813.2L2007.29 1823.95H1989.52H1971.75L1963.91 1802.7C1955.1 1778.85 1948.82 1765.48 1940.65 1753.2C1905.44 1700.28 1833.73 1678.5 1767.31 1700.57C1721.44 1715.8 1692.77 1747.07 1688.09 1786.97C1686.04 1804.44 1690.91 1827.23 1701.01 1847.37C1706.61 1858.55 1711.18 1864.76 1719.6 1872.63C1746.64 1897.91 1791.32 1902.13 1821.51 1882.25C1837.94 1871.44 1846.29 1854.65 1846.29 1832.43C1846.29 1810.85 1840.87 1801.53 1817.35 1782.63C1811.06 1777.58 1805.06 1772.28 1804.01 1770.84C1802.12 1768.25 1802.13 1768.2 1804.61 1763.3C1809.1 1754.44 1818.53 1747.35 1828.79 1745.14C1841.75 1742.34 1852.15 1743.01 1866.25 1747.53C1894.06 1756.47 1908.83 1773.25 1922.6 1811.6L1925.17 1818.75L1921.39 1821.38C1918.56 1823.34 1915.61 1824.23 1909.7 1824.91C1897.39 1826.31 1898.29 1825.06 1898.28 1840.81C1898.28 1848.31 1897.99 1859.43 1897.64 1865.53L1897 1876.61L1900.63 1878.85C1902.63 1880.09 1906.91 1881.47 1910.14 1881.93C1913.37 1882.38 1917.47 1883.51 1919.25 1884.43C1922.37 1886.04 1922.46 1886.28 1921.82 1890.6C1920.67 1898.25 1916.28 1914.03 1912.76 1923.15C1901.33 1952.77 1884.54 1977.86 1859.34 2002.95C1803.41 2058.65 1722.28 2093.76 1629.29 2102.51C1598.33 2105.42 1544.99 2103.78 1512.1 2098.9C1417.15 2084.82 1317.45 2045.58 1228.79 1987.39C1192.93 1963.86 1123.71 1911.76 1093.79 1885.78C1079.59 1873.46 1038.21 1831.64 1041.38 1832.82C1046.06 1834.56 1074.13 1848.87 1089.11 1857.15C1097.18 1861.62 1126.51 1878.85 1154.29 1895.44C1211.94 1929.89 1217.65 1933.13 1247.79 1948.43C1319.6 1984.89 1395.28 2009.76 1471.29 2021.86C1548.66 2034.19 1618.09 2033.54 1674.79 2019.97C1701.36 2013.61 1716.45 2007.14 1739.47 1992.21C1747.9 1986.75 1756.96 1981.02 1759.62 1979.47C1764.25 1976.78 1764.37 1976.6 1762.62 1974.95C1759.77 1972.28 1753.94 1970.4 1736.71 1966.57C1709.73 1960.58 1697.51 1955.64 1679.81 1943.57C1669.58 1936.6 1652.62 1920.72 1645.03 1911.01C1642.21 1907.4 1637.49 1901.66 1634.56 1898.26L1629.22 1892.06L1622.5 1894.63C1537.79 1927.03 1464.68 1935.66 1374.29 1923.92C1313.6 1916.04 1241.49 1894.87 1188.56 1869.4C1168.76 1859.87 1157.88 1853.52 1146.74 1844.98C1142.42 1841.66 1138.12 1838.95 1137.19 1838.95C1136.26 1838.95 1135.22 1838.23 1134.89 1837.35C1133.75 1834.4 1142.01 1836.35 1157.44 1842.7C1204.94 1862.23 1256.22 1876.66 1303.79 1883.88C1333.51 1888.4 1346.61 1889.32 1382.29 1889.38C1417.37 1889.44 1427.29 1888.83 1455.79 1884.84C1504.38 1878.02 1557.91 1862.84 1603.93 1842.8L1613.08 1838.82L1613.73 1828.63C1617.32 1771.94 1626.97 1738.71 1648.12 1710.28C1673.88 1675.63 1715.78 1656.99 1779.29 1651.92C1790.98 1650.99 1870.12 1651.62 1891.53 1652.81ZM2296.07 1654.04C2311.8 1655.2 2325.81 1658.21 2334.9 1662.37C2341.91 1665.58 2355.52 1674.43 2366.04 1682.64C2406.44 1714.11 2425.89 1757.43 2427.98 1820.64L2428.58 1838.83L2433.18 1840.79C2441.08 1844.16 2472.14 1855.53 2486.79 1860.41C2537.91 1877.44 2583.98 1886.88 2630.77 1889.91C2677.22 1892.92 2725.56 1888.46 2778.29 1876.31C2800.1 1871.28 2814.41 1866.99 2840.29 1857.72C2872.5 1846.18 2903.44 1835.77 2903.96 1836.29C2904.21 1836.53 2899.77 1840.37 2894.1 1844.81C2883.55 1853.07 2867.71 1861.85 2837.79 1876.03C2779.24 1903.76 2713.78 1920.45 2637.29 1927.13C2618.84 1928.74 2569.9 1928.71 2552.29 1927.07C2514.49 1923.56 2480.9 1916.9 2452.29 1907.26C2440.04 1903.13 2423.79 1896.76 2418.05 1893.83L2414.03 1891.78L2409.57 1896.11C2407.11 1898.5 2400.48 1905.85 2394.83 1912.45C2365.73 1946.46 2347.3 1957.38 2301.96 1967.52C2283.96 1971.54 2281.46 1972.35 2279.65 1974.74C2277.73 1977.27 2277.87 1977.52 2282.94 1980.49C2285.51 1981.99 2292.57 1986.79 2298.65 1991.17C2312.2 2000.92 2325.56 2007.54 2343.34 2013.33C2380.19 2025.32 2416.66 2030.29 2467.29 2030.24C2567.67 2030.12 2667.18 2007.15 2768.29 1960.75C2809.67 1941.75 2839.49 1925.14 2911.79 1880.78C2923.89 1873.36 2940.3 1863.54 2948.25 1858.97C2962.33 1850.88 2993.26 1835.2 2999.3 1833.09C3001.99 1832.16 3002.2 1832.23 3001.36 1833.75C2998.7 1838.54 2958.04 1876.93 2933.29 1898.01C2813.92 1999.7 2710.56 2057.53 2596.63 2086.39C2509.83 2108.38 2413.63 2107.87 2330.16 2084.98C2218.36 2054.33 2144.34 1988.28 2122.8 1899.95C2121.39 1894.17 2120.07 1888.69 2119.87 1887.76C2119.67 1886.84 2120.25 1885.78 2121.15 1885.42C2124.29 1884.16 2144.72 1876.95 2145.15 1876.95C2145.39 1876.95 2145.3 1868.96 2144.95 1859.2C2144.6 1849.44 2144.3 1838.21 2144.3 1834.25L2144.29 1827.04L2140.54 1826C2138.47 1825.43 2134.63 1824.96 2131.99 1824.95C2126.84 1824.95 2122.88 1823.36 2119.96 1820.14C2118.19 1818.19 2118.24 1817.82 2121.75 1807.29C2127.56 1789.79 2133.36 1779.1 2142.03 1769.88C2155.08 1756.01 2170.63 1747.49 2188.73 1744.28C2196.99 1742.82 2199.63 1742.74 2206.53 1743.74C2221.23 1745.89 2232.39 1752.88 2237.91 1763.42L2240.76 1768.87L2237.27 1772.5C2235.36 1774.49 2229.29 1779.62 2223.79 1783.89C2202.32 1800.56 2196.29 1811.33 2196.29 1833C2196.29 1864.98 2214.23 1887.18 2244.73 1892.94C2255.19 1894.91 2274.58 1893.77 2285.57 1890.53C2332.23 1876.77 2359.49 1838.17 2354.47 1792.99C2351.51 1766.38 2341.95 1745.52 2325.03 1728.76C2307.42 1711.31 2283.61 1699.58 2254.15 1693.84C2238.15 1690.72 2214.44 1690.72 2198.45 1693.83C2148.91 1703.49 2108.62 1733.49 2087.5 1776.45C2081.06 1789.57 2077.04 1801.31 2074.39 1814.73L2072.68 1823.45L2053.98 1823.72L2035.29 1823.99V1810.17C2035.29 1802.57 2035.74 1790.3 2036.3 1782.9C2040.73 1724.32 2051.48 1708.01 2114.29 1664.52L2129.79 1653.79L2180.79 1654.27C2208.84 1654.53 2239.44 1654.42 2248.79 1654.02C2275.66 1652.88 2280.5 1652.88 2296.07 1654.04ZM1311.78 1657.98C1309.21 1669.67 1301.46 1681.82 1292.99 1687.44C1282.61 1694.32 1278.01 1695.35 1257.29 1695.4C1235.88 1695.46 1234.74 1695.26 1186.79 1683.32C1144.91 1672.89 1120.63 1665.96 1105.79 1660.18L1098.79 1657.45L1107.29 1656.9C1111.96 1656.6 1140.96 1656.25 1171.72 1656.14C1202.48 1656.02 1227.87 1655.7 1228.14 1655.43C1228.4 1655.17 1247.48 1654.95 1270.53 1654.95H1312.45L1311.78 1657.98ZM1593.72 1658.04C1589.5 1662.48 1576.2 1672.9 1557.79 1686.2C1538.88 1699.84 1527.11 1710.37 1498.79 1738.97C1468.24 1769.81 1450.51 1784.65 1427.65 1798.51C1389.65 1821.55 1352.49 1830.94 1299.18 1830.95C1257.09 1830.95 1217.87 1824.96 1180.29 1812.76C1141.48 1800.18 1093.62 1777.79 1064.29 1758.51C1053.91 1751.69 1043.89 1744.01 1044.53 1743.37C1045.07 1742.83 1074.9 1750.82 1091 1755.81C1098.03 1757.99 1113.91 1762.99 1126.29 1766.93C1193.56 1788.32 1227.68 1795.25 1276.79 1797.48C1293.07 1798.22 1318.96 1796.64 1334.87 1793.93C1392.16 1784.17 1437.03 1755.29 1456.52 1715.64C1464.54 1699.33 1468.09 1685.39 1469.01 1666.7L1469.58 1654.95H1533.12H1596.66L1593.72 1658.04ZM2572.77 1663.7C2575.02 1693.15 2580.98 1712.84 2593.42 1731.95C2599.01 1740.54 2617 1758.41 2625.83 1764.14C2658.75 1785.52 2698.98 1795.21 2754.79 1795.2C2789.29 1795.2 2817.92 1792.23 2854.17 1784.89C2876.57 1780.35 2891.82 1776 2932.78 1762.42C2964.16 1752.02 2982.82 1746.49 2996.54 1743.51C2999.81 1742.8 2997.27 1744.8 2981.52 1755.3C2906.52 1805.29 2826.5 1830.84 2744.64 1830.93C2681.29 1830.99 2640.33 1818.41 2595.79 1785.2C2578.66 1772.43 2569.88 1764.67 2533.29 1729.95C2496.71 1695.24 2483.67 1683.96 2465.65 1671.45C2458.79 1666.69 2451.55 1661.36 2449.56 1659.62L2445.95 1656.45L2469.37 1655.92C2482.25 1655.63 2510.63 1655.29 2532.45 1655.17L2572.11 1654.95L2572.77 1663.7ZM2940.89 1655.78C2939.68 1657.74 2920.74 1666.16 2908.29 1670.28C2893.08 1675.31 2869.81 1680.89 2815.29 1692.6C2801.57 1695.55 2776.31 1696.83 2766.79 1695.07C2753.31 1692.58 2741.47 1684.12 2735.79 1672.95C2733.72 1668.87 2730.29 1658.78 2730.29 1656.78C2730.29 1655.9 2761.17 1655.54 2869.6 1655.18C2909.09 1655.05 2941.17 1655.32 2940.89 1655.78Z" fill="#117133"/>
</svg>
