<svg width="4096" height="1379" viewBox="0 0 4096 1379" fill="none" xmlns="http://www.w3.org/2000/svg">
<rect x="40" y="28" width="4001" height="1322" fill="white"/>
<path fill-rule="evenodd" clip-rule="evenodd" d="M0 689.5V1379H2048H4096V689.5V0H2048H0V689.5ZM3895.01 75.75C3895.01 76.713 3895.47 81.55 3896.02 86.5C3900.98 131.141 3926.86 168.274 3966.45 187.546C3982.43 195.325 3993.02 198.089 4016.25 200.538L4022 201.144V689.5V1177.86L4016.25 1178.46C3993.02 1180.91 3982.43 1183.67 3966.45 1191.45C3926.86 1210.73 3900.98 1247.86 3896.02 1292.5C3895.47 1297.45 3895.01 1302.29 3895.01 1303.25C3895 1304.92 3806.38 1305 2048 1305C289.622 1305 201 1304.92 200.992 1303.25C200.987 1302.29 200.533 1297.45 199.983 1292.5C195.022 1247.86 169.139 1210.73 129.552 1191.45C113.571 1183.67 102.979 1180.91 79.75 1178.46L74 1177.86V689.5V201.144L79.75 200.538C102.979 198.089 113.571 195.325 129.552 187.546C169.139 168.274 195.022 131.141 199.983 86.5C200.533 81.55 200.987 76.713 200.992 75.75C201 74.084 289.622 74 2048 74C3806.38 74 3895 74.084 3895.01 75.75ZM225 104.442C225 109.419 217.717 130.854 212.322 141.757C204.218 158.133 196.407 168.797 182.097 183.023C168.336 196.703 158.019 204.2 142.065 212.113C131.386 217.409 114.429 223.363 106.739 224.516L102 225.227V689.5V1153.77L106.739 1154.48C114.429 1155.64 131.386 1161.59 142.065 1166.89C158.019 1174.8 168.336 1182.3 182.097 1195.98C196.407 1210.2 204.218 1220.87 212.322 1237.24C217.717 1248.15 225 1269.58 225 1274.56V1277H2048H3871V1274.56C3871 1269.58 3878.28 1248.15 3883.68 1237.24C3891.78 1220.87 3899.59 1210.2 3913.9 1195.98C3927.66 1182.3 3937.98 1174.8 3953.94 1166.89C3964.61 1161.59 3981.57 1155.64 3989.26 1154.48L3994 1153.77V689.5V225.227L3989.26 224.516C3981.57 223.363 3964.61 217.409 3953.94 212.113C3937.98 204.2 3927.66 196.703 3913.9 183.023C3899.59 168.797 3891.78 158.133 3883.68 141.757C3878.28 130.854 3871 109.419 3871 104.442V102H2048H225V104.442ZM3849.91 142.5C3854.87 154.812 3863.22 170.134 3871 181.207C3878.69 192.142 3895.29 209.667 3906.5 218.692C3920.54 229.994 3944.36 243.49 3957.66 247.682L3963 249.365V689.5V1129.64L3957.66 1131.32C3944.36 1135.51 3920.54 1149.01 3906.5 1160.31C3895.29 1169.33 3878.69 1186.86 3871 1197.79C3863.22 1208.87 3854.87 1224.19 3849.91 1236.5L3846.29 1245.5L3409.26 1245.75L2972.24 1246L2971.53 1237.25C2967.92 1192.57 2940.93 1152.32 2901.74 1133.18C2885.97 1125.47 2864.83 1120 2850.82 1120H2845V689.5V259H2850.82C2854.03 259 2860.89 258.273 2866.07 257.385C2923.81 247.49 2966.79 200.362 2971.53 141.749L2972.24 132.998L3409.26 133.249L3846.29 133.5L3849.91 142.5Z" fill="#0000FF"/>
</svg>
