<svg width="4097" height="1671" viewBox="0 0 4097 1671" fill="none" xmlns="http://www.w3.org/2000/svg">
<path d="M77.4829 22.9946H4063.48V997.995L3546.98 1077.99L3048.48 1267.99L2621.48 1514.49L2094.98 1632.99L1538.48 1545.99L1096.48 1301.99L590.983 1086.99L77.4829 997.995V22.9946Z" fill="white"/>
<path fill-rule="evenodd" clip-rule="evenodd" d="M0.48291 522.245V1043.99L66.7329 1044.05C133.832 1044.1 158.88 1044.98 208.483 1049.06C441.391 1068.18 661.204 1129.57 882.983 1237.44C943.687 1266.97 1002.19 1301.22 1120.5 1376.48C1242.79 1454.28 1304.02 1490.26 1371.48 1524.01C1441.11 1558.84 1493.55 1579.86 1564.48 1601.36C1715.66 1647.2 1875.25 1670.42 2039.59 1670.48C2113.41 1670.51 2220.09 1660.69 2311.96 1645.4C2525.81 1609.81 2711.86 1542.16 2880.48 1438.67C2911.95 1419.35 2956.15 1388.99 2986.98 1365.5C3005.58 1351.33 3050.52 1323.74 3107.14 1291.72C3357.73 1150.01 3604.26 1071.44 3866.98 1049.57C3926.12 1044.64 3942.46 1044.05 4021.23 1044.02L4096.48 1043.99V522.245V0.494629H2048.48H0.48291V522.245ZM4028.48 521.834V975.173L3992.23 975.817C3717.45 980.697 3468.7 1039.22 3217.98 1157.99C3196.76 1168.04 3143.61 1194.88 3121.98 1206.47C3053.39 1243.22 2971.25 1292.19 2947.89 1310.25C2863.5 1375.5 2759.77 1434.99 2652.48 1479.67C2487.38 1548.42 2305.73 1588.3 2099.48 1601.08C2051.36 1604.06 1963.73 1602.25 1901.48 1596.99C1739.95 1583.34 1574.43 1543.04 1451.48 1487.44C1389.58 1459.45 1325.5 1424.27 1242.48 1372.68C1223.02 1360.59 1222.15 1360.04 1148.48 1313.3C1027.67 1236.64 968.671 1202.97 889.483 1165.47C673.079 1062.98 457.337 1003.3 229.983 983.031C189.947 979.462 148.663 977.282 94.7329 975.889L68.4829 975.211V521.853V68.4946H2048.48H4028.48V521.834ZM108.483 522.495V936.495L118.233 936.505C139.652 936.525 196.785 939.759 233.483 943.028C475.247 964.562 706.29 1030.42 934.983 1143C1003.93 1176.94 1056.64 1207.71 1178.48 1285.16C1242.14 1325.63 1269.16 1342.52 1298.93 1360.45C1401.95 1422.51 1478.36 1459.48 1559.48 1486.53C1669.48 1523.21 1782.73 1546.26 1905.48 1556.95C1926.8 1558.81 1971.92 1561.54 1978.32 1561.36C1980.89 1561.29 1975.11 1560.63 1965.48 1559.9C1793.83 1546.78 1638.76 1497.43 1516.48 1417.01C1474.98 1389.72 1444.55 1364.71 1410.98 1330.32C1375.43 1293.9 1350.07 1258.86 1328.95 1216.99C1308.02 1175.49 1296.76 1139.17 1290.83 1093.99C1288.45 1075.84 1288.45 1031.15 1290.83 1012.99C1301.56 931.229 1336.33 858.98 1398.34 789.604L1404.69 782.495H785.086H165.483V478.995V175.495H2048.48H3931.48V478.995V782.495H3311.88H2692.28L2698.63 789.604C2727.32 821.709 2749.89 854.062 2766.9 887.495C2788.41 929.769 2800.13 967.26 2806.14 1012.99C2808.52 1031.15 2808.52 1075.84 2806.14 1093.99C2800.21 1139.17 2788.95 1175.49 2768.01 1216.99C2746.9 1258.86 2721.53 1293.9 2685.98 1330.32C2652.42 1364.71 2621.98 1389.72 2580.48 1417.01C2491.66 1475.43 2386.76 1517.03 2266.48 1541.54C2240.09 1546.92 2239.35 1547.71 2264.2 1543.97C2471.5 1512.77 2653.25 1449.86 2811.54 1354.51C2848.73 1332.1 2879.07 1311.61 2914.35 1285.07C2938.18 1267.14 2943.29 1263.74 2978.98 1242.02C3269.45 1065.35 3545.28 970.609 3849.48 943.026C3884.46 939.854 3907.53 938.519 3972.23 935.92L3988.48 935.267V521.881V108.495H2048.48H108.483V522.495ZM1979.48 679.068C1921.76 682.876 1878.83 688.741 1817.48 701.197C1816.11 701.476 1805.86 703.896 1794.71 706.575C1611.27 750.634 1464.93 842.247 1396.28 955.995C1347.8 1036.33 1339.4 1124.01 1372.21 1207.49C1418.72 1325.87 1546.65 1427.31 1721.98 1484.85C1787.85 1506.47 1857.76 1521.17 1931.48 1528.92C1974.5 1533.44 1986.34 1533.95 2048.48 1533.95C2110.62 1533.95 2122.47 1533.44 2165.48 1528.92C2438.75 1500.2 2659.63 1373.25 2724.76 1207.49C2752.37 1137.22 2750.86 1063.66 2720.36 993.775C2680.17 901.692 2589.17 819.317 2464.48 762.142C2361.06 714.719 2246.13 687.37 2115.16 679.015C2085.93 677.15 2008.09 677.18 1979.48 679.068ZM2238.75 1547.19C2239.72 1547.44 2241.07 1547.42 2241.75 1547.15C2242.43 1546.88 2241.63 1546.67 2239.98 1546.69C2238.33 1546.71 2237.78 1546.93 2238.75 1547.19ZM1994.23 1562.22C1996.02 1562.44 1998.95 1562.44 2000.73 1562.22C2002.52 1562 2001.06 1561.81 1997.48 1561.81C1993.91 1561.81 1992.45 1562 1994.23 1562.22Z" fill="#0000FF"/>
</svg>
