<svg width="4096" height="1475" viewBox="0 0 4096 1475" fill="none" xmlns="http://www.w3.org/2000/svg">
<path d="M365 415H966V314H1255L1499 209L1796.5 51L2054 16.5L2324.5 51L2628.5 209L2856.5 314H3123V415H3741V506.5L3873.5 541.5L4044.5 702.5L4084.5 942.5L3991.5 1188L3816.5 1294L3741 1316.5V1404H3123V1454.5H966V1404.5L365 1412V1321L199 1262L65 1130.5L18 944.5L43 751.5L138 601.5L290 514.5L365 501.5V415Z" fill="white"/>
<path fill-rule="evenodd" clip-rule="evenodd" d="M2022.57 0.88857C1978.51 2.75157 1931.35 7.48057 1889.07 14.2766C1766.5 33.9786 1656.66 75.3276 1565.92 135.925C1544.5 150.23 1498.74 175.987 1454.07 198.885C1357.47 248.404 1273.84 278.715 1196.28 292.32L1182.12 294.803H1066.85H951.573V345.803V396.803H647.573H343.573V446.64V496.477L332.352 497.694C300.391 501.16 262.715 511.391 229.516 525.617C136.521 565.468 62.0995 642.7 25.0535 737.803C13.2365 768.139 5.3395 800.83 1.3755 835.813C-0.4585 852 -0.4585 970.606 1.3755 986.793C10.6745 1068.87 42.2465 1139.97 96.6195 1201.3C143.368 1254.03 208.269 1294.67 276.073 1313.67C296.175 1319.3 330.158 1325.76 339.823 1325.79L343.573 1325.8V1375.8V1425.8H647.573H951.573V1450.3V1474.8H2047.57H3143.57V1450.3V1425.8H3457.07H3770.57V1375V1324.21L3783.32 1321.88C3835.76 1312.31 3883.54 1292.78 3928.07 1262.72C3984.28 1224.78 4029.99 1171.67 4058.98 1110.61C4079.22 1067.96 4091.1 1022.8 4094.55 975.303C4095.87 957.114 4095.85 865.537 4094.53 846.803C4086.22 729.71 4023.37 622.923 3924.07 557.216C3882.6 529.77 3836.84 511.151 3787.35 501.584L3770.57 498.342V447.573V396.803H3457.07H3143.57V345.803V294.803H3025.74H2907.9L2893.99 292.247C2796.41 274.324 2697.45 230.934 2553.03 142.744C2492.41 105.724 2477.65 97.0846 2458.07 87.1556C2353.07 33.8966 2242.2 8.40757 2082.57 0.82857C2059 -0.29043 2050.24 -0.28143 2022.57 0.88857ZM2097.07 38.3086C2240.31 46.5976 2343.17 71.0036 2440.57 119.812C2464.63 131.868 2476.14 138.482 2513.25 161.593C2583.68 205.451 2627.08 230.129 2678.07 255.3C2757.43 294.474 2826.38 318.027 2896.07 329.77C2907.56 331.705 2912.35 331.793 3007.32 331.798L3106.57 331.803V382.303V432.803H3420.57H3734.57V481.616V530.429L3756.43 533.602C3802.12 540.237 3833.53 549.761 3870.07 568.058C3965.5 615.844 4035.01 708.945 4053.53 813.803C4058.04 839.359 4058.55 849.201 4058.56 911.048C4058.57 975.752 4057.95 986.354 4052.45 1014.3C4043.66 1059.04 4026.75 1099.85 4001.06 1138.3C3987.67 1158.34 3976.39 1172.03 3958.1 1190.41C3918.26 1230.44 3872.53 1258.41 3819.52 1275.19C3796.87 1282.36 3780.6 1285.8 3747.32 1290.45L3734.57 1292.23V1341.02V1389.8H3420.57H3106.57V1413.8V1437.8H2047.57H988.573V1413.8V1389.8H684.573H380.573V1341.38V1292.96L374.323 1292.37C344.276 1289.54 334.444 1288.45 323.845 1286.76C273.503 1278.75 221.898 1257.48 180.316 1227.61C157.726 1211.38 128.899 1184.16 112.23 1163.3C77.7775 1120.2 53.6025 1068.93 43.1515 1016.8C37.4225 988.225 37.2715 985.893 36.8215 918.803C36.3745 852.203 36.7565 843.227 41.1555 816.912C52.7745 747.409 85.8885 683.446 136.516 632.715C144.523 624.692 155.518 614.469 160.949 609.998C208.668 570.715 266.346 544.715 326.573 535.34C334.244 534.146 375.836 529.803 379.6 529.803C380.217 529.803 380.573 512.079 380.573 481.303V432.803H684.573H988.573V382.303V331.803H1085.09C1176.17 331.803 1182.3 331.692 1193.84 329.84C1252.48 320.433 1318.55 300.502 1384.57 272.306C1448.01 245.213 1540.17 196.728 1588.01 165.276C1702.9 89.7406 1839.24 48.3566 2006.07 38.3746C2036.47 36.5556 2066.41 36.5336 2097.07 38.3086ZM2040.57 67.4156C1998.67 69.1826 1961.41 72.1776 1929.25 76.3646C1800.09 93.1786 1690.08 132.896 1595.57 196.836C1590.9 199.999 1576.5 208.654 1563.57 216.07C1423.46 296.459 1306.68 342.696 1200.57 359.789C1188.76 361.692 1183.46 361.803 1103.83 361.803H1019.59L1019.33 412.553L1019.07 463.303L714.823 463.555L410.573 463.806V510.685V557.564L399.323 558.708C393.136 559.337 376.373 560.957 362.073 562.309C334.036 564.958 319.612 567.222 301.573 571.802C223.477 591.632 153.712 643.665 111.849 713.303C88.0815 752.839 73.8945 794.922 68.3585 842.303C66.5505 857.779 66.5575 966.113 68.3675 980.803C71.6835 1007.72 77.4585 1032.38 85.5775 1054.3C91.7925 1071.08 92.5625 1072.86 100.181 1088.06C132.315 1152.19 186.368 1203.98 252.074 1233.58C276.044 1244.38 310.781 1254.37 336.073 1257.73C342.574 1258.59 407.169 1264.79 409.823 1264.8C410.236 1264.8 410.573 1285.95 410.573 1311.8V1358.8L714.823 1359.05L1019.07 1359.3L1019.34 1383.55L1019.61 1407.8H2047.57H3075.54L3075.81 1383.55L3076.07 1359.3L3389.82 1359.05L3703.57 1358.8V1312.35V1265.89L3706.82 1265.33C3708.61 1265.02 3722.67 1262.96 3738.07 1260.76C3753.47 1258.56 3769.62 1256.09 3773.95 1255.28C3860.54 1239.02 3937.6 1185.17 3983.59 1108.8C4002.73 1077.02 4017.24 1038.45 4023.48 1002.8C4027.79 978.105 4028.07 972.53 4028.07 911.303C4028.07 848.948 4027.81 844.084 4023.05 817.803C4010.8 750.217 3973.97 685.347 3922.19 640.153C3883.93 606.766 3840.48 583.68 3793.57 571.813C3778.55 568.013 3770.69 566.618 3737.07 561.79C3721.67 559.578 3707.84 557.515 3706.32 557.206L3703.57 556.644V510.225V463.806L3389.82 463.555L3076.07 463.303L3075.81 412.583L3075.56 361.864L2985.31 361.577L2895.07 361.29L2876.07 357.502C2787.01 339.744 2702.86 306.5 2597.07 247.273C2564.59 229.089 2538.82 213.682 2490.07 183.297C2450.55 158.662 2424.51 144.794 2390.55 130.293C2319.09 99.7756 2239.61 81.1676 2143.07 72.3486C2108.52 69.1916 2057.12 66.7176 2040.57 67.4156ZM2516.93 445.452C2524.17 449.117 2527.57 454.831 2527.57 463.313C2527.57 473.741 2522.03 480.546 2511.61 482.905C2498.21 485.938 2484.92 472.169 2488.46 458.93C2491.93 445.977 2505.38 439.607 2516.93 445.452ZM1596.36 446.697C1608.63 452.959 1610.91 469.848 1600.72 479.053C1587.47 491.024 1567.57 482.096 1567.57 464.181C1567.57 452.871 1575.58 444.831 1586.86 444.812C1590.59 444.806 1593.98 445.478 1596.36 446.697ZM2467.91 448.111C2473.63 452.476 2475.86 457.765 2475.4 465.91C2475.07 471.639 2474.54 473.28 2471.98 476.497C2470.31 478.59 2467.17 481.203 2465.01 482.303C2461.09 484.292 2458.84 484.304 2049.69 484.557C1765.83 484.732 1637.11 484.486 1634.43 483.765C1629.91 482.546 1624.15 477.811 1621.9 473.462C1619.85 469.508 1619.83 459.131 1621.86 455.245C1623.78 451.559 1628.3 447.227 1631.57 445.922C1633.22 445.265 1775.48 444.99 2049.15 445.114L2464.23 445.303L2467.91 448.111Z" fill="#0000FF"/>
</svg>
