<svg width="4096" height="1870" viewBox="0 0 4096 1870" fill="none" xmlns="http://www.w3.org/2000/svg">
<path d="M779 109L2050.5 13L3317 109V341.5L4076 511.5V1239L2976.5 1259.5L2835 1542.5L2515.5 1777L1998.5 1844L1580 1763L1318.5 1604.5L1132.5 1258.5L13.5 1246.5V508.5L779 338V109Z" fill="white"/>
<path fill-rule="evenodd" clip-rule="evenodd" d="M1910 0.983548C1665.97 4.57555 1382.49 21.4525 1164 45.3955C1122.92 49.8965 1085 54.1295 1074 55.4405C1001.34 64.0985 954.316 70.2456 886.5 79.9536C851.349 84.9856 774.085 96.7976 771.75 97.4966C770.097 97.9916 770 104.146 770 208.453C770 269.191 769.785 318.886 769.522 318.886C769.067 318.886 754.165 321.222 734.5 324.376C716.824 327.211 652.302 337.964 641.5 339.875C458.039 372.333 307.427 405.008 150 446.505C109.262 457.244 37.939 477.317 9.75 485.977L0 488.972V878.429V1267.89L472.75 1267.91C751.357 1267.92 955.767 1268.31 970.5 1268.87C1091.34 1273.45 1135.9 1300.1 1173.44 1390.28C1179.96 1405.93 1192.47 1442.02 1201.56 1471.39C1207.89 1491.84 1214.69 1508.92 1223 1525.25C1277.13 1631.56 1397.05 1723.85 1563 1786.88C1747.01 1856.77 1973.12 1883.92 2195.5 1862.82C2473.57 1836.43 2712.46 1734.22 2829.27 1591.65C2860.31 1553.77 2880.44 1516.63 2894.44 1471.39C2927 1366.2 2949.11 1325.99 2988.5 1300.34C3019.08 1280.43 3058.32 1271.41 3125.5 1268.87C3140.23 1268.31 3344.64 1267.92 3623.25 1267.91L4096 1267.89V878.429V488.972L4086.25 485.977C4058.06 477.317 3986.74 457.244 3946 446.505C3788.57 405.008 3637.96 372.333 3454.5 339.875C3443.7 337.964 3379.18 327.211 3361.5 324.376C3341.83 321.222 3326.93 318.886 3326.48 318.886C3326.22 318.886 3326 269.191 3326 208.453C3326 104.146 3325.9 97.9916 3324.25 97.4966C3321.91 96.7976 3244.65 84.9856 3209.5 79.9536C3141.68 70.2456 3094.66 64.0985 3022 55.4405C3011 54.1295 2973.08 49.8965 2932 45.3955C2888.37 40.6145 2808.09 33.1135 2745 27.9225C2478.28 5.97755 2193.93 -3.19645 1910 0.983548ZM2214.5 50.8865C2591.55 58.9215 2913.33 85.3475 3250.5 135.964C3261.5 137.616 3271.74 139.209 3273.25 139.506L3276 140.045V250.446V360.848L3278.25 361.374C3279.49 361.663 3293.77 363.925 3310 366.401C3567.69 405.726 3815.56 458.955 4030.5 521.127L4045.5 525.466L4045.75 872.176L4046 1218.89L3587.75 1218.89C3295.34 1218.89 3122.62 1219.26 3110.5 1219.9C3025.89 1224.35 2971.05 1243.68 2932.3 1282.7C2899.19 1316.02 2876.4 1361.89 2849.49 1449.39C2836.28 1492.33 2824.46 1516.18 2800.45 1548.39C2759.9 1602.76 2692.85 1655.85 2611.5 1697.99C2467.55 1772.55 2278.4 1816.11 2082.75 1819.74C1923.25 1822.7 1782.83 1804.61 1648 1763.74C1491.11 1716.19 1361.74 1637.14 1295.55 1548.39C1271.54 1516.18 1259.72 1492.33 1246.51 1449.39C1223.78 1375.49 1205.43 1334.6 1180.16 1301.53C1140.35 1249.45 1082.01 1224.98 985.5 1219.9C973.376 1219.26 800.655 1218.89 508.249 1218.89L49.997 1218.89L50.249 872.176L50.5 525.466L65.5 521.127C240.811 470.417 436.409 425.983 645.5 389.368C683.479 382.718 745.297 372.612 786 366.401C802.225 363.925 816.513 361.663 817.75 361.374L820 360.848V250.446V140.045L822.75 139.506C824.262 139.209 834.5 137.616 845.5 135.964C1179.63 85.8035 1506.57 58.8095 1875 50.9645C1928.53 49.8245 2162.16 49.7705 2214.5 50.8865ZM1947 99.4906C1769.55 102.016 1597.45 108.853 1459 118.878C1413.92 122.143 1400.94 123.114 1378 124.938C1212.18 138.129 1064.18 154.637 893.25 179.007L870 182.321V292.545C870 353.479 869.613 403.007 869.135 403.303C868.323 403.804 850.642 406.626 780.5 417.449C576.792 448.882 378.358 489.346 199.276 535.969C176.131 541.995 115.09 558.505 100.75 562.617C99.088 563.094 99 578.399 99 865.976V1168.83L542.25 1169.16C950.317 1169.45 987.008 1169.62 1004.5 1171.19C1062.38 1176.38 1100.56 1185.78 1137.5 1203.91C1196.33 1232.8 1236.28 1280.48 1268.1 1359.78C1275.13 1377.29 1283.28 1401.17 1298.01 1447.39C1315.8 1503.24 1355.89 1553.03 1422.15 1601.59C1505.41 1662.61 1623.31 1711.81 1754.5 1740.28C1941.53 1780.86 2154.47 1780.86 2341.5 1740.28C2527.82 1699.85 2681.42 1619.59 2757.56 1522.89C2775.65 1499.92 2789.49 1474.06 2797.99 1447.39C2812.72 1401.17 2820.87 1377.29 2827.9 1359.78C2859.72 1280.48 2899.67 1232.8 2958.5 1203.91C2995.44 1185.78 3033.62 1176.38 3091.5 1171.19C3108.99 1169.62 3145.68 1169.45 3553.75 1169.16L3997 1168.83V865.976C3997 578.399 3996.91 563.094 3995.25 562.617C3980.91 558.505 3919.87 541.995 3896.72 535.969C3717.64 489.346 3519.21 448.882 3315.5 417.449C3245.36 406.626 3227.68 403.804 3226.86 403.303C3226.39 403.007 3226 353.479 3226 292.545V182.321L3202.75 179.007C3031.82 154.637 2883.82 138.129 2718 124.938C2695.06 123.114 2682.08 122.143 2637 118.878C2525.38 110.796 2370.82 103.898 2233.5 100.869C2187.89 99.8626 1988.33 98.9026 1947 99.4906ZM2131.5 1014.83C2357.4 1027.76 2555.33 1081.58 2717.5 1174.19C2734.1 1183.67 2759.18 1199.32 2774.5 1209.75C2795.89 1224.32 2829 1249.42 2829 1251.07C2829 1251.57 2826.82 1255.22 2824.16 1259.18C2797.72 1298.57 2780.11 1339.86 2752.54 1427.17C2746.23 1447.14 2742.57 1455.73 2734.65 1469.15C2685.51 1552.44 2553.81 1632.34 2392.06 1677.01C2313.85 1698.6 2234.13 1711.7 2139 1718.59C2103.58 1721.15 1992.42 1721.15 1957 1718.59C1888.29 1713.61 1839.47 1707.11 1778.9 1694.86C1618.65 1662.44 1479.99 1597.98 1401.5 1519.4C1370.55 1488.42 1354.83 1463.47 1343.5 1427.39C1316.41 1341.11 1298.3 1298.6 1271.84 1259.18C1269.18 1255.22 1267 1251.57 1267 1251.07C1267 1250.06 1281.18 1238.83 1299 1225.71C1341.73 1194.26 1393.35 1163.81 1447 1138.39C1598.39 1066.69 1780.43 1023.49 1967.5 1014.89C1980.15 1014.31 1993.42 1013.68 1997 1013.49C2010.54 1012.76 2113.32 1013.79 2131.5 1014.83Z" fill="#0000FF"/>
</svg>
